<?xml version="1.0" encoding="utf-8"?>
<!-- Generator: Adobe Illustrator 23.0.1, SVG Export Plug-In . SVG Version: 6.00 Build 0)  -->
<svg version="1.1" id="Layer_1" xmlns="http://www.w3.org/2000/svg" xmlns:xlink="http://www.w3.org/1999/xlink" x="0px" y="0px"
	 viewBox="0 0 1156 292" style="enable-background:new 0 0 1156 292;" xml:space="preserve">
<style type="text/css">
	.st0{fill:#B5BBCD;}
	.st1{fill:#2173FD;}
	.st2{fill:none;stroke:#B5BBCD;stroke-width:2;}
	.st3{fill-rule:evenodd;clip-rule:evenodd;fill:#2173FD;}
	.st4{fill:#ECEEFB;}
	.st5{fill-rule:evenodd;clip-rule:evenodd;fill:#FFFFFF;}
	.st6{fill:#CFD3ED;}
	.st7{fill:#D8DBEE;}
	.st8{fill:none;stroke:#B5BBCD;stroke-width:2;stroke-dasharray:10.1,10.1;}
	.st9{fill:#0D4AAF;}
</style>
<path class="st0" d="M144.4,112.2v3.3h-1.5v-8.8h3.3c1,0,1.8,0.3,2.3,0.8c0.6,0.5,0.9,1.2,0.9,2c0,0.9-0.3,1.5-0.8,2
	c-0.6,0.5-1.3,0.7-2.4,0.7H144.4z M144.4,111h1.8c0.5,0,1-0.1,1.2-0.4c0.3-0.3,0.4-0.6,0.4-1.1c0-0.5-0.1-0.8-0.4-1.1
	c-0.3-0.3-0.7-0.4-1.2-0.4h-1.9V111z M154.4,115.4c-0.1-0.1-0.1-0.3-0.2-0.6c-0.5,0.5-1,0.7-1.7,0.7c-0.7,0-1.2-0.2-1.6-0.6
	c-0.4-0.4-0.6-0.8-0.6-1.4c0-0.7,0.3-1.2,0.8-1.6c0.5-0.4,1.3-0.6,2.2-0.6h0.9V111c0-0.3-0.1-0.6-0.3-0.8c-0.2-0.2-0.5-0.3-0.9-0.3
	c-0.3,0-0.6,0.1-0.8,0.3c-0.2,0.2-0.3,0.4-0.3,0.6h-1.5c0-0.4,0.1-0.7,0.4-1c0.2-0.3,0.6-0.6,1-0.7c0.4-0.2,0.9-0.3,1.4-0.3
	c0.8,0,1.4,0.2,1.8,0.6c0.5,0.4,0.7,0.9,0.7,1.6v2.9c0,0.6,0.1,1.1,0.2,1.4v0.1H154.4z M152.8,114.4c0.3,0,0.6-0.1,0.8-0.2
	c0.3-0.1,0.4-0.3,0.6-0.6v-1.2h-0.8c-0.5,0-0.9,0.1-1.2,0.3c-0.3,0.2-0.4,0.5-0.4,0.8c0,0.3,0.1,0.5,0.3,0.7
	C152.2,114.3,152.5,114.4,152.8,114.4z M159.4,113.3l1.3-4.4h1.6l-2.6,7.5c-0.4,1.1-1.1,1.6-2,1.6c-0.2,0-0.4,0-0.7-0.1v-1.1l0.3,0
	c0.4,0,0.6-0.1,0.8-0.2c0.2-0.1,0.3-0.4,0.4-0.7l0.2-0.6l-2.3-6.5h1.6L159.4,113.3z M171.7,111.7c0,1.3-0.2,2.2-0.7,2.9
	c-0.5,0.6-1.2,1-2.1,1c-0.9,0-1.7-0.3-2.1-0.9c-0.5-0.6-0.7-1.6-0.7-2.8v-1.5c0-1.3,0.2-2.2,0.7-2.8c0.5-0.6,1.2-0.9,2.2-0.9
	c1,0,1.7,0.3,2.1,0.9c0.5,0.6,0.7,1.5,0.7,2.8V111.7z M170.3,110.1c0-0.8-0.1-1.4-0.3-1.8c-0.2-0.4-0.6-0.6-1.1-0.6
	c-0.5,0-0.8,0.2-1.1,0.5c-0.2,0.4-0.3,0.9-0.4,1.7v2c0,0.8,0.1,1.4,0.3,1.8c0.2,0.4,0.6,0.6,1.1,0.6c0.5,0,0.8-0.2,1-0.6
	c0.2-0.4,0.3-1,0.4-1.7V110.1z M174,113.9c0.3,0,0.5,0.1,0.6,0.2c0.1,0.2,0.2,0.3,0.2,0.6c0,0.2-0.1,0.4-0.2,0.6
	c-0.1,0.1-0.4,0.2-0.6,0.2c-0.3,0-0.5-0.1-0.6-0.2c-0.2-0.1-0.2-0.3-0.2-0.6c0-0.2,0.1-0.4,0.2-0.6C173.5,114,173.8,113.9,174,113.9
	z M179.7,115.4h-1.5v-7l-2.1,0.7v-1.2l3.4-1.3h0.2V115.4z M211.8,115.4V110h-1v-1.1h1v-0.6c0-0.7,0.2-1.3,0.6-1.7
	c0.4-0.4,1-0.6,1.7-0.6c0.3,0,0.5,0,0.8,0.1l0,1.1c-0.2,0-0.3,0-0.6,0c-0.7,0-1,0.4-1,1.1v0.6h1.3v1.1h-1.3v5.4H211.8z M218.4,115.6
	c-0.9,0-1.7-0.3-2.3-0.9c-0.6-0.6-0.9-1.4-0.9-2.3v-0.2c0-0.7,0.1-1.2,0.4-1.7c0.3-0.5,0.6-0.9,1.1-1.2c0.5-0.3,1-0.4,1.5-0.4
	c0.9,0,1.6,0.3,2,0.8c0.5,0.6,0.7,1.4,0.7,2.4v0.6h-4.2c0,0.5,0.2,1,0.5,1.3c0.3,0.3,0.7,0.5,1.2,0.5c0.7,0,1.2-0.3,1.6-0.8l0.8,0.8
	c-0.3,0.4-0.6,0.7-1,0.9C219.4,115.4,218.9,115.6,218.4,115.6z M218.2,110c-0.4,0-0.7,0.1-1,0.4c-0.2,0.3-0.4,0.7-0.5,1.2h2.8v-0.1
	c0-0.5-0.2-0.9-0.4-1.1C218.9,110.1,218.6,110,218.2,110z M225,115.6c-0.9,0-1.7-0.3-2.3-0.9c-0.6-0.6-0.9-1.4-0.9-2.3v-0.2
	c0-0.7,0.1-1.2,0.4-1.7c0.3-0.5,0.6-0.9,1.1-1.2c0.5-0.3,1-0.4,1.5-0.4c0.9,0,1.6,0.3,2,0.8c0.5,0.6,0.7,1.4,0.7,2.4v0.6h-4.2
	c0,0.5,0.2,1,0.5,1.3c0.3,0.3,0.7,0.5,1.2,0.5c0.7,0,1.2-0.3,1.6-0.8l0.8,0.8c-0.3,0.4-0.6,0.7-1,0.9
	C226,115.4,225.5,115.6,225,115.6z M224.8,110c-0.4,0-0.7,0.1-1,0.4c-0.2,0.3-0.4,0.7-0.5,1.2h2.8v-0.1c0-0.5-0.2-0.9-0.4-1.1
	C225.5,110.1,225.2,110,224.8,110z M232.3,115.4V110h-1v-1.1h1v-0.6c0-0.7,0.2-1.3,0.6-1.7c0.4-0.4,1-0.6,1.7-0.6
	c0.3,0,0.5,0,0.8,0.1l0,1.1c-0.2,0-0.3,0-0.6,0c-0.7,0-1,0.4-1,1.1v0.6h1.3v1.1h-1.3v5.4H232.3z M235.8,112.1c0-0.6,0.1-1.2,0.4-1.7
	c0.3-0.5,0.6-0.9,1.1-1.2c0.5-0.3,1-0.4,1.6-0.4c0.9,0,1.6,0.3,2.1,0.8c0.5,0.6,0.8,1.3,0.9,2.2l0,0.3c0,0.6-0.1,1.2-0.4,1.7
	c-0.2,0.5-0.6,0.9-1.1,1.2c-0.5,0.3-1,0.4-1.6,0.4c-0.9,0-1.6-0.3-2.2-0.9C236.1,114,235.8,113.2,235.8,112.1L235.8,112.1z
	 M237.3,112.2c0,0.7,0.1,1.2,0.4,1.6c0.3,0.4,0.7,0.6,1.2,0.6s0.9-0.2,1.1-0.6c0.3-0.4,0.4-0.9,0.4-1.7c0-0.7-0.1-1.2-0.4-1.6
	c-0.3-0.4-0.7-0.6-1.1-0.6c-0.5,0-0.9,0.2-1.1,0.6C237.4,110.9,237.3,111.5,237.3,112.2z M246.5,110.3c-0.2,0-0.4,0-0.6,0
	c-0.7,0-1.1,0.3-1.4,0.8v4.5h-1.5v-6.5h1.4l0,0.7c0.4-0.6,0.8-0.8,1.5-0.8c0.2,0,0.4,0,0.5,0.1L246.5,110.3z M147.8,128h-3.4l-0.7,2
	h-1.6l3.3-8.8h1.4l3.3,8.8h-1.6L147.8,128z M144.8,126.8h2.5l-1.3-3.6L144.8,126.8z M152.5,130H151v-9.2h1.5V130z M155.6,130h-1.5
	v-6.5h1.5V130z M154.1,121.8c0-0.2,0.1-0.4,0.2-0.6c0.1-0.1,0.3-0.2,0.6-0.2c0.3,0,0.5,0.1,0.6,0.2c0.1,0.1,0.2,0.3,0.2,0.6
	c0,0.2-0.1,0.4-0.2,0.6c-0.1,0.1-0.3,0.2-0.6,0.2c-0.3,0-0.5-0.1-0.6-0.2C154.1,122.2,154.1,122.1,154.1,121.8z M159.9,129
	c0.4,0,0.7-0.1,0.9-0.3s0.4-0.5,0.4-0.8h1.4c0,0.4-0.1,0.8-0.4,1.1c-0.2,0.3-0.6,0.6-1,0.8s-0.8,0.3-1.3,0.3c-0.9,0-1.6-0.3-2.2-0.9
	c-0.5-0.6-0.8-1.4-0.8-2.4v-0.1c0-1,0.3-1.8,0.8-2.4c0.5-0.6,1.2-0.9,2.2-0.9c0.8,0,1.4,0.2,1.9,0.7c0.5,0.4,0.7,1,0.8,1.8h-1.4
	c0-0.4-0.1-0.7-0.4-0.9c-0.2-0.2-0.5-0.4-0.9-0.4c-0.5,0-0.8,0.2-1.1,0.5c-0.3,0.3-0.4,0.9-0.4,1.6v0.2c0,0.7,0.1,1.2,0.4,1.6
	C159,128.8,159.4,129,159.9,129z M166.5,130.2c-0.9,0-1.7-0.3-2.3-0.9c-0.6-0.6-0.9-1.4-0.9-2.3v-0.2c0-0.7,0.1-1.2,0.4-1.7
	c0.3-0.5,0.6-0.9,1.1-1.2c0.5-0.3,1-0.4,1.5-0.4c0.9,0,1.6,0.3,2,0.8c0.5,0.6,0.7,1.4,0.7,2.4v0.6h-4.2c0,0.5,0.2,1,0.5,1.3
	c0.3,0.3,0.7,0.5,1.2,0.5c0.7,0,1.2-0.3,1.6-0.8l0.8,0.8c-0.3,0.4-0.6,0.7-1,0.9C167.5,130,167,130.2,166.5,130.2z M166.3,124.6
	c-0.4,0-0.7,0.1-1,0.4c-0.2,0.3-0.4,0.7-0.5,1.2h2.8v-0.1c0-0.5-0.2-0.9-0.4-1.1C167.1,124.7,166.7,124.6,166.3,124.6z M175.1,121.9
	v1.6h1.1v1.1h-1.1v3.6c0,0.2,0,0.4,0.1,0.5c0.1,0.1,0.3,0.2,0.5,0.2c0.2,0,0.3,0,0.5-0.1v1.1c-0.3,0.1-0.7,0.1-1,0.1
	c-1.1,0-1.7-0.6-1.7-1.9v-3.7h-1.1v-1.1h1.1v-1.6H175.1z M180.8,124.9c-0.2,0-0.4,0-0.6,0c-0.7,0-1.1,0.3-1.4,0.8v4.5h-1.5v-6.5h1.4
	l0,0.7c0.4-0.6,0.8-0.8,1.5-0.8c0.2,0,0.4,0,0.5,0.1L180.8,124.9z M185.4,130c-0.1-0.1-0.1-0.3-0.2-0.6c-0.5,0.5-1,0.7-1.7,0.7
	c-0.7,0-1.2-0.2-1.6-0.6s-0.6-0.8-0.6-1.4c0-0.7,0.3-1.2,0.8-1.6c0.5-0.4,1.3-0.6,2.2-0.6h0.9v-0.4c0-0.3-0.1-0.6-0.3-0.8
	c-0.2-0.2-0.5-0.3-0.9-0.3c-0.3,0-0.6,0.1-0.8,0.3c-0.2,0.2-0.3,0.4-0.3,0.6h-1.5c0-0.4,0.1-0.7,0.4-1c0.2-0.3,0.6-0.6,1-0.7
	c0.4-0.2,0.9-0.3,1.4-0.3c0.8,0,1.4,0.2,1.8,0.6c0.5,0.4,0.7,0.9,0.7,1.6v2.9c0,0.6,0.1,1.1,0.2,1.4v0.1H185.4z M183.8,129
	c0.3,0,0.6-0.1,0.8-0.2c0.3-0.1,0.4-0.3,0.6-0.6V127h-0.8c-0.5,0-0.9,0.1-1.2,0.3c-0.3,0.2-0.4,0.5-0.4,0.8c0,0.3,0.1,0.5,0.3,0.7
	C183.3,128.9,183.5,129,183.8,129z M189.5,123.5l0,0.8c0.5-0.6,1.1-0.9,1.9-0.9c1.4,0,2,0.8,2.1,2.3v4.3h-1.5v-4.2
	c0-0.4-0.1-0.7-0.3-0.9c-0.2-0.2-0.5-0.3-0.9-0.3c-0.6,0-1,0.3-1.3,0.8v4.6h-1.5v-6.5H189.5z M198.7,128.3c0-0.3-0.1-0.5-0.3-0.6
	c-0.2-0.1-0.6-0.3-1.1-0.4c-0.5-0.1-0.9-0.2-1.2-0.4c-0.7-0.4-1.1-0.9-1.1-1.5c0-0.6,0.2-1,0.7-1.4c0.5-0.4,1.1-0.6,1.8-0.6
	c0.8,0,1.4,0.2,1.9,0.6c0.5,0.4,0.7,0.9,0.7,1.5h-1.5c0-0.3-0.1-0.5-0.3-0.7c-0.2-0.2-0.5-0.3-0.8-0.3c-0.3,0-0.6,0.1-0.8,0.2
	c-0.2,0.1-0.3,0.3-0.3,0.6c0,0.2,0.1,0.4,0.3,0.5s0.6,0.3,1.1,0.4c0.6,0.1,1,0.3,1.3,0.5c0.3,0.2,0.6,0.4,0.7,0.6
	c0.2,0.2,0.2,0.5,0.2,0.9c0,0.6-0.2,1.1-0.7,1.4c-0.5,0.4-1.1,0.5-1.9,0.5c-0.5,0-1-0.1-1.4-0.3c-0.4-0.2-0.7-0.5-1-0.8
	c-0.2-0.3-0.3-0.7-0.3-1.1h1.4c0,0.3,0.2,0.6,0.4,0.8c0.2,0.2,0.6,0.3,1,0.3c0.4,0,0.7-0.1,0.9-0.2
	C198.6,128.7,198.7,128.5,198.7,128.3z M205.3,130c-0.1-0.1-0.1-0.3-0.2-0.6c-0.5,0.5-1,0.7-1.7,0.7c-0.7,0-1.2-0.2-1.6-0.6
	c-0.4-0.4-0.6-0.8-0.6-1.4c0-0.7,0.3-1.2,0.8-1.6c0.5-0.4,1.3-0.6,2.2-0.6h0.9v-0.4c0-0.3-0.1-0.6-0.3-0.8c-0.2-0.2-0.5-0.3-0.9-0.3
	c-0.3,0-0.6,0.1-0.8,0.3c-0.2,0.2-0.3,0.4-0.3,0.6h-1.5c0-0.4,0.1-0.7,0.4-1c0.2-0.3,0.6-0.6,1-0.7c0.4-0.2,0.9-0.3,1.4-0.3
	c0.8,0,1.4,0.2,1.8,0.6c0.5,0.4,0.7,0.9,0.7,1.6v2.9c0,0.6,0.1,1.1,0.2,1.4v0.1H205.3z M203.7,129c0.3,0,0.6-0.1,0.8-0.2
	c0.3-0.1,0.4-0.3,0.6-0.6V127h-0.8c-0.5,0-0.9,0.1-1.2,0.3c-0.3,0.2-0.4,0.5-0.4,0.8c0,0.3,0.1,0.5,0.3,0.7
	C203.1,128.9,203.3,129,203.7,129z M210.7,129c0.4,0,0.7-0.1,0.9-0.3c0.2-0.2,0.4-0.5,0.4-0.8h1.4c0,0.4-0.1,0.8-0.4,1.1
	c-0.2,0.3-0.6,0.6-1,0.8c-0.4,0.2-0.8,0.3-1.3,0.3c-0.9,0-1.6-0.3-2.2-0.9c-0.5-0.6-0.8-1.4-0.8-2.4v-0.1c0-1,0.3-1.8,0.8-2.4
	c0.5-0.6,1.2-0.9,2.2-0.9c0.8,0,1.4,0.2,1.9,0.7c0.5,0.4,0.7,1,0.8,1.8H212c0-0.4-0.1-0.7-0.4-0.9c-0.2-0.2-0.5-0.4-0.9-0.4
	c-0.5,0-0.8,0.2-1.1,0.5c-0.3,0.3-0.4,0.9-0.4,1.6v0.2c0,0.7,0.1,1.2,0.4,1.6C209.8,128.8,210.2,129,210.7,129z M216.3,121.9v1.6
	h1.1v1.1h-1.1v3.6c0,0.2,0,0.4,0.1,0.5c0.1,0.1,0.3,0.2,0.5,0.2c0.2,0,0.3,0,0.5-0.1v1.1c-0.3,0.1-0.7,0.1-1,0.1
	c-1.1,0-1.7-0.6-1.7-1.9v-3.7h-1.1v-1.1h1.1v-1.6H216.3z M220.1,130h-1.5v-6.5h1.5V130z M218.6,121.8c0-0.2,0.1-0.4,0.2-0.6
	c0.1-0.1,0.3-0.2,0.6-0.2c0.3,0,0.5,0.1,0.6,0.2c0.1,0.1,0.2,0.3,0.2,0.6c0,0.2-0.1,0.4-0.2,0.6c-0.1,0.1-0.3,0.2-0.6,0.2
	c-0.3,0-0.5-0.1-0.6-0.2C218.6,122.2,218.6,122.1,218.6,121.8z M221.4,126.7c0-0.6,0.1-1.2,0.4-1.7c0.3-0.5,0.6-0.9,1.1-1.2
	c0.5-0.3,1-0.4,1.6-0.4c0.9,0,1.6,0.3,2.1,0.8c0.5,0.6,0.8,1.3,0.9,2.2l0,0.3c0,0.6-0.1,1.2-0.4,1.7c-0.2,0.5-0.6,0.9-1.1,1.2
	c-0.5,0.3-1,0.4-1.6,0.4c-0.9,0-1.6-0.3-2.2-0.9C221.7,128.6,221.4,127.8,221.4,126.7L221.4,126.7z M222.9,126.8
	c0,0.7,0.1,1.2,0.4,1.6c0.3,0.4,0.7,0.6,1.2,0.6s0.9-0.2,1.1-0.6c0.3-0.4,0.4-0.9,0.4-1.7c0-0.7-0.1-1.2-0.4-1.6
	c-0.3-0.4-0.7-0.6-1.1-0.6c-0.5,0-0.9,0.2-1.1,0.6C223,125.5,222.9,126.1,222.9,126.8z M230,123.5l0,0.8c0.5-0.6,1.1-0.9,1.9-0.9
	c1.4,0,2,0.8,2.1,2.3v4.3h-1.5v-4.2c0-0.4-0.1-0.7-0.3-0.9c-0.2-0.2-0.5-0.3-0.9-0.3c-0.6,0-1,0.3-1.3,0.8v4.6h-1.5v-6.5H230z"/>
<path class="st1" d="M189.2,111.5h-3.6v2.7h4.2v1.2h-5.7v-8.8h5.7v1.2h-4.2v2.4h3.6V111.5z M198,115.4h-1.5l-3.9-6.2v6.2h-1.5v-8.8
	h1.5l3.9,6.2v-6.2h1.5V115.4z M206.7,111.3c0,0.8-0.1,1.6-0.4,2.2c-0.3,0.6-0.6,1.1-1.1,1.4l1.5,1.2l-1,0.9l-1.9-1.5
	c-0.2,0.1-0.5,0.1-0.8,0.1c-0.7,0-1.3-0.2-1.9-0.5c-0.6-0.3-1-0.8-1.3-1.5c-0.3-0.6-0.5-1.4-0.5-2.2v-0.5c0-0.9,0.1-1.6,0.4-2.3
	c0.3-0.7,0.7-1.2,1.3-1.5c0.6-0.3,1.2-0.5,1.9-0.5c0.7,0,1.4,0.2,1.9,0.5c0.6,0.3,1,0.8,1.3,1.5c0.3,0.6,0.5,1.4,0.5,2.2V111.3z
	 M205.2,110.8c0-1-0.2-1.7-0.6-2.2c-0.4-0.5-0.9-0.8-1.6-0.8c-0.7,0-1.2,0.3-1.5,0.8c-0.4,0.5-0.6,1.2-0.6,2.2v0.5
	c0,0.9,0.2,1.7,0.6,2.2c0.4,0.5,0.9,0.8,1.6,0.8c0.7,0,1.2-0.3,1.6-0.8c0.4-0.5,0.5-1.3,0.5-2.2V110.8z"/>
<path class="st2" d="M479.7,121.6H274c-0.9,0-1.6,0.7-1.6,1.6v44.7c0,0.9,0.7,1.6,1.6,1.6h205.7c0.9,0,1.6-0.7,1.6-1.6v-44.7
	C481.3,122.3,480.6,121.6,479.7,121.6z"/>
<path class="st2" d="M974.4,123.4H768.7c-0.9,0-1.6,0.7-1.6,1.6v44.7c0,0.9,0.7,1.6,1.6,1.6h205.7c0.9,0,1.6-0.7,1.6-1.6V125
	C976,124.1,975.3,123.4,974.4,123.4z"/>
<path class="st0" d="M329.8,146.8c-0.1,0.9-0.4,1.7-1,2.2c-0.6,0.5-1.4,0.8-2.4,0.8c-0.7,0-1.3-0.2-1.8-0.5
	c-0.5-0.3-0.9-0.8-1.2-1.4c-0.3-0.6-0.4-1.3-0.5-2.1v-0.8c0-0.8,0.1-1.6,0.4-2.2c0.3-0.6,0.7-1.1,1.3-1.5c0.5-0.3,1.2-0.5,1.9-0.5
	c1,0,1.7,0.3,2.3,0.8c0.6,0.5,0.9,1.3,1,2.2h-1.5c-0.1-0.6-0.3-1.1-0.6-1.4c-0.3-0.3-0.7-0.4-1.3-0.4c-0.7,0-1.2,0.2-1.5,0.7
	c-0.4,0.5-0.5,1.2-0.5,2.1v0.8c0,0.9,0.2,1.7,0.5,2.2c0.3,0.5,0.8,0.7,1.5,0.7c0.6,0,1-0.1,1.3-0.4c0.3-0.3,0.5-0.7,0.6-1.3H329.8z
	 M334.9,149.6c-0.1-0.1-0.1-0.3-0.2-0.6c-0.5,0.5-1,0.7-1.7,0.7c-0.7,0-1.2-0.2-1.6-0.6c-0.4-0.4-0.6-0.8-0.6-1.4
	c0-0.7,0.3-1.2,0.8-1.6c0.5-0.4,1.3-0.6,2.2-0.6h0.9v-0.4c0-0.3-0.1-0.6-0.3-0.8c-0.2-0.2-0.5-0.3-0.9-0.3c-0.3,0-0.6,0.1-0.8,0.3
	c-0.2,0.2-0.3,0.4-0.3,0.6h-1.5c0-0.4,0.1-0.7,0.4-1c0.2-0.3,0.6-0.6,1-0.7c0.4-0.2,0.9-0.3,1.4-0.3c0.8,0,1.4,0.2,1.8,0.6
	c0.5,0.4,0.7,0.9,0.7,1.6v2.9c0,0.6,0.1,1.1,0.2,1.4v0.1H334.9z M333.3,148.6c0.3,0,0.6-0.1,0.8-0.2c0.3-0.1,0.4-0.3,0.6-0.6v-1.2
	h-0.8c-0.5,0-0.9,0.1-1.2,0.3c-0.3,0.2-0.4,0.5-0.4,0.8c0,0.3,0.1,0.5,0.3,0.7C332.7,148.5,333,148.6,333.3,148.6z M341,144.5
	c-0.2,0-0.4,0-0.6,0c-0.7,0-1.1,0.3-1.4,0.8v4.5h-1.5v-6.5h1.4l0,0.7c0.4-0.6,0.8-0.8,1.5-0.8c0.2,0,0.4,0,0.5,0.1L341,144.5z
	 M341.5,146.3c0-0.6,0.1-1.2,0.4-1.7c0.3-0.5,0.6-0.9,1.1-1.2c0.5-0.3,1-0.4,1.6-0.4c0.9,0,1.6,0.3,2.1,0.8c0.5,0.6,0.8,1.3,0.9,2.2
	l0,0.3c0,0.6-0.1,1.2-0.4,1.7c-0.2,0.5-0.6,0.9-1.1,1.2c-0.5,0.3-1,0.4-1.6,0.4c-0.9,0-1.7-0.3-2.2-0.9
	C341.8,148.2,341.5,147.4,341.5,146.3L341.5,146.3z M342.9,146.5c0,0.7,0.1,1.2,0.4,1.6c0.3,0.4,0.7,0.6,1.2,0.6
	c0.5,0,0.9-0.2,1.1-0.6c0.3-0.4,0.4-0.9,0.4-1.7c0-0.7-0.1-1.2-0.4-1.6c-0.3-0.4-0.7-0.6-1.1-0.6c-0.5,0-0.9,0.2-1.1,0.6
	C343.1,145.1,342.9,145.7,342.9,146.5z M350.3,149.6h-1.5v-9.2h1.5V149.6z M384,141.6v1.6h1.1v1.1H384v3.6c0,0.2,0,0.4,0.1,0.5
	c0.1,0.1,0.3,0.2,0.5,0.2c0.2,0,0.3,0,0.5-0.1v1.1c-0.3,0.1-0.7,0.1-1,0.1c-1.1,0-1.7-0.6-1.7-1.9v-3.7h-1.1v-1.1h1.1v-1.6H384z
	 M385.8,146.3c0-0.6,0.1-1.2,0.4-1.7c0.3-0.5,0.6-0.9,1.1-1.2c0.5-0.3,1-0.4,1.6-0.4c0.9,0,1.6,0.3,2.1,0.8c0.5,0.6,0.8,1.3,0.9,2.2
	l0,0.3c0,0.6-0.1,1.2-0.4,1.7c-0.2,0.5-0.6,0.9-1.1,1.2c-0.5,0.3-1,0.4-1.6,0.4c-0.9,0-1.6-0.3-2.2-0.9
	C386.1,148.2,385.8,147.4,385.8,146.3L385.8,146.3z M387.3,146.5c0,0.7,0.1,1.2,0.4,1.6c0.3,0.4,0.7,0.6,1.2,0.6s0.9-0.2,1.1-0.6
	c0.3-0.4,0.4-0.9,0.4-1.7c0-0.7-0.1-1.2-0.4-1.6c-0.3-0.4-0.7-0.6-1.1-0.6c-0.5,0-0.9,0.2-1.1,0.6
	C387.4,145.1,387.3,145.7,387.3,146.5z M395.2,146.9l-0.6,0.7v2.1h-1.5v-9.2h1.5v5.3l0.5-0.6l1.8-2h1.8l-2.4,2.7l2.7,3.8h-1.7
	L395.2,146.9z M402.2,149.8c-0.9,0-1.7-0.3-2.3-0.9c-0.6-0.6-0.9-1.4-0.9-2.3v-0.2c0-0.7,0.1-1.2,0.4-1.7c0.3-0.5,0.6-0.9,1.1-1.2
	c0.5-0.3,1-0.4,1.5-0.4c0.9,0,1.6,0.3,2,0.8c0.5,0.6,0.7,1.4,0.7,2.4v0.6h-4.2c0,0.5,0.2,1,0.5,1.3c0.3,0.3,0.7,0.5,1.2,0.5
	c0.7,0,1.2-0.3,1.6-0.8l0.8,0.8c-0.3,0.4-0.6,0.7-1,0.9C403.3,149.7,402.8,149.8,402.2,149.8z M402.1,144.2c-0.4,0-0.7,0.1-1,0.4
	c-0.2,0.3-0.4,0.7-0.5,1.2h2.8v-0.1c0-0.5-0.2-0.9-0.4-1.1C402.8,144.3,402.5,144.2,402.1,144.2z M407.3,143.1l0,0.8
	c0.5-0.6,1.1-0.9,1.9-0.9c1.4,0,2,0.8,2.1,2.3v4.3h-1.5v-4.2c0-0.4-0.1-0.7-0.3-0.9c-0.2-0.2-0.5-0.3-0.9-0.3c-0.6,0-1,0.3-1.3,0.8
	v4.6H406v-6.5H407.3z M419.8,149.6c-0.1-0.1-0.1-0.3-0.2-0.6c-0.5,0.5-1,0.7-1.7,0.7c-0.7,0-1.2-0.2-1.6-0.6
	c-0.4-0.4-0.6-0.8-0.6-1.4c0-0.7,0.3-1.2,0.8-1.6c0.5-0.4,1.3-0.6,2.2-0.6h0.9v-0.4c0-0.3-0.1-0.6-0.3-0.8c-0.2-0.2-0.5-0.3-0.9-0.3
	c-0.3,0-0.6,0.1-0.8,0.3c-0.2,0.2-0.3,0.4-0.3,0.6h-1.5c0-0.4,0.1-0.7,0.4-1c0.2-0.3,0.6-0.6,1-0.7c0.4-0.2,0.9-0.3,1.4-0.3
	c0.8,0,1.4,0.2,1.8,0.6c0.5,0.4,0.7,0.9,0.7,1.6v2.9c0,0.6,0.1,1.1,0.2,1.4v0.1H419.8z M418.2,148.6c0.3,0,0.6-0.1,0.8-0.2
	c0.3-0.1,0.4-0.3,0.6-0.6v-1.2h-0.8c-0.5,0-0.9,0.1-1.2,0.3c-0.3,0.2-0.4,0.5-0.4,0.8c0,0.3,0.1,0.5,0.3,0.7
	C417.6,148.5,417.8,148.6,418.2,148.6z M422.3,146.3c0-1,0.2-1.8,0.7-2.4c0.5-0.6,1.1-0.9,1.9-0.9c0.7,0,1.2,0.2,1.7,0.7v-3.3h1.5
	v9.2h-1.3l-0.1-0.7c-0.4,0.5-1,0.8-1.7,0.8c-0.8,0-1.4-0.3-1.8-0.9C422.5,148.2,422.3,147.4,422.3,146.3z M423.7,146.5
	c0,0.7,0.1,1.2,0.4,1.6c0.3,0.4,0.6,0.6,1.1,0.6c0.6,0,1-0.3,1.3-0.8V145c-0.3-0.5-0.7-0.8-1.3-0.8c-0.5,0-0.8,0.2-1.1,0.6
	C423.8,145.2,423.7,145.7,423.7,146.5z M432.9,144.5c-0.2,0-0.4,0-0.6,0c-0.7,0-1.1,0.3-1.3,0.8v4.5h-1.5v-6.5h1.4l0,0.7
	c0.4-0.6,0.8-0.8,1.5-0.8c0.2,0,0.4,0,0.5,0.1L432.9,144.5z M436.5,149.8c-0.9,0-1.7-0.3-2.3-0.9c-0.6-0.6-0.9-1.4-0.9-2.3v-0.2
	c0-0.7,0.1-1.2,0.4-1.7c0.3-0.5,0.6-0.9,1.1-1.2c0.5-0.3,1-0.4,1.5-0.4c0.9,0,1.6,0.3,2,0.8c0.5,0.6,0.7,1.4,0.7,2.4v0.6h-4.2
	c0,0.5,0.2,1,0.5,1.3c0.3,0.3,0.7,0.5,1.2,0.5c0.7,0,1.2-0.3,1.6-0.8l0.8,0.8c-0.3,0.4-0.6,0.7-1,0.9
	C437.5,149.7,437.1,149.8,436.5,149.8z M436.3,144.2c-0.4,0-0.7,0.1-1,0.4c-0.2,0.3-0.4,0.7-0.5,1.2h2.8v-0.1c0-0.5-0.2-0.9-0.4-1.1
	C437.1,144.3,436.8,144.2,436.3,144.2z M443.9,147.9c0-0.3-0.1-0.5-0.3-0.6c-0.2-0.1-0.6-0.3-1.1-0.4s-0.9-0.2-1.2-0.4
	c-0.7-0.4-1.1-0.9-1.1-1.5c0-0.6,0.2-1,0.7-1.4c0.5-0.4,1.1-0.6,1.8-0.6c0.8,0,1.4,0.2,1.9,0.6c0.5,0.4,0.7,0.9,0.7,1.5h-1.5
	c0-0.3-0.1-0.5-0.3-0.7c-0.2-0.2-0.5-0.3-0.8-0.3c-0.3,0-0.6,0.1-0.8,0.2c-0.2,0.1-0.3,0.3-0.3,0.6c0,0.2,0.1,0.4,0.3,0.5
	c0.2,0.1,0.6,0.3,1.1,0.4c0.6,0.1,1,0.3,1.3,0.4c0.3,0.2,0.6,0.4,0.7,0.6c0.2,0.2,0.2,0.5,0.2,0.9c0,0.6-0.2,1.1-0.7,1.4
	c-0.5,0.4-1.1,0.5-1.9,0.5c-0.5,0-1-0.1-1.4-0.3c-0.4-0.2-0.7-0.5-1-0.8c-0.2-0.3-0.3-0.7-0.3-1.1h1.4c0,0.3,0.1,0.6,0.4,0.8
	c0.2,0.2,0.6,0.3,1,0.3c0.4,0,0.7-0.1,0.9-0.2C443.8,148.3,443.9,148.1,443.9,147.9z M450.2,147.9c0-0.3-0.1-0.5-0.3-0.6
	c-0.2-0.1-0.6-0.3-1.1-0.4s-0.9-0.2-1.2-0.4c-0.7-0.4-1.1-0.9-1.1-1.5c0-0.6,0.2-1,0.7-1.4c0.5-0.4,1.1-0.6,1.8-0.6
	c0.8,0,1.4,0.2,1.9,0.6c0.5,0.4,0.7,0.9,0.7,1.5h-1.5c0-0.3-0.1-0.5-0.3-0.7c-0.2-0.2-0.5-0.3-0.8-0.3c-0.3,0-0.6,0.1-0.8,0.2
	c-0.2,0.1-0.3,0.3-0.3,0.6c0,0.2,0.1,0.4,0.3,0.5c0.2,0.1,0.6,0.3,1.1,0.4c0.6,0.1,1,0.3,1.3,0.4c0.3,0.2,0.6,0.4,0.7,0.6
	c0.2,0.2,0.2,0.5,0.2,0.9c0,0.6-0.2,1.1-0.7,1.4c-0.5,0.4-1.1,0.5-1.9,0.5c-0.5,0-1-0.1-1.4-0.3c-0.4-0.2-0.7-0.5-1-0.8
	c-0.2-0.3-0.3-0.7-0.3-1.1h1.4c0,0.3,0.1,0.6,0.4,0.8c0.2,0.2,0.6,0.3,1,0.3c0.4,0,0.7-0.1,0.9-0.2
	C450.1,148.3,450.2,148.1,450.2,147.9z"/>
<path class="st1" d="M360.2,145.7h-3.6v2.7h4.2v1.2h-5.7v-8.8h5.7v1.2h-4.2v2.4h3.6V145.7z M369,149.6h-1.5l-3.9-6.2v6.2H362v-8.8
	h1.5l3.9,6.2v-6.2h1.5V149.6z M377.7,145.5c0,0.8-0.1,1.6-0.4,2.2c-0.3,0.6-0.6,1.1-1.1,1.4l1.5,1.2l-1,0.9l-1.9-1.5
	c-0.2,0.1-0.5,0.1-0.8,0.1c-0.7,0-1.3-0.2-1.9-0.5c-0.6-0.3-1-0.8-1.3-1.5c-0.3-0.6-0.5-1.4-0.5-2.2v-0.5c0-0.9,0.1-1.6,0.5-2.3
	c0.3-0.7,0.7-1.2,1.3-1.5c0.6-0.3,1.2-0.5,1.9-0.5c0.7,0,1.4,0.2,1.9,0.5c0.6,0.3,1,0.8,1.3,1.5c0.3,0.6,0.5,1.4,0.5,2.2V145.5z
	 M376.2,145c0-1-0.2-1.7-0.6-2.2c-0.4-0.5-0.9-0.8-1.6-0.8c-0.7,0-1.2,0.3-1.5,0.8c-0.4,0.5-0.6,1.2-0.6,2.2v0.5
	c0,0.9,0.2,1.7,0.6,2.2c0.4,0.5,0.9,0.8,1.6,0.8c0.7,0,1.2-0.3,1.6-0.8c0.4-0.5,0.5-1.3,0.5-2.3V145z"/>
<path class="st0" d="M562.3,186.9c-0.1,0.9-0.4,1.7-1,2.2c-0.6,0.5-1.4,0.8-2.4,0.8c-0.7,0-1.3-0.2-1.8-0.5
	c-0.5-0.3-0.9-0.8-1.2-1.4c-0.3-0.6-0.4-1.3-0.5-2.1v-0.8c0-0.8,0.1-1.6,0.4-2.2c0.3-0.6,0.7-1.1,1.3-1.5c0.5-0.3,1.2-0.5,1.9-0.5
	c1,0,1.7,0.3,2.3,0.8c0.6,0.5,0.9,1.3,1,2.2h-1.5c-0.1-0.6-0.3-1.1-0.6-1.4c-0.3-0.3-0.7-0.4-1.3-0.4c-0.7,0-1.2,0.2-1.5,0.7
	c-0.4,0.5-0.5,1.2-0.5,2.1v0.8c0,0.9,0.2,1.7,0.5,2.2c0.3,0.5,0.8,0.7,1.5,0.7c0.6,0,1-0.1,1.3-0.4c0.3-0.3,0.5-0.7,0.6-1.3H562.3z
	 M567.4,189.8c-0.1-0.1-0.1-0.3-0.2-0.6c-0.5,0.5-1,0.7-1.7,0.7c-0.7,0-1.2-0.2-1.6-0.6c-0.4-0.4-0.6-0.8-0.6-1.4
	c0-0.7,0.3-1.2,0.8-1.6c0.5-0.4,1.3-0.6,2.2-0.6h0.9v-0.4c0-0.3-0.1-0.6-0.3-0.8c-0.2-0.2-0.5-0.3-0.9-0.3c-0.3,0-0.6,0.1-0.8,0.3
	c-0.2,0.2-0.3,0.4-0.3,0.6h-1.5c0-0.4,0.1-0.7,0.4-1c0.2-0.3,0.6-0.6,1-0.7c0.4-0.2,0.9-0.3,1.4-0.3c0.8,0,1.4,0.2,1.8,0.6
	c0.5,0.4,0.7,0.9,0.7,1.6v2.9c0,0.6,0.1,1.1,0.2,1.4v0.1H567.4z M565.8,188.7c0.3,0,0.6-0.1,0.8-0.2s0.4-0.3,0.6-0.6v-1.2h-0.8
	c-0.5,0-0.9,0.1-1.2,0.3c-0.3,0.2-0.4,0.5-0.4,0.8c0,0.3,0.1,0.5,0.3,0.7C565.2,188.7,565.4,188.7,565.8,188.7z M573.5,184.6
	c-0.2,0-0.4,0-0.6,0c-0.7,0-1.1,0.3-1.3,0.8v4.5h-1.5v-6.5h1.4l0,0.7c0.4-0.6,0.8-0.8,1.5-0.8c0.2,0,0.4,0,0.5,0.1L573.5,184.6z
	 M574,186.5c0-0.6,0.1-1.2,0.4-1.7c0.3-0.5,0.6-0.9,1.1-1.2c0.5-0.3,1-0.4,1.6-0.4c0.9,0,1.6,0.3,2.1,0.8c0.5,0.6,0.8,1.3,0.9,2.2
	l0,0.3c0,0.6-0.1,1.2-0.4,1.7c-0.2,0.5-0.6,0.9-1.1,1.2c-0.5,0.3-1,0.4-1.6,0.4c-0.9,0-1.6-0.3-2.2-0.9
	C574.2,188.4,574,187.6,574,186.5L574,186.5z M575.4,186.6c0,0.7,0.1,1.2,0.4,1.6c0.3,0.4,0.7,0.6,1.2,0.6c0.5,0,0.9-0.2,1.1-0.6
	c0.3-0.4,0.4-0.9,0.4-1.7c0-0.7-0.1-1.2-0.4-1.6c-0.3-0.4-0.7-0.6-1.1-0.6c-0.5,0-0.9,0.2-1.1,0.6
	C575.6,185.3,575.4,185.9,575.4,186.6z M582.8,189.8h-1.5v-9.2h1.5V189.8z M589.3,181.7v1.6h1.1v1.1h-1.1v3.6c0,0.2,0,0.4,0.1,0.5
	c0.1,0.1,0.3,0.2,0.5,0.2c0.2,0,0.3,0,0.5-0.1v1.1c-0.3,0.1-0.7,0.1-1,0.1c-1.1,0-1.7-0.6-1.7-1.9v-3.7h-1.1v-1.1h1.1v-1.6H589.3z
	 M591.1,186.5c0-0.6,0.1-1.2,0.4-1.7c0.3-0.5,0.6-0.9,1.1-1.2c0.5-0.3,1-0.4,1.6-0.4c0.9,0,1.6,0.3,2.1,0.8c0.5,0.6,0.8,1.3,0.9,2.2
	l0,0.3c0,0.6-0.1,1.2-0.4,1.7c-0.2,0.5-0.6,0.9-1.1,1.2c-0.5,0.3-1,0.4-1.6,0.4c-0.9,0-1.6-0.3-2.2-0.9
	C591.3,188.4,591.1,187.6,591.1,186.5L591.1,186.5z M592.5,186.6c0,0.7,0.1,1.2,0.4,1.6c0.3,0.4,0.7,0.6,1.2,0.6
	c0.5,0,0.9-0.2,1.1-0.6c0.3-0.4,0.4-0.9,0.4-1.7c0-0.7-0.1-1.2-0.4-1.6c-0.3-0.4-0.7-0.6-1.1-0.6c-0.5,0-0.9,0.2-1.1,0.6
	C592.7,185.3,592.5,185.9,592.5,186.6z M600.4,187l-0.6,0.7v2.1h-1.5v-9.2h1.5v5.3l0.5-0.6l1.8-2h1.8l-2.4,2.7l2.7,3.8h-1.7
	L600.4,187z M607.5,189.9c-0.9,0-1.7-0.3-2.3-0.9c-0.6-0.6-0.9-1.4-0.9-2.3v-0.2c0-0.6,0.1-1.2,0.4-1.7c0.3-0.5,0.6-0.9,1.1-1.2
	c0.5-0.3,1-0.4,1.5-0.4c0.9,0,1.6,0.3,2,0.8c0.5,0.6,0.7,1.4,0.7,2.4v0.6h-4.2c0,0.5,0.2,1,0.5,1.3c0.3,0.3,0.7,0.5,1.2,0.5
	c0.7,0,1.2-0.3,1.6-0.8l0.8,0.8c-0.3,0.4-0.6,0.7-1,0.9C608.5,189.8,608,189.9,607.5,189.9z M607.3,184.3c-0.4,0-0.7,0.1-1,0.4
	c-0.2,0.3-0.4,0.7-0.5,1.2h2.8v-0.1c0-0.5-0.2-0.9-0.4-1.1C608,184.5,607.7,184.3,607.3,184.3z M612.6,183.3l0,0.8
	c0.5-0.6,1.1-0.9,1.9-0.9c1.4,0,2,0.8,2.1,2.3v4.3h-1.5v-4.2c0-0.4-0.1-0.7-0.3-0.9c-0.2-0.2-0.5-0.3-0.9-0.3c-0.6,0-1,0.3-1.3,0.8
	v4.6h-1.5v-6.5H612.6z M622.7,189.8h-1.5v-6.5h1.5V189.8z M621.1,181.6c0-0.2,0.1-0.4,0.2-0.6c0.1-0.1,0.3-0.2,0.6-0.2
	c0.3,0,0.5,0.1,0.6,0.2c0.1,0.1,0.2,0.3,0.2,0.6c0,0.2-0.1,0.4-0.2,0.6c-0.1,0.1-0.3,0.2-0.6,0.2c-0.3,0-0.5-0.1-0.6-0.2
	C621.2,182,621.1,181.8,621.1,181.6z M627.9,188c0-0.3-0.1-0.5-0.3-0.6c-0.2-0.1-0.6-0.3-1.1-0.4c-0.5-0.1-0.9-0.2-1.2-0.4
	c-0.7-0.4-1.1-0.9-1.1-1.5c0-0.6,0.2-1,0.7-1.4c0.5-0.4,1.1-0.6,1.8-0.6c0.8,0,1.4,0.2,1.9,0.6c0.5,0.4,0.7,0.9,0.7,1.5h-1.5
	c0-0.3-0.1-0.5-0.3-0.7c-0.2-0.2-0.5-0.3-0.8-0.3c-0.3,0-0.6,0.1-0.8,0.2c-0.2,0.1-0.3,0.3-0.3,0.6c0,0.2,0.1,0.4,0.3,0.5
	c0.2,0.1,0.6,0.3,1.1,0.4c0.6,0.1,1,0.3,1.3,0.4c0.3,0.2,0.6,0.4,0.7,0.6c0.2,0.2,0.2,0.5,0.2,0.9c0,0.6-0.2,1.1-0.7,1.4
	c-0.5,0.4-1.1,0.5-1.9,0.5c-0.5,0-1-0.1-1.4-0.3c-0.4-0.2-0.7-0.5-1-0.8c-0.2-0.3-0.3-0.7-0.3-1.1h1.4c0,0.3,0.1,0.6,0.4,0.8
	c0.2,0.2,0.6,0.3,1,0.3c0.4,0,0.7-0.1,0.9-0.2C627.8,188.5,627.9,188.3,627.9,188z M634.3,188c0-0.3-0.1-0.5-0.3-0.6
	c-0.2-0.1-0.6-0.3-1.1-0.4c-0.5-0.1-0.9-0.2-1.2-0.4c-0.7-0.4-1.1-0.9-1.1-1.5c0-0.6,0.2-1,0.7-1.4c0.5-0.4,1.1-0.6,1.8-0.6
	c0.8,0,1.4,0.2,1.9,0.6c0.5,0.4,0.7,0.9,0.7,1.5h-1.5c0-0.3-0.1-0.5-0.3-0.7c-0.2-0.2-0.5-0.3-0.8-0.3c-0.3,0-0.6,0.1-0.8,0.2
	c-0.2,0.1-0.3,0.3-0.3,0.6c0,0.2,0.1,0.4,0.3,0.5c0.2,0.1,0.6,0.3,1.1,0.4c0.6,0.1,1,0.3,1.3,0.4c0.3,0.2,0.6,0.4,0.7,0.6
	c0.2,0.2,0.2,0.5,0.2,0.9c0,0.6-0.2,1.1-0.7,1.4c-0.5,0.4-1.1,0.5-1.9,0.5c-0.5,0-1-0.1-1.4-0.3c-0.4-0.2-0.7-0.5-1-0.8
	c-0.2-0.3-0.3-0.7-0.3-1.1h1.4c0,0.3,0.2,0.6,0.4,0.8c0.2,0.2,0.6,0.3,1,0.3c0.4,0,0.7-0.1,0.9-0.2
	C634.2,188.5,634.3,188.3,634.3,188z M640.9,189.2c-0.4,0.5-1,0.8-1.8,0.8c-0.7,0-1.2-0.2-1.6-0.6c-0.4-0.4-0.5-1-0.5-1.8v-4.2h1.5
	v4.2c0,0.8,0.3,1.2,1,1.2c0.7,0,1.2-0.3,1.4-0.8v-4.7h1.5v6.5h-1.4L640.9,189.2z M646.7,189.9c-0.9,0-1.7-0.3-2.3-0.9
	c-0.6-0.6-0.9-1.4-0.9-2.3v-0.2c0-0.6,0.1-1.2,0.4-1.7c0.3-0.5,0.6-0.9,1.1-1.2c0.5-0.3,1-0.4,1.5-0.4c0.9,0,1.6,0.3,2,0.8
	c0.5,0.6,0.7,1.4,0.7,2.4v0.6H645c0,0.5,0.2,1,0.5,1.3c0.3,0.3,0.7,0.5,1.2,0.5c0.7,0,1.2-0.3,1.6-0.8l0.8,0.8
	c-0.3,0.4-0.6,0.7-1,0.9C647.7,189.8,647.2,189.9,646.7,189.9z M646.5,184.3c-0.4,0-0.7,0.1-1,0.4c-0.2,0.3-0.4,0.7-0.5,1.2h2.8
	v-0.1c0-0.5-0.2-0.9-0.4-1.1C647.2,184.5,646.9,184.3,646.5,184.3z M653.5,186.2c0-0.9,0.1-1.8,0.4-2.6c0.3-0.8,0.6-1.6,1.1-2.2
	c0.5-0.7,1-1.1,1.5-1.4l0.3,0.9c-0.6,0.4-1,1.1-1.4,2c-0.3,0.9-0.5,1.9-0.6,3l0,0.5c0,1.2,0.2,2.3,0.5,3.3c0.3,0.9,0.8,1.7,1.4,2.2
	l-0.3,0.8c-0.5-0.3-1-0.7-1.5-1.4c-0.5-0.7-0.8-1.4-1.1-2.2C653.6,188.1,653.5,187.2,653.5,186.2z M682.9,186.3
	c0,0.9-0.1,1.8-0.4,2.6c-0.2,0.8-0.6,1.6-1.1,2.3c-0.5,0.7-1,1.2-1.6,1.4l-0.3-0.8c0.6-0.5,1.1-1.2,1.4-2.1c0.3-1,0.5-2.1,0.5-3.3
	v-0.1c0-1.1-0.1-2.1-0.5-3c-0.3-0.9-0.7-1.7-1.3-2.2l-0.2-0.2l0.3-0.8c0.5,0.2,1,0.7,1.5,1.3c0.5,0.6,0.8,1.3,1.1,2.1
	c0.3,0.8,0.4,1.6,0.4,2.4L682.9,186.3z"/>
<path class="st1" d="M664.6,186.9c-0.1,0.9-0.4,1.7-1,2.2c-0.6,0.5-1.4,0.8-2.4,0.8c-0.7,0-1.3-0.2-1.8-0.5
	c-0.5-0.3-0.9-0.8-1.2-1.4c-0.3-0.6-0.4-1.3-0.5-2.1v-0.8c0-0.8,0.1-1.6,0.4-2.2c0.3-0.6,0.7-1.1,1.3-1.5c0.5-0.3,1.2-0.5,1.9-0.5
	c1,0,1.7,0.3,2.3,0.8c0.6,0.5,0.9,1.3,1,2.2H663c-0.1-0.6-0.3-1.1-0.6-1.4c-0.3-0.3-0.7-0.4-1.3-0.4c-0.7,0-1.2,0.2-1.5,0.7
	c-0.4,0.5-0.5,1.2-0.5,2.1v0.8c0,0.9,0.2,1.7,0.5,2.2c0.3,0.5,0.8,0.7,1.5,0.7c0.6,0,1-0.1,1.3-0.4c0.3-0.3,0.5-0.7,0.6-1.3H664.6z
	 M669.1,186.4h-1.7v3.4h-1.5V181h3.1c1,0,1.8,0.2,2.3,0.7c0.6,0.5,0.8,1.1,0.8,2c0,0.6-0.1,1.1-0.4,1.5c-0.3,0.4-0.7,0.7-1.2,0.9
	l2,3.7v0.1h-1.6L669.1,186.4z M667.4,185.2h1.6c0.5,0,0.9-0.1,1.2-0.4c0.3-0.3,0.4-0.6,0.4-1.1c0-0.5-0.1-0.8-0.4-1.1
	c-0.3-0.3-0.7-0.4-1.2-0.4h-1.6V185.2z M675.1,188.6h4v1.2h-5.5V181h1.5V188.6z"/>
<path class="st0" d="M826.6,149.1c-0.1,0.9-0.4,1.7-1,2.2c-0.6,0.5-1.4,0.8-2.4,0.8c-0.7,0-1.3-0.2-1.8-0.5
	c-0.5-0.3-0.9-0.8-1.2-1.4c-0.3-0.6-0.4-1.3-0.5-2.1v-0.8c0-0.8,0.1-1.6,0.4-2.2c0.3-0.6,0.7-1.1,1.3-1.5c0.5-0.3,1.2-0.5,1.9-0.5
	c1,0,1.7,0.3,2.3,0.8c0.6,0.5,0.9,1.3,1,2.2h-1.5c-0.1-0.6-0.3-1.1-0.6-1.4c-0.3-0.3-0.7-0.4-1.3-0.4c-0.7,0-1.2,0.2-1.5,0.7
	c-0.4,0.5-0.5,1.2-0.5,2.1v0.8c0,0.9,0.2,1.7,0.5,2.2c0.3,0.5,0.8,0.7,1.5,0.7c0.6,0,1-0.1,1.3-0.4c0.3-0.3,0.5-0.7,0.6-1.3H826.6z
	 M831.7,151.9c-0.1-0.1-0.1-0.3-0.2-0.6c-0.5,0.5-1,0.7-1.7,0.7c-0.7,0-1.2-0.2-1.6-0.6s-0.6-0.8-0.6-1.4c0-0.7,0.3-1.2,0.8-1.6
	c0.5-0.4,1.3-0.6,2.2-0.6h0.9v-0.4c0-0.3-0.1-0.6-0.3-0.8c-0.2-0.2-0.5-0.3-0.9-0.3c-0.3,0-0.6,0.1-0.8,0.3
	c-0.2,0.2-0.3,0.4-0.3,0.6h-1.5c0-0.4,0.1-0.7,0.4-1c0.2-0.3,0.6-0.6,1-0.7c0.4-0.2,0.9-0.3,1.4-0.3c0.8,0,1.4,0.2,1.8,0.6
	c0.5,0.4,0.7,0.9,0.7,1.6v2.9c0,0.6,0.1,1.1,0.2,1.4v0.1H831.7z M830.1,150.9c0.3,0,0.6-0.1,0.8-0.2c0.3-0.1,0.4-0.3,0.6-0.6v-1.2
	h-0.8c-0.5,0-0.9,0.1-1.2,0.3c-0.3,0.2-0.4,0.5-0.4,0.8c0,0.3,0.1,0.5,0.3,0.7C829.6,150.8,829.8,150.9,830.1,150.9z M837.9,146.8
	c-0.2,0-0.4,0-0.6,0c-0.7,0-1.1,0.3-1.4,0.8v4.5h-1.5v-6.5h1.4l0,0.7c0.4-0.6,0.8-0.8,1.5-0.8c0.2,0,0.4,0,0.5,0.1L837.9,146.8z
	 M838.3,148.6c0-0.6,0.1-1.2,0.4-1.7c0.3-0.5,0.6-0.9,1.1-1.2c0.5-0.3,1-0.4,1.6-0.4c0.9,0,1.6,0.3,2.1,0.8c0.5,0.6,0.8,1.3,0.9,2.2
	l0,0.3c0,0.6-0.1,1.2-0.4,1.7c-0.2,0.5-0.6,0.9-1.1,1.2c-0.5,0.3-1,0.4-1.6,0.4c-0.9,0-1.7-0.3-2.2-0.9
	C838.6,150.5,838.3,149.7,838.3,148.6L838.3,148.6z M839.8,148.7c0,0.7,0.1,1.2,0.4,1.6c0.3,0.4,0.7,0.6,1.2,0.6
	c0.5,0,0.9-0.2,1.1-0.6c0.3-0.4,0.4-0.9,0.4-1.7c0-0.7-0.1-1.2-0.4-1.6c-0.3-0.4-0.7-0.6-1.1-0.6c-0.5,0-0.9,0.2-1.1,0.6
	C839.9,147.4,839.8,148,839.8,148.7z M847.1,151.9h-1.5v-9.2h1.5V151.9z M879,143.8v1.6h1.1v1.1H879v3.6c0,0.2,0,0.4,0.1,0.5
	c0.1,0.1,0.3,0.2,0.5,0.2c0.2,0,0.3,0,0.5-0.1v1.1c-0.3,0.1-0.7,0.1-1,0.1c-1.1,0-1.7-0.6-1.7-1.9v-3.7h-1.1v-1.1h1.1v-1.6H879z
	 M880.8,148.6c0-0.6,0.1-1.2,0.4-1.7c0.3-0.5,0.6-0.9,1.1-1.2c0.5-0.3,1-0.4,1.6-0.4c0.9,0,1.6,0.3,2.1,0.8c0.5,0.6,0.8,1.3,0.9,2.2
	l0,0.3c0,0.6-0.1,1.2-0.4,1.7c-0.2,0.5-0.6,0.9-1.1,1.2c-0.5,0.3-1,0.4-1.6,0.4c-0.9,0-1.7-0.3-2.2-0.9
	C881.1,150.5,880.8,149.7,880.8,148.6L880.8,148.6z M882.3,148.7c0,0.7,0.1,1.2,0.4,1.6c0.3,0.4,0.7,0.6,1.2,0.6
	c0.5,0,0.9-0.2,1.1-0.6c0.3-0.4,0.4-0.9,0.4-1.7c0-0.7-0.1-1.2-0.4-1.6c-0.3-0.4-0.7-0.6-1.1-0.6c-0.5,0-0.9,0.2-1.1,0.6
	C882.4,147.4,882.3,148,882.3,148.7z M890.2,149.1l-0.6,0.7v2.1h-1.5v-9.2h1.5v5.3l0.5-0.6l1.8-2h1.8l-2.4,2.7l2.7,3.8h-1.7
	L890.2,149.1z M897.3,152.1c-0.9,0-1.7-0.3-2.3-0.9c-0.6-0.6-0.9-1.4-0.9-2.3v-0.2c0-0.6,0.1-1.2,0.4-1.7c0.3-0.5,0.6-0.9,1.1-1.2
	c0.5-0.3,1-0.4,1.5-0.4c0.9,0,1.6,0.3,2,0.8c0.5,0.6,0.7,1.4,0.7,2.4v0.6h-4.2c0,0.5,0.2,1,0.5,1.3c0.3,0.3,0.7,0.5,1.2,0.5
	c0.7,0,1.2-0.3,1.6-0.8l0.8,0.8c-0.3,0.4-0.6,0.7-1,0.9C898.3,151.9,897.8,152.1,897.3,152.1z M897.1,146.5c-0.4,0-0.7,0.1-1,0.4
	c-0.2,0.3-0.4,0.7-0.5,1.2h2.8V148c0-0.5-0.2-0.9-0.4-1.1C897.8,146.6,897.5,146.5,897.1,146.5z M902.4,145.4l0,0.8
	c0.5-0.6,1.1-0.9,1.9-0.9c1.4,0,2,0.8,2.1,2.3v4.3h-1.5v-4.2c0-0.4-0.1-0.7-0.3-0.9c-0.2-0.2-0.5-0.3-0.9-0.3c-0.6,0-1,0.3-1.3,0.8
	v4.6H901v-6.5H902.4z M914.8,151.9c-0.1-0.1-0.1-0.3-0.2-0.6c-0.5,0.5-1,0.7-1.7,0.7c-0.7,0-1.2-0.2-1.6-0.6
	c-0.4-0.4-0.6-0.8-0.6-1.4c0-0.7,0.3-1.2,0.8-1.6c0.5-0.4,1.3-0.6,2.2-0.6h0.9v-0.4c0-0.3-0.1-0.6-0.3-0.8c-0.2-0.2-0.5-0.3-0.9-0.3
	c-0.3,0-0.6,0.1-0.8,0.3c-0.2,0.2-0.3,0.4-0.3,0.6h-1.5c0-0.4,0.1-0.7,0.4-1c0.2-0.3,0.6-0.6,1-0.7c0.4-0.2,0.9-0.3,1.4-0.3
	c0.8,0,1.4,0.2,1.8,0.6c0.5,0.4,0.7,0.9,0.7,1.6v2.9c0,0.6,0.1,1.1,0.2,1.4v0.1H914.8z M913.2,150.9c0.3,0,0.6-0.1,0.8-0.2
	c0.3-0.1,0.5-0.3,0.6-0.6v-1.2h-0.8c-0.5,0-0.9,0.1-1.2,0.3c-0.3,0.2-0.4,0.5-0.4,0.8c0,0.3,0.1,0.5,0.3,0.7
	C912.6,150.8,912.9,150.9,913.2,150.9z M917.3,148.6c0-1,0.2-1.8,0.7-2.4c0.5-0.6,1.1-0.9,1.9-0.9c0.7,0,1.2,0.2,1.7,0.7v-3.3h1.5
	v9.2h-1.3l-0.1-0.7c-0.4,0.5-1,0.8-1.7,0.8c-0.8,0-1.4-0.3-1.8-0.9C917.5,150.5,917.3,149.7,917.3,148.6z M918.7,148.8
	c0,0.7,0.1,1.2,0.4,1.6c0.3,0.4,0.6,0.6,1.1,0.6c0.6,0,1-0.3,1.3-0.8v-2.8c-0.3-0.5-0.7-0.8-1.3-0.8c-0.5,0-0.8,0.2-1.1,0.6
	C918.9,147.4,918.7,148,918.7,148.8z M927.9,146.8c-0.2,0-0.4,0-0.6,0c-0.7,0-1.1,0.3-1.3,0.8v4.5h-1.5v-6.5h1.4l0,0.7
	c0.4-0.6,0.8-0.8,1.5-0.8c0.2,0,0.4,0,0.5,0.1L927.9,146.8z M931.6,152.1c-0.9,0-1.7-0.3-2.2-0.9c-0.6-0.6-0.9-1.4-0.9-2.3v-0.2
	c0-0.6,0.1-1.2,0.4-1.7c0.3-0.5,0.6-0.9,1.1-1.2c0.5-0.3,1-0.4,1.5-0.4c0.9,0,1.6,0.3,2,0.8c0.5,0.6,0.7,1.4,0.7,2.4v0.6h-4.2
	c0,0.5,0.2,1,0.5,1.3c0.3,0.3,0.7,0.5,1.2,0.5c0.7,0,1.2-0.3,1.6-0.8l0.8,0.8c-0.3,0.4-0.6,0.7-1,0.9
	C932.6,151.9,932.1,152.1,931.6,152.1z M931.4,146.5c-0.4,0-0.7,0.1-1,0.4c-0.2,0.3-0.4,0.7-0.5,1.2h2.8V148c0-0.5-0.2-0.9-0.4-1.1
	C932.1,146.6,931.8,146.5,931.4,146.5z M938.9,150.2c0-0.3-0.1-0.5-0.3-0.6c-0.2-0.1-0.6-0.3-1.1-0.4c-0.5-0.1-0.9-0.2-1.2-0.4
	c-0.7-0.4-1.1-0.9-1.1-1.5c0-0.6,0.2-1,0.7-1.4c0.5-0.4,1.1-0.6,1.8-0.6c0.8,0,1.4,0.2,1.9,0.6c0.5,0.4,0.7,0.9,0.7,1.5h-1.5
	c0-0.3-0.1-0.5-0.3-0.7c-0.2-0.2-0.5-0.3-0.8-0.3c-0.3,0-0.6,0.1-0.8,0.2c-0.2,0.1-0.3,0.3-0.3,0.6c0,0.2,0.1,0.4,0.3,0.5
	c0.2,0.1,0.6,0.3,1.1,0.4c0.6,0.1,1,0.3,1.3,0.5c0.3,0.2,0.6,0.4,0.7,0.6c0.2,0.2,0.2,0.5,0.2,0.9c0,0.6-0.2,1.1-0.7,1.4
	c-0.5,0.4-1.1,0.5-1.9,0.5c-0.5,0-1-0.1-1.4-0.3c-0.4-0.2-0.7-0.5-1-0.8c-0.2-0.3-0.3-0.7-0.3-1.1h1.4c0,0.3,0.2,0.6,0.4,0.8
	c0.2,0.2,0.6,0.3,1,0.3c0.4,0,0.7-0.1,0.9-0.2C938.8,150.6,938.9,150.4,938.9,150.2z M945.3,150.2c0-0.3-0.1-0.5-0.3-0.6
	c-0.2-0.1-0.6-0.3-1.1-0.4c-0.5-0.1-0.9-0.2-1.2-0.4c-0.7-0.4-1.1-0.9-1.1-1.5c0-0.6,0.2-1,0.7-1.4c0.5-0.4,1.1-0.6,1.8-0.6
	c0.8,0,1.4,0.2,1.9,0.6c0.5,0.4,0.7,0.9,0.7,1.5h-1.5c0-0.3-0.1-0.5-0.3-0.7c-0.2-0.2-0.5-0.3-0.8-0.3c-0.3,0-0.6,0.1-0.8,0.2
	c-0.2,0.1-0.3,0.3-0.3,0.6c0,0.2,0.1,0.4,0.3,0.5c0.2,0.1,0.6,0.3,1.1,0.4c0.6,0.1,1,0.3,1.3,0.5c0.3,0.2,0.6,0.4,0.7,0.6
	c0.2,0.2,0.2,0.5,0.2,0.9c0,0.6-0.2,1.1-0.7,1.4c-0.5,0.4-1.1,0.5-1.9,0.5c-0.5,0-1-0.1-1.4-0.3c-0.4-0.2-0.7-0.5-1-0.8
	c-0.2-0.3-0.3-0.7-0.3-1.1h1.4c0,0.3,0.2,0.6,0.4,0.8c0.2,0.2,0.6,0.3,1,0.3c0.4,0,0.7-0.1,0.9-0.2
	C945.2,150.6,945.3,150.4,945.3,150.2z"/>
<path class="st1" d="M858.6,149.1c-0.1,0.9-0.4,1.7-1,2.2c-0.6,0.5-1.4,0.8-2.4,0.8c-0.7,0-1.3-0.2-1.8-0.5
	c-0.5-0.3-0.9-0.8-1.2-1.4c-0.3-0.6-0.4-1.3-0.5-2.1v-0.8c0-0.8,0.1-1.6,0.4-2.2c0.3-0.6,0.7-1.1,1.3-1.5c0.5-0.3,1.2-0.5,1.9-0.5
	c1,0,1.7,0.3,2.3,0.8c0.6,0.5,0.9,1.3,1,2.2h-1.5c-0.1-0.6-0.3-1.1-0.6-1.4c-0.3-0.3-0.7-0.4-1.3-0.4c-0.7,0-1.2,0.2-1.5,0.7
	c-0.4,0.5-0.5,1.2-0.5,2.1v0.8c0,0.9,0.2,1.7,0.5,2.2c0.3,0.5,0.8,0.7,1.5,0.7c0.6,0,1-0.1,1.3-0.4c0.3-0.3,0.5-0.7,0.6-1.3H858.6z
	 M863.2,148.6h-1.7v3.4H860v-8.8h3.1c1,0,1.8,0.2,2.3,0.7c0.6,0.5,0.8,1.1,0.8,2c0,0.6-0.1,1.1-0.4,1.5c-0.3,0.4-0.7,0.7-1.2,0.9
	l2,3.7v0.1h-1.6L863.2,148.6z M861.5,147.3h1.6c0.5,0,0.9-0.1,1.2-0.4c0.3-0.3,0.4-0.6,0.4-1.1c0-0.5-0.1-0.8-0.4-1.1
	c-0.3-0.3-0.7-0.4-1.2-0.4h-1.6V147.3z M869.2,150.7h4v1.2h-5.5v-8.8h1.5V150.7z"/>
<path class="st0" d="M1089.9,261.7h-3.4l-0.7,2h-1.6l3.3-8.8h1.4l3.3,8.8h-1.6L1089.9,261.7z M1086.9,260.4h2.5l-1.3-3.6
	L1086.9,260.4z M1094.6,263.7h-1.4v-9.2h1.4V263.7z M1097.7,263.7h-1.5v-6.5h1.5V263.7z M1096.2,255.5c0-0.2,0.1-0.4,0.2-0.6
	c0.1-0.1,0.3-0.2,0.6-0.2s0.5,0.1,0.6,0.2c0.2,0.1,0.2,0.3,0.2,0.6c0,0.2-0.1,0.4-0.2,0.6c-0.1,0.1-0.3,0.2-0.6,0.2
	s-0.5-0.1-0.6-0.2C1096.2,255.9,1096.2,255.7,1096.2,255.5z M1102,262.7c0.4,0,0.7-0.1,0.9-0.3c0.2-0.2,0.4-0.5,0.4-0.8h1.4
	c0,0.4-0.1,0.8-0.4,1.1c-0.2,0.3-0.6,0.6-1,0.8c-0.4,0.2-0.8,0.3-1.3,0.3c-0.9,0-1.6-0.3-2.2-0.9c-0.5-0.6-0.8-1.4-0.8-2.4v-0.2
	c0-1,0.3-1.8,0.8-2.4c0.5-0.6,1.3-0.9,2.2-0.9c0.8,0,1.4,0.2,1.9,0.7c0.5,0.5,0.8,1,0.8,1.8h-1.4c0-0.4-0.2-0.7-0.4-0.9
	c-0.2-0.2-0.5-0.4-0.9-0.4c-0.5,0-0.8,0.2-1.1,0.5c-0.3,0.3-0.4,0.9-0.4,1.6v0.2c0,0.7,0.1,1.2,0.4,1.6
	C1101.1,262.5,1101.5,262.7,1102,262.7z M1108.6,263.8c-0.9,0-1.7-0.3-2.3-0.9c-0.6-0.6-0.8-1.4-0.8-2.3v-0.2c0-0.7,0.1-1.2,0.4-1.7
	c0.3-0.5,0.6-0.9,1.1-1.2c0.4-0.3,1-0.4,1.5-0.4c0.9,0,1.6,0.3,2,0.8c0.5,0.6,0.7,1.4,0.7,2.4v0.6h-4.2c0,0.5,0.2,1,0.5,1.3
	c0.3,0.3,0.7,0.5,1.2,0.5c0.7,0,1.2-0.3,1.6-0.8l0.8,0.8c-0.3,0.4-0.6,0.7-1,0.9C1109.6,263.7,1109.1,263.8,1108.6,263.8z
	 M1108.4,258.3c-0.4,0-0.7,0.1-1,0.4c-0.3,0.3-0.4,0.7-0.5,1.2h2.8v-0.1c0-0.5-0.2-0.9-0.4-1.1
	C1109.2,258.4,1108.8,258.3,1108.4,258.3z M1119,261.9c0-0.3-0.1-0.5-0.3-0.6c-0.2-0.1-0.6-0.3-1.1-0.4c-0.5-0.1-0.9-0.2-1.3-0.4
	c-0.7-0.4-1.1-0.9-1.1-1.5c0-0.6,0.2-1,0.7-1.4c0.5-0.4,1.1-0.6,1.8-0.6c0.8,0,1.4,0.2,1.9,0.6c0.5,0.4,0.7,0.9,0.7,1.5h-1.5
	c0-0.3-0.1-0.5-0.3-0.7c-0.2-0.2-0.5-0.3-0.8-0.3c-0.3,0-0.6,0.1-0.8,0.2c-0.2,0.1-0.3,0.3-0.3,0.6c0,0.2,0.1,0.4,0.3,0.5
	c0.2,0.1,0.6,0.3,1.2,0.4c0.6,0.1,1,0.3,1.3,0.5c0.3,0.2,0.6,0.4,0.7,0.6c0.2,0.2,0.2,0.5,0.2,0.9c0,0.6-0.3,1.1-0.7,1.4
	c-0.5,0.4-1.1,0.5-1.9,0.5c-0.5,0-1-0.1-1.4-0.3c-0.4-0.2-0.7-0.5-1-0.8c-0.2-0.3-0.3-0.7-0.3-1.1h1.4c0,0.3,0.2,0.6,0.4,0.8
	c0.2,0.2,0.6,0.3,1,0.3c0.4,0,0.7-0.1,0.9-0.2C1118.9,262.4,1119,262.2,1119,261.9z M1124.6,263.8c-0.9,0-1.7-0.3-2.3-0.9
	c-0.6-0.6-0.9-1.4-0.9-2.3v-0.2c0-0.7,0.1-1.2,0.4-1.7c0.3-0.5,0.6-0.9,1.1-1.2c0.4-0.3,1-0.4,1.5-0.4c0.9,0,1.6,0.3,2.1,0.8
	c0.5,0.6,0.7,1.4,0.7,2.4v0.6h-4.2c0.1,0.5,0.2,1,0.5,1.3c0.3,0.3,0.7,0.5,1.2,0.5c0.7,0,1.2-0.3,1.6-0.8l0.8,0.8
	c-0.3,0.4-0.6,0.7-1,0.9C1125.6,263.7,1125.2,263.8,1124.6,263.8z M1124.4,258.3c-0.4,0-0.7,0.1-1,0.4c-0.2,0.3-0.4,0.7-0.5,1.2h2.8
	v-0.1c0-0.5-0.2-0.9-0.4-1.1C1125.2,258.4,1124.8,258.3,1124.4,258.3z M1129.7,257.2l0,0.8c0.5-0.6,1.1-0.9,1.9-0.9
	c1.3,0,2,0.8,2.1,2.3v4.3h-1.5v-4.2c0-0.4-0.1-0.7-0.3-0.9c-0.2-0.2-0.5-0.3-0.9-0.3c-0.6,0-1,0.3-1.3,0.8v4.6h-1.5v-6.5H1129.7z
	 M1134.9,260.4c0-1,0.2-1.8,0.7-2.4c0.5-0.6,1.1-0.9,1.9-0.9c0.7,0,1.2,0.2,1.7,0.7v-3.3h1.5v9.2h-1.3l-0.1-0.7
	c-0.4,0.5-1,0.8-1.7,0.8c-0.8,0-1.4-0.3-1.8-0.9C1135.2,262.3,1134.9,261.5,1134.9,260.4z M1136.4,260.5c0,0.7,0.1,1.2,0.4,1.6
	c0.3,0.4,0.6,0.6,1.1,0.6c0.6,0,1-0.3,1.3-0.8v-2.8c-0.3-0.5-0.7-0.8-1.3-0.8c-0.5,0-0.8,0.2-1.1,0.6
	C1136.5,259.2,1136.4,259.8,1136.4,260.5z M1088.7,278.3h-1.4v-7l-2.1,0.7v-1.2l3.4-1.3h0.2V278.3z M1097.4,274.6
	c0,1.3-0.2,2.2-0.7,2.9c-0.5,0.6-1.2,1-2.2,1c-0.9,0-1.6-0.3-2.1-0.9c-0.5-0.6-0.7-1.5-0.7-2.8v-1.5c0-1.3,0.2-2.2,0.7-2.8
	c0.5-0.6,1.2-0.9,2.2-0.9c1,0,1.7,0.3,2.1,0.9c0.5,0.6,0.7,1.5,0.7,2.8V274.6z M1096,273c0-0.8-0.1-1.4-0.3-1.8
	c-0.2-0.4-0.6-0.6-1.1-0.6c-0.5,0-0.8,0.2-1.1,0.5c-0.2,0.4-0.3,0.9-0.3,1.7v2c0,0.8,0.1,1.4,0.3,1.8c0.2,0.4,0.6,0.6,1.1,0.6
	c0.5,0,0.8-0.2,1-0.6c0.2-0.4,0.3-1,0.4-1.7V273z"/>
<path class="st1" d="M1108.7,275.5c-0.1,0.9-0.4,1.7-1,2.2c-0.6,0.5-1.4,0.8-2.4,0.8c-0.7,0-1.3-0.2-1.8-0.5
	c-0.5-0.3-0.9-0.8-1.2-1.4c-0.3-0.6-0.4-1.3-0.5-2.1v-0.8c0-0.8,0.2-1.6,0.4-2.2c0.3-0.6,0.7-1.1,1.3-1.5c0.5-0.3,1.2-0.5,1.9-0.5
	c1,0,1.7,0.3,2.3,0.8c0.6,0.5,0.9,1.3,1,2.2h-1.5c-0.1-0.6-0.3-1.1-0.6-1.4c-0.3-0.3-0.7-0.4-1.3-0.4c-0.7,0-1.2,0.2-1.5,0.7
	c-0.4,0.5-0.5,1.2-0.5,2.1v0.8c0,0.9,0.2,1.7,0.5,2.2c0.3,0.5,0.8,0.7,1.5,0.7c0.6,0,1-0.1,1.3-0.4c0.3-0.3,0.5-0.7,0.6-1.3H1108.7z
	 M1113.3,274.9h-1.7v3.4h-1.5v-8.8h3.1c1,0,1.8,0.2,2.3,0.7c0.6,0.5,0.8,1.1,0.8,2c0,0.6-0.1,1.1-0.4,1.5c-0.3,0.4-0.7,0.7-1.2,0.9
	l2,3.7v0.1h-1.6L1113.3,274.9z M1111.6,273.7h1.6c0.5,0,0.9-0.1,1.2-0.4c0.3-0.3,0.4-0.6,0.4-1.1c0-0.5-0.1-0.8-0.4-1.1
	c-0.3-0.3-0.7-0.4-1.2-0.4h-1.6V273.7z M1119.2,277.1h4v1.2h-5.5v-8.8h1.5V277.1z"/>
<path class="st3" d="M286.3,135.2c0-4.8,3.9-8.8,8.8-8.8c4.8,0,8.8,3.9,8.8,8.8v1.4c0.4,0.4,0.6,1,0.6,1.5c0,0.6-0.2,1.1-0.6,1.5
	c0.1,1.3,0.6,2.5,1.4,3.6c1.7,2.2,2.1,5,1.1,7.6c1,1,1.6,2.3,1.6,3.8v7h-1.2v-7c0-2.1-1.5-3.8-3.6-4.1l-2.3-0.3v11.3h-1.2v-11.1
	l-4.2,7.3c-0.1,0.2-0.3,0.3-0.5,0.3s-0.4-0.1-0.5-0.3l-4.2-7.3v11.1h-1.2v-11.3l-2.3,0.3c-2,0.3-3.6,2-3.6,4.1v7h-1.2v-7
	c0-1.5,0.6-2.8,1.6-3.8c-0.9-2.4-0.6-5.2,0.9-7.3l0.4-0.5c0.8-1,1.2-2.2,1.2-3.5V135.2z M298.6,149.9c-0.8-0.2-1.3-0.9-1.3-1.7v-1.7
	c-0.7,0.3-1.6,0.4-2.4,0.4c-0.8,0-1.6-0.1-2.3-0.4v1.7c0,0.8-0.5,1.5-1.3,1.7l3.6,6.4L298.6,149.9z M298.5,145.9v2.3
	c0,0.3,0.2,0.6,0.5,0.6l4.2,0.5c0.7,0.1,1.4,0.3,2,0.7c0.7-2.1,0.3-4.4-1.1-6.1c-0.8-1-1.3-2.3-1.5-3.6c-0.2,0.1-0.4,0.1-0.7,0.1
	h-0.2C301.7,142.7,300.4,144.7,298.5,145.9z M288.2,140.6c0.2,2.3,1.5,4.3,3.4,5.4v2.3c0,0.3-0.2,0.5-0.5,0.6l-4.2,0.5
	c-0.7,0.1-1.4,0.3-2,0.7c-0.6-2-0.3-4.2,0.9-5.9l0.4-0.5c0.9-1.2,1.4-2.7,1.4-4.2v-4.3c0-4.2,3.4-7.6,7.6-7.6c4.2,0,7.6,3.4,7.6,7.6
	v0.7c-0.2,0-0.4-0.1-0.6-0.1h-0.4c-2.1-1.7-3.7-4.9-3.8-4.9c-0.1-0.2-0.3-0.3-0.5-0.3c-0.2,0-0.4,0.1-0.5,0.2
	c-2.8,3.9-8.5,7.4-8.6,7.4c-0.2,0.1-0.3,0.3-0.3,0.5L288.2,140.6z M302,136.9l-0.1,2.3h0.2c0.6,0,1.2-0.5,1.2-1.2
	C303.2,137.4,302.7,136.9,302,136.9L302,136.9z M300.6,140.4c-0.2,3-2.7,5.3-5.7,5.3c-2.9,0-5.4-2.3-5.6-5.2l-0.1-1.5
	c0.3-0.2,0.7-0.5,1.3-0.9c0.2,0.3,0.6,0.6,1,0.6c0.6,0,1.2-0.5,1.2-1.2c0-0.3-0.1-0.6-0.3-0.8c1.6-1.2,3.5-2.8,4.9-4.6
	c0.6,1.1,1.9,3.1,3.6,4.5L300.6,140.4z M298.5,138.7c0.6,0,1.2-0.5,1.2-1.2c0-0.6-0.5-1.2-1.2-1.2c-0.6,0-1.2,0.5-1.2,1.2
	C297.4,138.2,297.9,138.7,298.5,138.7z M295.5,138.4l-0.7,1.5h0.8v1.2h-1.8c-0.2,0-0.4-0.1-0.5-0.3c-0.1-0.2-0.1-0.4,0-0.6l1.2-2.3
	L295.5,138.4z M296.5,141.7c-0.7,0.3-1.4,0.5-2.2,0.5h0h-0.4v1.2h0.4h0c0.9,0,1.9-0.2,2.7-0.6L296.5,141.7z"/>
<path class="st3" d="M781,138.8c0-4.8,3.9-8.8,8.8-8.8c4.8,0,8.8,3.9,8.8,8.8v1.4c0.4,0.4,0.6,1,0.6,1.5c0,0.6-0.2,1.1-0.6,1.5
	c0.1,1.3,0.6,2.5,1.4,3.6c1.7,2.2,2.1,5,1.1,7.6c1,1,1.6,2.3,1.6,3.8v7h-1.2v-7c0-2.1-1.5-3.8-3.6-4.1l-2.3-0.3v11.3h-1.2V154
	l-4.2,7.3c-0.1,0.2-0.3,0.3-0.5,0.3c-0.2,0-0.4-0.1-0.5-0.3l-4.2-7.3v11.1h-1.2v-11.3l-2.3,0.3c-2,0.3-3.6,2-3.6,4.1v7h-1.2v-7
	c0-1.5,0.6-2.8,1.6-3.8c-0.9-2.4-0.6-5.2,0.9-7.3l0.4-0.5c0.8-1,1.2-2.2,1.2-3.5V138.8z M793.4,153.5c-0.8-0.2-1.3-0.9-1.3-1.7v-1.7
	c-0.7,0.3-1.6,0.4-2.4,0.4c-0.8,0-1.6-0.1-2.3-0.4v1.7c0,0.8-0.5,1.5-1.3,1.7l3.6,6.4L793.4,153.5z M793.2,149.5v2.3
	c0,0.3,0.2,0.6,0.5,0.6l4.2,0.5c0.7,0.1,1.4,0.3,2,0.7c0.7-2.1,0.3-4.4-1.1-6.1c-0.8-1-1.3-2.3-1.5-3.6c-0.2,0.1-0.4,0.1-0.7,0.1
	h-0.2C796.4,146.4,795.1,148.4,793.2,149.5z M782.9,144.2c0.2,2.3,1.5,4.3,3.4,5.4v2.3c0,0.3-0.2,0.5-0.5,0.6l-4.2,0.5
	c-0.7,0.1-1.4,0.3-2,0.7c-0.6-2-0.3-4.2,0.9-5.9l0.4-0.5c0.9-1.2,1.4-2.7,1.4-4.2v-4.3c0-4.2,3.4-7.6,7.6-7.6s7.6,3.4,7.6,7.6v0.7
	c-0.2,0-0.4-0.1-0.6-0.1h-0.4c-2.1-1.7-3.8-4.9-3.8-4.9c-0.1-0.2-0.3-0.3-0.5-0.3c-0.2,0-0.4,0.1-0.5,0.2c-2.8,3.9-8.5,7.4-8.6,7.4
	c-0.2,0.1-0.3,0.3-0.3,0.5L782.9,144.2z M796.7,140.6l-0.1,2.3h0.2c0.6,0,1.2-0.5,1.2-1.2C797.9,141.1,797.4,140.6,796.7,140.6
	L796.7,140.6z M795.3,144c-0.2,3-2.7,5.3-5.7,5.3c-2.9,0-5.4-2.3-5.7-5.2l-0.1-1.5c0.3-0.2,0.7-0.5,1.3-0.9c0.2,0.3,0.6,0.6,1,0.6
	c0.6,0,1.2-0.5,1.2-1.2c0-0.3-0.1-0.6-0.3-0.8c1.6-1.2,3.5-2.8,4.9-4.6c0.6,1.1,1.9,3.1,3.6,4.5L795.3,144z M793.2,142.3
	c0.6,0,1.2-0.5,1.2-1.2c0-0.6-0.5-1.2-1.2-1.2c-0.6,0-1.2,0.5-1.2,1.2C792.1,141.8,792.6,142.3,793.2,142.3z M790.3,142l-0.7,1.5
	h0.8v1.2h-1.8c-0.2,0-0.4-0.1-0.5-0.3c-0.1-0.2-0.1-0.4,0-0.6l1.2-2.3L790.3,142z M791.2,145.3c-0.7,0.3-1.4,0.5-2.2,0.5h0h-0.4v1.2
	h0.4h0c0.9,0,1.9-0.2,2.7-0.6L791.2,145.3z"/>
<path class="st0" d="M121,140.9c-0.5,0.5-0.5,1.4,0,1.9l8.7,8.7c0.5,0.5,1.4,0.5,1.9,0c0.5-0.5,0.5-1.4,0-1.9l-7.7-7.7l7.7-7.7
	c0.5-0.5,0.5-1.4,0-1.9c-0.5-0.5-1.4-0.5-1.9,0L121,140.9z M252.1,140.5H122v2.7h130.2V140.5z"/>
<path class="st0" d="M949.7,190.6c-0.7-0.2-1.5,0.2-1.7,1l-3.2,11.9c-0.2,0.7,0.2,1.5,1,1.7c0.7,0.2,1.5-0.2,1.7-1l2.8-10.6
	l10.5,2.8c0.7,0.2,1.5-0.2,1.7-1c0.2-0.7-0.2-1.5-1-1.7L949.7,190.6z M988.8,257.7l-38.2-66.4l-2.4,1.4l38.2,66.4L988.8,257.7z"/>
<path class="st0" d="M23.5,204h-2.9v2.2H24v1h-4.7V200H24v1h-3.4v2h2.9V204z M30.7,207.1h-1.2l-3.2-5.1v5.1H25V200h1.2l3.2,5.1V200
	h1.2V207.1z M37.8,203.8c0,0.7-0.1,1.3-0.3,1.8c-0.2,0.5-0.5,0.9-0.9,1.2l1.2,1l-0.8,0.7l-1.5-1.2c-0.2,0-0.4,0.1-0.6,0.1
	c-0.6,0-1.1-0.1-1.5-0.4c-0.4-0.3-0.8-0.7-1-1.2c-0.2-0.5-0.4-1.1-0.4-1.8v-0.4c0-0.7,0.1-1.3,0.4-1.8c0.2-0.5,0.6-0.9,1-1.2
	c0.4-0.3,1-0.4,1.5-0.4c0.6,0,1.1,0.1,1.5,0.4c0.4,0.3,0.8,0.7,1,1.2c0.2,0.5,0.4,1.1,0.4,1.8V203.8z M36.6,203.4
	c0-0.8-0.1-1.4-0.4-1.8c-0.3-0.4-0.7-0.6-1.3-0.6c-0.5,0-0.9,0.2-1.3,0.6c-0.3,0.4-0.5,1-0.5,1.8v0.4c0,0.8,0.1,1.4,0.4,1.8
	c0.3,0.4,0.7,0.7,1.3,0.7c0.6,0,1-0.2,1.3-0.6c0.3-0.4,0.4-1,0.4-1.8V203.4z M47.2,207.1H46l-3.2-5.1v5.1h-1.2V200h1.2l3.2,5.1V200
	h1.2V207.1z M50.9,207.2c-0.8,0-1.4-0.2-1.8-0.7c-0.5-0.5-0.7-1.1-0.7-1.9v-0.1c0-0.5,0.1-1,0.3-1.4c0.2-0.4,0.5-0.7,0.9-1
	c0.4-0.2,0.8-0.3,1.2-0.3c0.7,0,1.3,0.2,1.7,0.7c0.4,0.5,0.6,1.1,0.6,2v0.5h-3.5c0,0.4,0.2,0.8,0.4,1c0.3,0.3,0.6,0.4,1,0.4
	c0.5,0,1-0.2,1.3-0.7l0.6,0.6c-0.2,0.3-0.5,0.6-0.9,0.7C51.7,207.1,51.3,207.2,50.9,207.2z M50.7,202.7c-0.3,0-0.6,0.1-0.8,0.3
	c-0.2,0.2-0.3,0.5-0.4,1h2.3v-0.1c0-0.4-0.1-0.7-0.3-0.9C51.3,202.8,51.1,202.7,50.7,202.7z M55.4,200.5v1.3h0.9v0.9h-0.9v3
	c0,0.2,0,0.3,0.1,0.4c0.1,0.1,0.2,0.1,0.4,0.1c0.1,0,0.3,0,0.4-0.1v0.9c-0.3,0.1-0.5,0.1-0.8,0.1c-0.9,0-1.4-0.5-1.4-1.5v-3h-0.9
	v-0.9h0.9v-1.3H55.4z M61.9,205.5l0.8-3.7h1.2l-1.4,5.3h-1l-1.1-3.6l-1.1,3.6h-1l-1.4-5.3H58l0.9,3.6l1.1-3.6h0.9L61.9,205.5z
	 M64.5,204.4c0-0.5,0.1-1,0.3-1.4c0.2-0.4,0.5-0.7,0.9-1c0.4-0.2,0.8-0.3,1.3-0.3c0.7,0,1.3,0.2,1.7,0.7c0.4,0.5,0.7,1.1,0.7,1.8
	l0,0.3c0,0.5-0.1,1-0.3,1.4c-0.2,0.4-0.5,0.7-0.9,1c-0.4,0.2-0.8,0.3-1.3,0.3c-0.7,0-1.3-0.2-1.8-0.7
	C64.7,206,64.5,205.3,64.5,204.4L64.5,204.4z M65.7,204.5c0,0.5,0.1,1,0.3,1.3c0.2,0.3,0.5,0.5,0.9,0.5c0.4,0,0.7-0.2,0.9-0.5
	c0.2-0.3,0.3-0.8,0.3-1.4c0-0.5-0.1-1-0.3-1.3c-0.2-0.3-0.5-0.5-0.9-0.5c-0.4,0-0.7,0.2-0.9,0.5C65.8,203.5,65.7,203.9,65.7,204.5z
	 M73.2,202.9c-0.2,0-0.3,0-0.5,0c-0.5,0-0.9,0.2-1.1,0.6v3.6h-1.2v-5.3h1.1l0,0.6c0.3-0.5,0.7-0.7,1.2-0.7c0.2,0,0.3,0,0.4,0.1
	L73.2,202.9z M75.6,204.9l-0.5,0.5v1.7h-1.2v-7.5h1.2v4.3l0.4-0.5l1.5-1.7h1.4l-2,2.2l2.2,3.1h-1.4L75.6,204.9z"/>
<path class="st0" d="M879,232.3v2.7h-1.2v-7.1h2.7c0.8,0,1.4,0.2,1.9,0.6c0.5,0.4,0.7,1,0.7,1.6c0,0.7-0.2,1.2-0.7,1.6
	c-0.5,0.4-1.1,0.6-1.9,0.6H879z M879,231.3h1.5c0.4,0,0.8-0.1,1-0.3c0.2-0.2,0.3-0.5,0.3-0.9c0-0.4-0.1-0.7-0.4-0.9
	c-0.2-0.2-0.6-0.4-1-0.4H879V231.3z M887.1,235c-0.1-0.1-0.1-0.3-0.1-0.5c-0.4,0.4-0.8,0.6-1.4,0.6c-0.5,0-1-0.2-1.3-0.5
	c-0.3-0.3-0.5-0.7-0.5-1.1c0-0.6,0.2-1,0.6-1.3c0.4-0.3,1-0.5,1.8-0.5h0.7v-0.3c0-0.3-0.1-0.5-0.2-0.7c-0.2-0.2-0.4-0.3-0.7-0.3
	c-0.3,0-0.5,0.1-0.7,0.2c-0.2,0.1-0.3,0.3-0.3,0.5h-1.2c0-0.3,0.1-0.6,0.3-0.8c0.2-0.3,0.5-0.5,0.8-0.6c0.3-0.1,0.7-0.2,1.1-0.2
	c0.6,0,1.1,0.2,1.5,0.5c0.4,0.3,0.6,0.7,0.6,1.3v2.4c0,0.5,0.1,0.9,0.2,1.1v0.1H887.1z M885.8,234.1c0.2,0,0.5-0.1,0.7-0.2
	c0.2-0.1,0.4-0.3,0.5-0.5v-1h-0.6c-0.4,0-0.8,0.1-1,0.2c-0.2,0.2-0.3,0.4-0.3,0.7c0,0.2,0.1,0.4,0.2,0.5
	C885.3,234,885.5,234.1,885.8,234.1z M891.1,233.3l1.1-3.6h1.3l-2.1,6.1c-0.3,0.9-0.9,1.3-1.6,1.3c-0.2,0-0.4,0-0.6-0.1v-0.9l0.2,0
	c0.3,0,0.5-0.1,0.7-0.2c0.2-0.1,0.3-0.3,0.4-0.5l0.2-0.5l-1.9-5.3h1.3L891.1,233.3z M899.8,235h-1.2v-5.7l-1.7,0.6v-1l2.8-1h0.2V235
	z M926,235v-4.4h-0.8v-0.9h0.8v-0.5c0-0.6,0.2-1,0.5-1.4c0.3-0.3,0.8-0.5,1.4-0.5c0.2,0,0.4,0,0.7,0.1l0,0.9c-0.1,0-0.3,0-0.5,0
	c-0.6,0-0.8,0.3-0.8,0.9v0.5h1.1v0.9h-1.1v4.4H926z M931.3,235.1c-0.8,0-1.4-0.2-1.8-0.7c-0.5-0.5-0.7-1.1-0.7-1.9v-0.1
	c0-0.5,0.1-1,0.3-1.4c0.2-0.4,0.5-0.7,0.9-1c0.4-0.2,0.8-0.3,1.2-0.3c0.7,0,1.3,0.2,1.7,0.7c0.4,0.5,0.6,1.1,0.6,2v0.5H930
	c0,0.4,0.2,0.8,0.4,1c0.3,0.3,0.6,0.4,1,0.4c0.5,0,1-0.2,1.3-0.7l0.6,0.6c-0.2,0.3-0.5,0.6-0.9,0.7
	C932.1,235,931.7,235.1,931.3,235.1z M931.2,230.5c-0.3,0-0.6,0.1-0.8,0.3c-0.2,0.2-0.3,0.5-0.4,1h2.3v-0.1c0-0.4-0.1-0.7-0.3-0.9
	C931.7,230.6,931.5,230.5,931.2,230.5z M936.7,235.1c-0.8,0-1.4-0.2-1.8-0.7c-0.5-0.5-0.7-1.1-0.7-1.9v-0.1c0-0.5,0.1-1,0.3-1.4
	c0.2-0.4,0.5-0.7,0.9-1c0.4-0.2,0.8-0.3,1.2-0.3c0.7,0,1.3,0.2,1.7,0.7c0.4,0.5,0.6,1.1,0.6,2v0.5h-3.5c0,0.4,0.2,0.8,0.4,1
	c0.3,0.3,0.6,0.4,1,0.4c0.5,0,1-0.2,1.3-0.7l0.6,0.6c-0.2,0.3-0.5,0.6-0.9,0.7C937.5,235,937.1,235.1,936.7,235.1z M936.5,230.5
	c-0.3,0-0.6,0.1-0.8,0.3c-0.2,0.2-0.3,0.5-0.4,1h2.3v-0.1c0-0.4-0.1-0.7-0.3-0.9C937.1,230.6,936.9,230.5,936.5,230.5z M942.6,235
	v-4.4h-0.8v-0.9h0.8v-0.5c0-0.6,0.2-1,0.5-1.4c0.3-0.3,0.8-0.5,1.4-0.5c0.2,0,0.4,0,0.7,0.1l0,0.9c-0.1,0-0.3,0-0.5,0
	c-0.6,0-0.9,0.3-0.9,0.9v0.5h1.1v0.9h-1.1v4.4H942.6z M945.5,232.3c0-0.5,0.1-1,0.3-1.4c0.2-0.4,0.5-0.7,0.9-1
	c0.4-0.2,0.8-0.3,1.3-0.3c0.7,0,1.3,0.2,1.7,0.7c0.5,0.5,0.7,1.1,0.7,1.8l0,0.3c0,0.5-0.1,1-0.3,1.4c-0.2,0.4-0.5,0.7-0.9,1
	c-0.4,0.2-0.8,0.3-1.3,0.3c-0.7,0-1.3-0.2-1.8-0.7C945.8,233.8,945.5,233.2,945.5,232.3L945.5,232.3z M946.7,232.4
	c0,0.5,0.1,1,0.3,1.3c0.2,0.3,0.5,0.5,0.9,0.5c0.4,0,0.7-0.2,0.9-0.5c0.2-0.3,0.3-0.8,0.3-1.4c0-0.5-0.1-1-0.4-1.3
	c-0.2-0.3-0.5-0.5-0.9-0.5c-0.4,0-0.7,0.2-0.9,0.5C946.9,231.3,946.7,231.8,946.7,232.4z M954.2,230.8c-0.2,0-0.3,0-0.5,0
	c-0.5,0-0.9,0.2-1.1,0.6v3.6h-1.2v-5.3h1.1l0,0.6c0.3-0.5,0.7-0.7,1.2-0.7c0.2,0,0.3,0,0.4,0.1L954.2,230.8z M905.8,240.2v1.3h0.9
	v0.9h-0.9v3c0,0.2,0,0.3,0.1,0.4c0.1,0.1,0.2,0.1,0.4,0.1c0.1,0,0.3,0,0.4,0v0.9c-0.3,0.1-0.5,0.1-0.8,0.1c-0.9,0-1.4-0.5-1.4-1.5
	v-3h-0.9v-0.9h0.9v-1.3H905.8z M910.4,242.6c-0.2,0-0.3,0-0.5,0c-0.5,0-0.9,0.2-1.1,0.6v3.6h-1.2v-5.3h1.1l0,0.6
	c0.3-0.5,0.7-0.7,1.2-0.7c0.2,0,0.3,0,0.4,0.1L910.4,242.6z M914.2,246.8c0-0.1-0.1-0.3-0.1-0.5c-0.4,0.4-0.8,0.6-1.4,0.6
	c-0.5,0-1-0.2-1.3-0.5c-0.3-0.3-0.5-0.7-0.5-1.1c0-0.6,0.2-1,0.6-1.3c0.4-0.3,1-0.5,1.8-0.5h0.7v-0.3c0-0.3-0.1-0.5-0.2-0.7
	c-0.2-0.2-0.4-0.3-0.7-0.3c-0.3,0-0.5,0.1-0.7,0.2c-0.2,0.1-0.3,0.3-0.3,0.5h-1.2c0-0.3,0.1-0.6,0.3-0.8c0.2-0.3,0.5-0.5,0.8-0.6
	c0.3-0.1,0.7-0.2,1.1-0.2c0.6,0,1.1,0.2,1.5,0.5c0.4,0.3,0.6,0.7,0.6,1.3v2.4c0,0.5,0.1,0.9,0.2,1.1v0.1H914.2z M912.9,246
	c0.2,0,0.5-0.1,0.7-0.2c0.2-0.1,0.4-0.3,0.5-0.5v-1h-0.6c-0.4,0-0.8,0.1-1,0.2c-0.2,0.2-0.3,0.4-0.3,0.7c0,0.2,0.1,0.4,0.2,0.5
	C912.4,245.9,912.6,246,912.9,246z M917.5,241.5l0,0.6c0.4-0.5,0.9-0.7,1.5-0.7c1.1,0,1.7,0.6,1.7,1.9v3.5h-1.2v-3.4
	c0-0.3-0.1-0.6-0.2-0.7c-0.1-0.2-0.4-0.2-0.7-0.2c-0.5,0-0.8,0.2-1.1,0.7v3.8h-1.2v-5.3H917.5z M925,245.4c0-0.2-0.1-0.4-0.3-0.5
	c-0.2-0.1-0.5-0.2-0.9-0.3c-0.4-0.1-0.7-0.2-1-0.3c-0.6-0.3-0.9-0.7-0.9-1.3c0-0.5,0.2-0.8,0.6-1.1c0.4-0.3,0.9-0.5,1.5-0.5
	c0.6,0,1.1,0.2,1.5,0.5c0.4,0.3,0.6,0.7,0.6,1.2h-1.2c0-0.2-0.1-0.4-0.3-0.6c-0.2-0.2-0.4-0.2-0.7-0.2c-0.3,0-0.5,0.1-0.6,0.2
	s-0.2,0.3-0.2,0.5c0,0.2,0.1,0.3,0.2,0.4c0.2,0.1,0.5,0.2,0.9,0.3c0.5,0.1,0.8,0.2,1.1,0.4c0.3,0.1,0.5,0.3,0.6,0.5
	c0.1,0.2,0.2,0.4,0.2,0.7c0,0.5-0.2,0.9-0.6,1.2c-0.4,0.3-0.9,0.4-1.5,0.4c-0.4,0-0.8-0.1-1.2-0.2c-0.3-0.2-0.6-0.4-0.8-0.6
	c-0.2-0.3-0.3-0.6-0.3-0.9h1.2c0,0.3,0.1,0.5,0.3,0.7c0.2,0.2,0.5,0.2,0.8,0.2c0.3,0,0.6-0.1,0.7-0.2
	C924.9,245.7,925,245.6,925,245.4z M930.3,246.8c-0.1-0.1-0.1-0.3-0.1-0.5c-0.4,0.4-0.8,0.6-1.4,0.6c-0.5,0-1-0.2-1.3-0.5
	c-0.3-0.3-0.5-0.7-0.5-1.1c0-0.6,0.2-1,0.6-1.3c0.4-0.3,1-0.5,1.8-0.5h0.7v-0.3c0-0.3-0.1-0.5-0.2-0.7c-0.2-0.2-0.4-0.3-0.7-0.3
	c-0.3,0-0.5,0.1-0.7,0.2c-0.2,0.1-0.3,0.3-0.3,0.5h-1.2c0-0.3,0.1-0.6,0.3-0.8c0.2-0.3,0.5-0.5,0.8-0.6c0.3-0.1,0.7-0.2,1.1-0.2
	c0.6,0,1.1,0.2,1.5,0.5c0.4,0.3,0.6,0.7,0.6,1.3v2.4c0,0.5,0.1,0.9,0.2,1.1v0.1H930.3z M929,246c0.2,0,0.5-0.1,0.7-0.2
	c0.2-0.1,0.4-0.3,0.5-0.5v-1h-0.6c-0.4,0-0.8,0.1-1,0.2c-0.2,0.2-0.3,0.4-0.3,0.7c0,0.2,0.1,0.4,0.2,0.5
	C928.6,245.9,928.8,246,929,246z M934.8,246c0.3,0,0.5-0.1,0.7-0.3c0.2-0.2,0.3-0.4,0.3-0.6h1.1c0,0.3-0.1,0.6-0.3,0.9
	c-0.2,0.3-0.5,0.5-0.8,0.7c-0.3,0.2-0.7,0.3-1.1,0.3c-0.7,0-1.3-0.2-1.8-0.7c-0.4-0.5-0.7-1.1-0.7-2v-0.1c0-0.8,0.2-1.5,0.6-1.9
	c0.4-0.5,1-0.7,1.8-0.7c0.6,0,1.1,0.2,1.5,0.6c0.4,0.4,0.6,0.8,0.6,1.4h-1.1c0-0.3-0.1-0.6-0.3-0.8c-0.2-0.2-0.4-0.3-0.7-0.3
	c-0.4,0-0.7,0.1-0.9,0.4c-0.2,0.3-0.3,0.7-0.3,1.3v0.2c0,0.6,0.1,1,0.3,1.3C934.1,245.8,934.4,246,934.8,246z M939.3,240.2v1.3h0.9
	v0.9h-0.9v3c0,0.2,0,0.3,0.1,0.4c0.1,0.1,0.2,0.1,0.4,0.1c0.1,0,0.3,0,0.4,0v0.9c-0.3,0.1-0.5,0.1-0.8,0.1c-0.9,0-1.4-0.5-1.4-1.5
	v-3h-0.9v-0.9h0.9v-1.3H939.3z M942.4,246.8h-1.2v-5.3h1.2V246.8z M941.2,240.2c0-0.2,0.1-0.3,0.2-0.5c0.1-0.1,0.3-0.2,0.5-0.2
	c0.2,0,0.4,0.1,0.5,0.2c0.1,0.1,0.2,0.3,0.2,0.5c0,0.2-0.1,0.3-0.2,0.5c-0.1,0.1-0.3,0.2-0.5,0.2c-0.2,0-0.4-0.1-0.5-0.2
	C941.2,240.5,941.2,240.3,941.2,240.2z M943.5,244.1c0-0.5,0.1-1,0.3-1.4c0.2-0.4,0.5-0.7,0.9-1c0.4-0.2,0.8-0.3,1.3-0.3
	c0.7,0,1.3,0.2,1.7,0.7c0.4,0.5,0.7,1.1,0.7,1.8l0,0.3c0,0.5-0.1,1-0.3,1.4c-0.2,0.4-0.5,0.7-0.9,1c-0.4,0.2-0.8,0.3-1.3,0.3
	c-0.7,0-1.3-0.2-1.8-0.7C943.7,245.7,943.5,245,943.5,244.1L943.5,244.1z M944.7,244.2c0,0.5,0.1,1,0.3,1.3c0.2,0.3,0.5,0.5,0.9,0.5
	c0.4,0,0.7-0.2,0.9-0.5c0.2-0.3,0.3-0.8,0.3-1.4c0-0.5-0.1-1-0.3-1.3c-0.2-0.3-0.5-0.5-0.9-0.5c-0.4,0-0.7,0.2-0.9,0.5
	C944.8,243.2,944.7,243.6,944.7,244.2z M950.5,241.5l0,0.6c0.4-0.5,0.9-0.7,1.5-0.7c1.1,0,1.7,0.6,1.7,1.9v3.5h-1.2v-3.4
	c0-0.3-0.1-0.6-0.2-0.7c-0.1-0.2-0.4-0.2-0.7-0.2c-0.5,0-0.8,0.2-1.1,0.7v3.8h-1.2v-5.3H950.5z"/>
<path class="st1" d="M910.4,232.6c-0.1,0.8-0.4,1.4-0.8,1.8c-0.5,0.4-1.1,0.6-1.9,0.6c-0.6,0-1.1-0.1-1.5-0.4
	c-0.4-0.3-0.8-0.7-1-1.2c-0.2-0.5-0.4-1.1-0.4-1.7v-0.7c0-0.7,0.1-1.3,0.4-1.8c0.2-0.5,0.6-0.9,1-1.2c0.4-0.3,1-0.4,1.5-0.4
	c0.8,0,1.4,0.2,1.9,0.6c0.5,0.4,0.8,1,0.8,1.8h-1.2c-0.1-0.5-0.2-0.9-0.4-1.1c-0.2-0.2-0.6-0.3-1.1-0.3c-0.5,0-1,0.2-1.2,0.6
	c-0.3,0.4-0.4,1-0.4,1.7v0.6c0,0.8,0.1,1.4,0.4,1.8c0.3,0.4,0.7,0.6,1.2,0.6c0.5,0,0.9-0.1,1.1-0.3c0.2-0.2,0.4-0.6,0.5-1.1H910.4z
	 M914.1,232.2h-1.4v2.8h-1.2v-7.1h2.5c0.8,0,1.5,0.2,1.9,0.6c0.4,0.4,0.7,0.9,0.7,1.6c0,0.5-0.1,0.9-0.3,1.2c-0.2,0.3-0.6,0.6-1,0.7
	l1.6,3v0.1h-1.3L914.1,232.2z M912.7,231.2h1.3c0.4,0,0.7-0.1,1-0.3c0.2-0.2,0.4-0.5,0.4-0.9c0-0.4-0.1-0.7-0.3-0.9
	c-0.2-0.2-0.5-0.3-1-0.3h-1.3V231.2z M919,234h3.2v1h-4.5v-7.1h1.2V234z"/>
<path class="st0" d="M676.7,262.8c-0.1,0.8-0.3,1.4-0.8,1.8c-0.5,0.4-1.1,0.6-1.9,0.6c-0.6,0-1.1-0.1-1.5-0.4
	c-0.4-0.3-0.8-0.7-1-1.2c-0.2-0.5-0.4-1.1-0.4-1.7v-0.7c0-0.7,0.1-1.3,0.4-1.8c0.2-0.5,0.6-0.9,1-1.2c0.4-0.3,1-0.4,1.5-0.4
	c0.8,0,1.4,0.2,1.9,0.6c0.5,0.4,0.8,1,0.8,1.8h-1.2c-0.1-0.5-0.2-0.9-0.4-1.1c-0.2-0.2-0.6-0.3-1.1-0.3c-0.5,0-1,0.2-1.2,0.6
	c-0.3,0.4-0.4,1-0.4,1.7v0.6c0,0.8,0.1,1.4,0.4,1.8c0.3,0.4,0.7,0.6,1.2,0.6c0.5,0,0.9-0.1,1.1-0.3c0.2-0.2,0.4-0.6,0.5-1.1H676.7z
	 M680.9,265.1c0-0.1-0.1-0.3-0.1-0.5c-0.4,0.4-0.8,0.6-1.4,0.6c-0.5,0-1-0.2-1.3-0.5c-0.3-0.3-0.5-0.7-0.5-1.1c0-0.6,0.2-1,0.6-1.3
	c0.4-0.3,1-0.5,1.8-0.5h0.7v-0.3c0-0.3-0.1-0.5-0.2-0.7c-0.2-0.2-0.4-0.3-0.7-0.3c-0.3,0-0.5,0.1-0.7,0.2c-0.2,0.1-0.3,0.3-0.3,0.5
	h-1.2c0-0.3,0.1-0.6,0.3-0.8c0.2-0.3,0.5-0.5,0.8-0.6c0.3-0.1,0.7-0.2,1.1-0.2c0.6,0,1.1,0.2,1.5,0.5c0.4,0.3,0.6,0.7,0.6,1.3v2.4
	c0,0.5,0.1,0.9,0.2,1.1v0.1H680.9z M679.6,264.2c0.2,0,0.5-0.1,0.7-0.2c0.2-0.1,0.4-0.3,0.5-0.5v-1h-0.6c-0.4,0-0.8,0.1-1,0.2
	c-0.2,0.2-0.3,0.4-0.3,0.7c0,0.2,0.1,0.4,0.2,0.5C679.1,264.2,679.3,264.2,679.6,264.2z M684.3,259.8l0,0.6c0.4-0.5,0.9-0.7,1.5-0.7
	c1.1,0,1.7,0.6,1.7,1.9v3.5h-1.2v-3.4c0-0.3-0.1-0.6-0.2-0.7c-0.1-0.2-0.4-0.2-0.7-0.2c-0.5,0-0.8,0.2-1.1,0.7v3.8h-1.2v-5.3H684.3z
	 M694.2,263.6c0-0.2-0.1-0.4-0.3-0.5c-0.2-0.1-0.5-0.2-0.9-0.3c-0.4-0.1-0.7-0.2-1-0.3c-0.6-0.3-0.9-0.7-0.9-1.3
	c0-0.5,0.2-0.8,0.6-1.1c0.4-0.3,0.9-0.5,1.5-0.5c0.6,0,1.1,0.2,1.5,0.5c0.4,0.3,0.6,0.7,0.6,1.2h-1.2c0-0.2-0.1-0.4-0.3-0.6
	c-0.2-0.2-0.4-0.2-0.7-0.2c-0.3,0-0.5,0.1-0.6,0.2c-0.2,0.1-0.2,0.3-0.2,0.5c0,0.2,0.1,0.3,0.2,0.4c0.2,0.1,0.5,0.2,0.9,0.3
	c0.5,0.1,0.8,0.2,1.1,0.4c0.3,0.1,0.5,0.3,0.6,0.5c0.1,0.2,0.2,0.4,0.2,0.7c0,0.5-0.2,0.9-0.6,1.2c-0.4,0.3-0.9,0.4-1.6,0.4
	c-0.4,0-0.8-0.1-1.2-0.2c-0.3-0.2-0.6-0.4-0.8-0.6c-0.2-0.3-0.3-0.6-0.3-0.9h1.2c0,0.3,0.1,0.5,0.3,0.7c0.2,0.1,0.5,0.2,0.8,0.2
	c0.3,0,0.6-0.1,0.7-0.2C694.1,264,694.2,263.8,694.2,263.6z M698.7,265.2c-0.8,0-1.4-0.2-1.8-0.7c-0.5-0.5-0.7-1.1-0.7-1.9v-0.1
	c0-0.5,0.1-1,0.3-1.4c0.2-0.4,0.5-0.7,0.9-1c0.4-0.2,0.8-0.3,1.2-0.3c0.7,0,1.3,0.2,1.7,0.7c0.4,0.5,0.6,1.1,0.6,2v0.5h-3.5
	c0,0.4,0.2,0.8,0.4,1c0.3,0.3,0.6,0.4,1,0.4c0.5,0,1-0.2,1.3-0.7l0.6,0.6c-0.2,0.3-0.5,0.6-0.9,0.7
	C699.6,265.1,699.2,265.2,698.7,265.2z M698.6,260.6c-0.3,0-0.6,0.1-0.8,0.3c-0.2,0.2-0.3,0.5-0.4,1h2.3v-0.1c0-0.4-0.1-0.7-0.3-0.9
	C699.2,260.7,698.9,260.6,698.6,260.6z M702.9,259.8l0,0.6c0.4-0.5,0.9-0.7,1.5-0.7c1.1,0,1.7,0.6,1.7,1.9v3.5h-1.2v-3.4
	c0-0.3-0.1-0.6-0.2-0.7c-0.1-0.2-0.4-0.2-0.7-0.2c-0.5,0-0.8,0.2-1.1,0.7v3.8h-1.2v-5.3H702.9z M707.1,262.4c0-0.8,0.2-1.5,0.6-2
	c0.4-0.5,0.9-0.7,1.5-0.7c0.6,0,1,0.2,1.4,0.6v-2.7h1.2v7.5h-1.1l-0.1-0.5c-0.4,0.4-0.8,0.6-1.4,0.6c-0.6,0-1.1-0.3-1.5-0.8
	C707.3,263.9,707.1,263.3,707.1,262.4z M708.3,262.5c0,0.5,0.1,1,0.3,1.3c0.2,0.3,0.5,0.5,0.9,0.5c0.5,0,0.8-0.2,1.1-0.7v-2.3
	c-0.2-0.4-0.6-0.6-1.1-0.6c-0.4,0-0.7,0.2-0.9,0.5C708.4,261.4,708.3,261.9,708.3,262.5z"/>
<path class="st1" d="M719.8,261.9h-2.9v2.2h3.4v1h-4.7v-7.1h4.6v1h-3.4v2h2.9V261.9z M726.9,265.1h-1.2l-3.2-5.1v5.1h-1.2v-7.1h1.2
	l3.2,5.1v-5.1h1.2V265.1z M734,261.7c0,0.7-0.1,1.3-0.3,1.8c-0.2,0.5-0.5,0.9-0.9,1.2l1.2,1l-0.8,0.7l-1.5-1.2
	c-0.2,0-0.4,0.1-0.6,0.1c-0.6,0-1.1-0.1-1.5-0.4c-0.5-0.3-0.8-0.7-1-1.2c-0.2-0.5-0.4-1.1-0.4-1.8v-0.4c0-0.7,0.1-1.3,0.4-1.8
	c0.2-0.5,0.6-0.9,1-1.2c0.4-0.3,1-0.4,1.5-0.4c0.6,0,1.1,0.1,1.5,0.4c0.5,0.3,0.8,0.7,1,1.2c0.2,0.5,0.4,1.1,0.4,1.8V261.7z
	 M732.8,261.3c0-0.8-0.2-1.4-0.5-1.8c-0.3-0.4-0.7-0.6-1.3-0.6c-0.5,0-0.9,0.2-1.3,0.6c-0.3,0.4-0.5,1-0.5,1.8v0.4
	c0,0.8,0.2,1.4,0.5,1.8c0.3,0.4,0.7,0.7,1.3,0.7c0.5,0,1-0.2,1.3-0.6c0.3-0.4,0.4-1,0.4-1.8V261.3z"/>
<path class="st0" d="M676.7,7.3c-0.1,0.8-0.3,1.4-0.8,1.8c-0.5,0.4-1.1,0.6-1.9,0.6c-0.6,0-1.1-0.1-1.5-0.4c-0.4-0.3-0.8-0.7-1-1.2
	c-0.2-0.5-0.4-1.1-0.4-1.7V5.7c0-0.7,0.1-1.3,0.4-1.8c0.2-0.5,0.6-0.9,1-1.2c0.4-0.3,1-0.4,1.5-0.4c0.8,0,1.4,0.2,1.9,0.6
	c0.5,0.4,0.8,1,0.8,1.8h-1.2c-0.1-0.5-0.2-0.9-0.4-1.1c-0.2-0.2-0.6-0.3-1.1-0.3c-0.5,0-1,0.2-1.2,0.6c-0.3,0.4-0.4,1-0.4,1.7v0.6
	c0,0.8,0.1,1.4,0.4,1.8c0.3,0.4,0.7,0.6,1.2,0.6c0.5,0,0.9-0.1,1.1-0.3c0.2-0.2,0.4-0.6,0.5-1.1H676.7z M680.9,9.6
	c0-0.1-0.1-0.3-0.1-0.5c-0.4,0.4-0.8,0.6-1.4,0.6c-0.5,0-1-0.2-1.3-0.5c-0.3-0.3-0.5-0.7-0.5-1.1c0-0.6,0.2-1,0.6-1.3
	c0.4-0.3,1-0.5,1.8-0.5h0.7V6c0-0.3-0.1-0.5-0.2-0.7c-0.2-0.2-0.4-0.2-0.7-0.2c-0.3,0-0.5,0.1-0.7,0.2c-0.2,0.1-0.3,0.3-0.3,0.5
	h-1.2c0-0.3,0.1-0.6,0.3-0.8c0.2-0.3,0.5-0.5,0.8-0.6c0.3-0.1,0.7-0.2,1.1-0.2c0.6,0,1.1,0.2,1.5,0.5c0.4,0.3,0.6,0.7,0.6,1.3v2.4
	c0,0.5,0.1,0.9,0.2,1.1v0.1H680.9z M679.6,8.7c0.2,0,0.5-0.1,0.7-0.2c0.2-0.1,0.4-0.3,0.5-0.5v-1h-0.6c-0.4,0-0.8,0.1-1,0.2
	c-0.2,0.2-0.3,0.4-0.3,0.7c0,0.2,0.1,0.4,0.2,0.5C679.1,8.7,679.3,8.7,679.6,8.7z M684.3,4.3l0,0.6c0.4-0.5,0.9-0.7,1.5-0.7
	c1.1,0,1.7,0.6,1.7,1.9v3.5h-1.2V6.1c0-0.3-0.1-0.6-0.2-0.7c-0.1-0.2-0.4-0.2-0.7-0.2c-0.5,0-0.8,0.2-1.1,0.7v3.8h-1.2V4.3H684.3z
	 M694.2,8.1c0-0.2-0.1-0.4-0.3-0.5c-0.2-0.1-0.5-0.2-0.9-0.3c-0.4-0.1-0.7-0.2-1-0.3c-0.6-0.3-0.9-0.7-0.9-1.2
	c0-0.5,0.2-0.8,0.6-1.1c0.4-0.3,0.9-0.5,1.5-0.5c0.6,0,1.1,0.2,1.5,0.5c0.4,0.3,0.6,0.7,0.6,1.2h-1.2c0-0.2-0.1-0.4-0.3-0.6
	c-0.2-0.2-0.4-0.2-0.7-0.2c-0.3,0-0.5,0.1-0.6,0.2c-0.2,0.1-0.2,0.3-0.2,0.5c0,0.2,0.1,0.3,0.2,0.4c0.2,0.1,0.5,0.2,0.9,0.3
	c0.5,0.1,0.8,0.2,1.1,0.4c0.3,0.1,0.5,0.3,0.6,0.5c0.1,0.2,0.2,0.4,0.2,0.7c0,0.5-0.2,0.9-0.6,1.2c-0.4,0.3-0.9,0.4-1.6,0.4
	c-0.4,0-0.8-0.1-1.2-0.2c-0.3-0.2-0.6-0.4-0.8-0.6c-0.2-0.3-0.3-0.6-0.3-0.9h1.2c0,0.3,0.1,0.5,0.3,0.7c0.2,0.2,0.5,0.2,0.8,0.2
	c0.3,0,0.6-0.1,0.7-0.2C694.1,8.5,694.2,8.3,694.2,8.1z M698.7,9.7c-0.8,0-1.4-0.2-1.8-0.7c-0.5-0.5-0.7-1.1-0.7-1.9V6.9
	c0-0.5,0.1-1,0.3-1.4c0.2-0.4,0.5-0.7,0.9-1c0.4-0.2,0.8-0.3,1.2-0.3c0.7,0,1.3,0.2,1.7,0.7c0.4,0.5,0.6,1.1,0.6,2v0.5h-3.5
	c0,0.4,0.2,0.8,0.4,1c0.3,0.3,0.6,0.4,1,0.4c0.5,0,1-0.2,1.3-0.7l0.6,0.6c-0.2,0.3-0.5,0.6-0.9,0.7C699.6,9.6,699.2,9.7,698.7,9.7z
	 M698.6,5.1c-0.3,0-0.6,0.1-0.8,0.3c-0.2,0.2-0.3,0.5-0.4,1h2.3V6.3c0-0.4-0.1-0.7-0.3-0.9C699.2,5.2,698.9,5.1,698.6,5.1z
	 M702.9,4.3l0,0.6c0.4-0.5,0.9-0.7,1.5-0.7c1.1,0,1.7,0.6,1.7,1.9v3.5h-1.2V6.1c0-0.3-0.1-0.6-0.2-0.7c-0.1-0.2-0.4-0.2-0.7-0.2
	c-0.5,0-0.8,0.2-1.1,0.7v3.8h-1.2V4.3H702.9z M707.1,6.9c0-0.8,0.2-1.5,0.6-2c0.4-0.5,0.9-0.7,1.5-0.7c0.6,0,1,0.2,1.4,0.6V2.1h1.2
	v7.5h-1.1L710.6,9c-0.4,0.4-0.8,0.6-1.4,0.6c-0.6,0-1.1-0.2-1.5-0.7C707.3,8.4,707.1,7.7,707.1,6.9z M708.3,7c0,0.5,0.1,1,0.3,1.3
	c0.2,0.3,0.5,0.5,0.9,0.5c0.5,0,0.8-0.2,1.1-0.7V5.8c-0.2-0.4-0.6-0.6-1.1-0.6c-0.4,0-0.7,0.2-0.9,0.5C708.4,5.9,708.3,6.4,708.3,7z
	"/>
<path class="st1" d="M719.8,6.4h-2.9v2.2h3.4v1h-4.7V2.4h4.6v1h-3.4v2h2.9V6.4z M726.9,9.6h-1.2l-3.2-5.1v5.1h-1.2V2.4h1.2l3.2,5.1
	V2.4h1.2V9.6z M734,6.2c0,0.7-0.1,1.3-0.3,1.8c-0.2,0.5-0.5,0.9-0.9,1.2l1.2,1l-0.8,0.7l-1.5-1.2c-0.2,0-0.4,0.1-0.6,0.1
	c-0.6,0-1.1-0.1-1.5-0.4c-0.5-0.3-0.8-0.7-1-1.2c-0.2-0.5-0.4-1.1-0.4-1.8V5.8c0-0.7,0.1-1.3,0.4-1.8c0.2-0.5,0.6-0.9,1-1.2
	c0.4-0.3,1-0.4,1.5-0.4c0.6,0,1.1,0.1,1.5,0.4c0.5,0.3,0.8,0.7,1,1.2c0.2,0.5,0.4,1.1,0.4,1.8V6.2z M732.8,5.8
	c0-0.8-0.2-1.4-0.5-1.8c-0.3-0.4-0.7-0.6-1.3-0.6c-0.5,0-0.9,0.2-1.3,0.6c-0.3,0.4-0.5,1-0.5,1.8v0.4c0,0.8,0.2,1.4,0.5,1.8
	c0.3,0.4,0.7,0.7,1.3,0.7c0.5,0,1-0.2,1.3-0.6c0.3-0.4,0.4-1,0.4-1.8V5.8z"/>
<path class="st4" d="M51,192.5c28.2,0,51-22.9,51-51.1c0-28.2-22.8-51.1-51-51.1c-28.2,0-51,22.9-51,51.1
	C0,169.7,22.8,192.5,51,192.5z"/>
<path class="st1" d="M81.1,151.1v-18.6c3.1-0.7,5.4-3.5,5.4-6.8c0-3.9-3.2-7-7-7c-2.1,0-3.9,0.9-5.2,2.3l-15.8-9.1
	c0.2-0.7,0.3-1.4,0.3-2.1c0-3.9-3.2-7-7-7s-7,3.2-7,7c0,0.7,0.1,1.4,0.3,2.1l-15.8,9.1c-1.3-1.5-3.2-2.4-5.3-2.4c-3.9,0-7,3.2-7,7
	c0,3.4,2.4,6.2,5.5,6.9v2.3c0,0.8,0.7,1.5,1.5,1.5s1.5-0.7,1.5-1.5v-2.3c1.4-0.3,2.7-1.1,3.7-2.1L37,135c-1,2.1-1.5,4.4-1.5,6.8
	c0,2.4,0.5,4.7,1.5,6.8l-7.9,4.6c-1-1.1-2.2-1.8-3.7-2.1v-2.4c0-0.8-0.7-1.5-1.5-1.5s-1.5,0.7-1.5,1.5v2.4c-3.1,0.7-5.5,3.5-5.5,6.9
	c0,3.9,3.2,7,7,7c2.1,0,3.9-0.9,5.2-2.3l15.9,9.2c-0.2,0.7-0.3,1.4-0.3,2.1c0,3.9,3.2,7,7,7s7-3.2,7-7c0-0.7-0.1-1.4-0.3-2.1
	l15.8-9.1c1.3,1.4,3.1,2.3,5.2,2.3c3.9,0,7-3.2,7-7C86.5,154.6,84.2,151.8,81.1,151.1z M74.3,153.2l-7.8-4.5c1-2.1,1.5-4.4,1.5-6.8
	c0-2.4-0.5-4.8-1.5-6.8l7.9-4.6c1,1.1,2.3,1.8,3.7,2.1V151C76.5,151.3,75.2,152.1,74.3,153.2z M79.4,121.6c2.2,0,4,1.8,4,4
	c0,2.2-1.8,4-4,4c-2.2,0-4-1.8-4-4C75.5,123.4,77.2,121.6,79.4,121.6z M72.7,123.6c-0.2,0.6-0.3,1.3-0.3,2c0,0.7,0.1,1.5,0.3,2.1
	l-7.9,4.6c-2.7-3.7-6.9-6.2-11.6-6.7v-9.1c1.4-0.3,2.7-1.1,3.7-2.1L72.7,123.6z M51.7,105.7c2.2,0,4,1.8,4,4s-1.8,4-4,4
	c-2.2,0-4-1.8-4-4S49.5,105.7,51.7,105.7z M23.9,129.6c-2.2,0-4-1.8-4-4c0-2.2,1.8-4,4-4s4,1.8,4,4
	C27.9,127.8,26.1,129.6,23.9,129.6z M30.6,127.7c0.2-0.7,0.3-1.4,0.3-2.1c0-0.7-0.1-1.4-0.3-2l15.9-9.2c1,1,2.2,1.8,3.7,2.1v9.1
	c-4.8,0.4-9,3-11.6,6.7L30.6,127.7z M23.9,161.9c-2.2,0-4-1.8-4-4c0-2.2,1.8-4,4-4s4,1.8,4,4C27.9,160.1,26.1,161.9,23.9,161.9z
	 M30.6,160c0.2-0.7,0.3-1.3,0.3-2.1c0-0.7-0.1-1.4-0.3-2.1l7.9-4.6c2.7,3.7,6.9,6.2,11.6,6.7v9.1c-1.4,0.3-2.7,1.1-3.7,2.1L30.6,160
	z M51.7,177.9c-2.2,0-4-1.8-4-4c0-2.2,1.8-4,4-4c2.2,0,4,1.8,4,4C55.7,176.1,53.9,177.9,51.7,177.9z M56.9,169.2
	c-1-1-2.2-1.8-3.7-2.1V158c4.8-0.4,9-3,11.6-6.7l7.8,4.5c-0.2,0.7-0.3,1.4-0.3,2.1c0,0.7,0.1,1.5,0.3,2.1L56.9,169.2z M79.4,161.9
	c-2.2,0-4-1.8-4-4c0-2.2,1.8-4,4-4c2.2,0,4,1.8,4,4C83.4,160.1,81.6,161.9,79.4,161.9z"/>
<path class="st1" d="M23.8,143.4c0.4,0,0.8-0.2,1.1-0.4c0.3-0.3,0.4-0.7,0.4-1.1c0-0.4-0.2-0.8-0.4-1.1c-0.3-0.3-0.7-0.4-1.1-0.4
	s-0.8,0.2-1.1,0.4c-0.3,0.3-0.4,0.7-0.4,1.1c0,0.4,0.2,0.8,0.4,1.1C23,143.2,23.4,143.4,23.8,143.4z"/>
<path class="st5" d="M61.6,148.7c-0.2,0-0.3,0-0.5-0.1c-0.5-0.3-0.6-0.9-0.3-1.3c1.4-2.4,1.7-5.3,1-8c-0.7-2.7-2.4-5-4.8-6.4
	c-3.2-1.9-7.1-1.9-10.3,0c-0.5,0.3-1,0.1-1.3-0.4c-0.3-0.5-0.1-1.1,0.3-1.3c1.9-1.1,4-1.7,6.1-1.7c2.1,0,4.2,0.6,6.1,1.7
	c2.8,1.7,4.9,4.3,5.7,7.5c0.8,3.2,0.4,6.6-1.2,9.4C62.2,148.5,61.9,148.7,61.6,148.7z"/>
<path class="st5" d="M55.9,142.9h-8.1c-0.5,0-0.9-0.4-0.9-1c0-0.5,0.4-1,0.9-1h8.1c0.5,0,0.9,0.4,0.9,1
	C56.8,142.5,56.4,142.9,55.9,142.9z"/>
<path class="st5" d="M57.5,139.7H50c-0.5,0-0.9-0.4-0.9-1c0-0.5,0.4-1,0.9-1h7.5c0.5,0,0.9,0.4,0.9,1
	C58.4,139.3,58,139.7,57.5,139.7z"/>
<path class="st5" d="M50,139.7c-0.3,0-0.6-0.2-0.8-0.5l-3.8-6.7c-0.3-0.5-0.1-1.1,0.3-1.3c0.5-0.3,1-0.1,1.3,0.4l3.8,6.7
	c0.3,0.5,0.1,1-0.3,1.3C50.3,139.7,50.1,139.7,50,139.7z"/>
<path class="st5" d="M53.7,146.2h-7.5c-0.5,0-0.9-0.4-0.9-1c0-0.5,0.4-1,0.9-1h7.5c0.5,0,0.9,0.4,0.9,1
	C54.6,145.8,54.2,146.2,53.7,146.2z"/>
<path class="st5" d="M57.5,152.9c-0.3,0-0.6-0.2-0.8-0.5l-3.8-6.7c-0.3-0.5-0.1-1,0.3-1.3c0.5-0.3,1-0.1,1.3,0.4l3.8,6.7
	c0.3,0.5,0.1,1-0.3,1.3C57.8,152.8,57.6,152.9,57.5,152.9z"/>
<path class="st5" d="M51.8,154.4c-2.1,0-4.2-0.6-6.1-1.7c-2.8-1.7-4.9-4.3-5.7-7.5c-0.8-3.2-0.4-6.6,1.2-9.4
	c0.3-0.5,0.8-0.6,1.3-0.4c0.5,0.3,0.6,0.9,0.3,1.3c-1.4,2.4-1.7,5.3-1,8c0.7,2.7,2.4,5,4.8,6.4c3.2,1.9,7.1,1.9,10.3,0
	c0.5-0.3,1-0.1,1.3,0.4c0.3,0.5,0.1,1-0.3,1.3C56.1,153.9,53.9,154.4,51.8,154.4z"/>
<path class="st3" d="M1017.6,22.2h-1.3c1.4-1.3,2.2-3.1,2.4-5.2c1.3-0.3,2.3-1.4,2.3-2.8c0-1.4-1-2.5-2.3-2.8v-0.1
	c1.3,0,2.3-1,2.3-2.3c0-0.7-0.3-1.3-0.8-1.7c0.1-0.4,0.2-0.8,0.2-1.1c0-1.7-1.2-3.1-2.8-3.4c-0.7-0.8-1.8-1.2-2.8-1.2h-7.9
	c-1.1,0-2.1,0.4-2.8,1.2c-1.6,0.3-2.8,1.7-2.8,3.4c0,0.4,0.1,0.8,0.2,1.1c-0.5,0.4-0.8,1-0.8,1.7c0,1.3,1,2.3,2.3,2.3v0.1
	c-1.3,0.3-2.3,1.4-2.3,2.8c0,1.4,1,2.5,2.3,2.8c0.1,2,1,3.8,2.4,5.2h-1.3c-2.8,0-5.1,2.3-5.1,5.1v9.1c0,0.3,0.3,0.6,0.6,0.6h22.6
	c0.3,0,0.6-0.3,0.6-0.6v-9.1C1022.7,24.5,1020.4,22.2,1017.6,22.2z M1008,24c0.9,0.3,1.8,0.5,2.8,0.5c1,0,2-0.2,2.8-0.5v0.5
	c0,1.6-1.3,2.8-2.8,2.8c-1.5,0-2.8-1.3-2.8-2.8V24z M1019.9,14.3c0,0.7-0.5,1.4-1.1,1.6v-3.2C1019.4,12.9,1019.9,13.6,1019.9,14.3z
	 M1019.3,6.4c0,0.4-0.1,0.7-0.3,1.1c-0.1,0.1-0.1,0.3,0,0.4c0,0.1,0.1,0.3,0.3,0.3c0.4,0.2,0.6,0.6,0.6,1c0,0.6-0.5,1.1-1.1,1.1
	c-0.6,0-1.1-0.5-1.1-1.1c0-0.3-0.3-0.6-0.6-0.6c-1.3,0-2.3-1-2.3-2.3c0-1.3,1-2.3,2.3-2.3S1019.3,5.1,1019.3,6.4z M1001.8,9.2
	c0-0.4,0.2-0.8,0.6-1c0.1-0.1,0.2-0.2,0.3-0.3c0-0.1,0-0.3,0-0.4c-0.2-0.3-0.3-0.7-0.3-1.1c0-1.3,1-2.3,2.3-2.3c1.2,0,2.3,1,2.3,2.3
	c0,1.3-1,2.3-2.3,2.3c-0.3,0-0.6,0.3-0.6,0.6c0,0.6-0.5,1.1-1.1,1.1S1001.8,9.8,1001.8,9.2z M1005.1,9.7c1.6-0.2,2.9-1.7,2.9-3.4
	c0-1.5-0.9-2.7-2.2-3.2c0.3-0.1,0.7-0.2,1.1-0.2h7.9c0.4,0,0.7,0.1,1.1,0.2c-1.3,0.5-2.2,1.7-2.2,3.2c0,1.7,1.3,3.1,2.9,3.4
	c0.1,0.6,0.5,1.1,1.1,1.4v2.6h-0.6c-0.3-1.3-1.4-2.3-2.8-2.3c-1.4,0-2.5,1-2.8,2.3h-1.3c-0.3-1.3-1.4-2.3-2.8-2.3
	c-1.4,0-2.5,1-2.8,2.3h-0.6v-2.6C1004.6,10.8,1005,10.3,1005.1,9.7z M1015.9,14.3c0,0.9-0.8,1.7-1.7,1.7c-0.9,0-1.7-0.8-1.7-1.7
	c0-0.9,0.8-1.7,1.7-1.7C1015.2,12.6,1015.9,13.4,1015.9,14.3z M1009.2,14.3c0,0.9-0.8,1.7-1.7,1.7c-0.9,0-1.7-0.8-1.7-1.7
	c0-0.9,0.8-1.7,1.7-1.7C1008.4,12.6,1009.2,13.4,1009.2,14.3z M1001.8,14.3c0-0.7,0.5-1.4,1.1-1.6v3.2
	C1002.3,15.7,1001.8,15,1001.8,14.3z M1004.1,16.6v-1.7h0.6c0.3,1.3,1.4,2.3,2.8,2.3c1.4,0,2.5-1,2.8-2.3h1.3
	c0.3,1.3,1.4,2.3,2.8,2.3c1.4,0,2.5-1,2.8-2.3h0.6v1.7c0,3.7-3,6.8-6.8,6.8C1007.1,23.4,1004.1,20.3,1004.1,16.6z M1021.6,35.8h-2.8
	v-6.2h-1.1v6.2h-13.6v-6.2h-1.1v6.2h-2.8v-8.5c0-2.2,1.8-4,4-4h2.7c0,0,0,0,0,0c0,0,0,0,0.1,0v1.1c0,2.2,1.8,4,3.9,4
	c2.2,0,4-1.8,4-4v-1.1c0,0,0,0,0.1,0l0,0l0,0h2.7c2.2,0,4,1.8,4,4V35.8z M1010.3,15.4h1.1v2.3h-1.1V15.4z M1008.6,13.7h-2.3v1.1h2.3
	V13.7z M1013.1,13.7h2.3v1.1h-2.3V13.7z M1014.8,18.3c0,2.2-1.8,4-4,4c-2.2,0-3.9-1.8-3.9-4h1.1c0,1.6,1.3,2.8,2.8,2.8
	c1.6,0,2.8-1.3,2.8-2.8H1014.8z"/>
<path class="st6" d="M1042,282.4c7.9,0,14.3-6.4,14.3-14.4s-6.4-14.4-14.3-14.4s-14.3,6.4-14.3,14.4S1034.1,282.4,1042,282.4z"/>
<path class="st4" d="M1046.1,282.4c7.9,0,14.3-6.4,14.3-14.4s-6.4-14.4-14.3-14.4c-7.9,0-14.3,6.4-14.3,14.4
	S1038.2,282.4,1046.1,282.4z"/>
<path class="st7" d="M1046.1,276c4.4,0,8-3.6,8-8s-3.6-8-8-8s-8,3.6-8,8S1041.7,276,1046.1,276z"/>
<path class="st6" d="M1025.8,151.9c4,0,7.3-3.3,7.3-7.3c0-4-3.3-7.3-7.3-7.3c-4,0-7.3,3.3-7.3,7.3
	C1018.5,148.7,1021.8,151.9,1025.8,151.9z"/>
<path class="st4" d="M1027.9,151.9c4,0,7.3-3.3,7.3-7.3c0-4-3.3-7.3-7.3-7.3c-4,0-7.3,3.3-7.3,7.3
	C1020.6,148.7,1023.9,151.9,1027.9,151.9z"/>
<path class="st7" d="M1027.9,148.7c2.2,0,4-1.8,4-4.1c0-2.2-1.8-4.1-4-4.1c-2.2,0-4.1,1.8-4.1,4.1
	C1023.9,146.9,1025.7,148.7,1027.9,148.7z"/>
<path class="st6" d="M1043.8,36.5c7.9,0,14.3-6.4,14.3-14.4c0-7.9-6.4-14.4-14.3-14.4c-7.9,0-14.3,6.4-14.3,14.4
	C1029.5,30.1,1035.9,36.5,1043.8,36.5z"/>
<path class="st4" d="M1047.9,36.5c7.9,0,14.3-6.4,14.3-14.4c0-7.9-6.4-14.4-14.3-14.4c-7.9,0-14.3,6.4-14.3,14.4
	C1033.6,30.1,1040,36.5,1047.9,36.5z"/>
<path class="st7" d="M1047.9,30.1c4.4,0,8-3.6,8-8c0-4.4-3.6-8-8-8s-8,3.6-8,8C1039.9,26.5,1043.5,30.1,1047.9,30.1z"/>
<path class="st1" d="M1062.6,259.2c-0.2,0.1-0.3,0.3-0.3,0.5v5.4H1050c-0.3,0-0.5,0.2-0.5,0.5v7.9c0,0.3,0.2,0.5,0.5,0.5h12.3v5.4
	c0,0.2,0.1,0.4,0.3,0.5c0.2,0.1,0.4,0,0.5-0.1l9.8-9.8c0.1-0.1,0.1-0.2,0.1-0.3c0-0.1,0-0.3-0.1-0.3l-9.8-9.9
	C1063,259.2,1062.8,259.1,1062.6,259.2z"/>
<path class="st0" d="M1043.9,146.9c0-0.3-0.1-0.6-0.3-0.7s-0.6-0.3-1.2-0.5c-0.6-0.2-1-0.4-1.4-0.6c-0.7-0.4-1-0.9-1-1.6
	c0-0.6,0.2-1,0.7-1.4c0.5-0.4,1.1-0.6,1.8-0.6c0.5,0,0.9,0.1,1.3,0.3s0.7,0.4,0.9,0.8c0.2,0.3,0.3,0.7,0.3,1.1h-1.2
	c0-0.4-0.1-0.7-0.4-0.9c-0.2-0.2-0.6-0.3-1-0.3c-0.4,0-0.7,0.1-0.9,0.3c-0.2,0.2-0.3,0.4-0.3,0.7c0,0.3,0.1,0.5,0.4,0.7
	c0.2,0.2,0.6,0.3,1.2,0.5c0.6,0.2,1,0.4,1.3,0.6c0.3,0.2,0.6,0.5,0.7,0.7c0.2,0.3,0.2,0.6,0.2,1c0,0.6-0.2,1.1-0.7,1.4
	c-0.5,0.3-1.1,0.5-1.8,0.5c-0.5,0-1-0.1-1.4-0.3c-0.4-0.2-0.8-0.5-1-0.8c-0.2-0.3-0.4-0.7-0.4-1.2h1.2c0,0.4,0.1,0.7,0.4,0.9
	s0.7,0.3,1.2,0.3c0.4,0,0.8-0.1,1-0.3C1043.8,147.4,1043.9,147.2,1043.9,146.9z M1048.5,148.8c-0.8,0-1.4-0.2-1.8-0.7
	c-0.5-0.5-0.7-1.1-0.7-1.9v-0.1c0-0.5,0.1-1,0.3-1.4c0.2-0.4,0.5-0.7,0.9-1c0.4-0.2,0.8-0.3,1.2-0.3c0.7,0,1.3,0.2,1.7,0.7
	s0.6,1.1,0.6,2v0.5h-3.4c0,0.4,0.2,0.8,0.4,1c0.3,0.3,0.6,0.4,1,0.4c0.5,0,1-0.2,1.3-0.7l0.6,0.6c-0.2,0.3-0.5,0.6-0.8,0.7
	C1049.3,148.7,1048.9,148.8,1048.5,148.8z M1048.3,144.3c-0.3,0-0.6,0.1-0.8,0.3c-0.2,0.2-0.3,0.5-0.4,1h2.3v-0.1
	c0-0.4-0.1-0.7-0.3-0.9C1048.9,144.4,1048.7,144.3,1048.3,144.3z M1052.6,143.4l0,0.6c0.4-0.5,0.9-0.7,1.5-0.7
	c1.1,0,1.7,0.6,1.7,1.9v3.5h-1.2v-3.4c0-0.3-0.1-0.6-0.2-0.7c-0.1-0.2-0.4-0.2-0.7-0.2c-0.5,0-0.8,0.2-1.1,0.7v3.8h-1.2v-5.3H1052.6
	z M1056.9,146c0-0.8,0.2-1.5,0.6-2c0.4-0.5,0.9-0.7,1.5-0.7c0.6,0,1,0.2,1.4,0.6v-2.7h1.2v7.5h-1.1l-0.1-0.5
	c-0.3,0.4-0.8,0.6-1.4,0.6c-0.6,0-1.1-0.3-1.5-0.8C1057.1,147.6,1056.9,146.9,1056.9,146z M1058.1,146.1c0,0.5,0.1,1,0.3,1.3
	c0.2,0.3,0.5,0.5,0.9,0.5c0.5,0,0.8-0.2,1.1-0.7v-2.3c-0.2-0.4-0.6-0.6-1.1-0.6c-0.4,0-0.7,0.2-0.9,0.5
	C1058.2,145.1,1058.1,145.5,1058.1,146.1z M1068.4,148.7h-1.2V143l-1.8,0.6v-1l2.8-1h0.2V148.7z M1075.5,145.7c0,1-0.2,1.8-0.6,2.3
	c-0.4,0.5-1,0.8-1.8,0.8c-0.8,0-1.4-0.3-1.7-0.8c-0.4-0.5-0.6-1.3-0.6-2.3v-1.2c0-1,0.2-1.8,0.6-2.3c0.4-0.5,1-0.8,1.8-0.8
	c0.8,0,1.4,0.2,1.7,0.7c0.4,0.5,0.6,1.2,0.6,2.2V145.7z M1074.3,144.4c0-0.7-0.1-1.2-0.3-1.5c-0.2-0.3-0.5-0.5-0.9-0.5
	c-0.4,0-0.7,0.1-0.9,0.4c-0.2,0.3-0.3,0.8-0.3,1.4v1.6c0,0.7,0.1,1.2,0.3,1.5c0.2,0.3,0.5,0.5,0.9,0.5c0.4,0,0.7-0.2,0.8-0.5
	c0.2-0.3,0.3-0.8,0.3-1.4V144.4z M1101.3,142.1v1.3h0.9v0.9h-0.9v3c0,0.2,0,0.4,0.1,0.4c0.1,0.1,0.2,0.1,0.4,0.1
	c0.1,0,0.3,0,0.4-0.1v0.9c-0.3,0.1-0.5,0.1-0.8,0.1c-0.9,0-1.4-0.5-1.4-1.5v-3h-0.9v-0.9h0.9v-1.3H1101.3z M1102.8,146
	c0-0.5,0.1-1,0.3-1.4c0.2-0.4,0.5-0.7,0.9-1c0.4-0.2,0.8-0.3,1.3-0.3c0.7,0,1.3,0.2,1.7,0.7c0.4,0.5,0.7,1.1,0.7,1.8v0.3
	c0,0.5-0.1,1-0.3,1.4c-0.2,0.4-0.5,0.7-0.9,1c-0.4,0.2-0.8,0.3-1.3,0.3c-0.8,0-1.3-0.2-1.8-0.7C1103,147.6,1102.8,146.9,1102.8,146
	L1102.8,146z M1104,146.1c0,0.5,0.1,1,0.3,1.3c0.2,0.3,0.5,0.5,0.9,0.5s0.7-0.2,0.9-0.5c0.2-0.3,0.3-0.8,0.3-1.4
	c0-0.5-0.1-1-0.3-1.3c-0.2-0.3-0.5-0.5-0.9-0.5c-0.4,0-0.7,0.2-0.9,0.5C1104.1,145.1,1104,145.5,1104,146.1z M1111.3,148.7v-7.1h2.4
	c0.8,0,1.4,0.2,1.8,0.5c0.4,0.3,0.6,0.8,0.6,1.4c0,0.3-0.1,0.6-0.3,0.9c-0.2,0.3-0.4,0.5-0.8,0.6c0.4,0.1,0.7,0.3,0.9,0.6
	c0.2,0.3,0.3,0.6,0.3,1c0,0.7-0.2,1.2-0.6,1.5c-0.4,0.4-1.1,0.5-1.8,0.5H1111.3z M1112.6,145.5v2.2h1.4c0.4,0,0.7-0.1,0.9-0.3
	c0.2-0.2,0.3-0.5,0.3-0.8c0-0.7-0.4-1.1-1.1-1.1H1112.6z M1112.6,144.6h1.2c0.4,0,0.7-0.1,0.9-0.3c0.2-0.2,0.3-0.4,0.3-0.7
	c0-0.4-0.1-0.6-0.3-0.8c-0.2-0.2-0.5-0.2-0.9-0.2h-1.2V144.6z M1117.3,146c0-0.5,0.1-1,0.3-1.4c0.2-0.4,0.5-0.7,0.9-1
	c0.4-0.2,0.8-0.3,1.3-0.3c0.7,0,1.3,0.2,1.7,0.7c0.5,0.5,0.7,1.1,0.7,1.8l0,0.3c0,0.5-0.1,1-0.3,1.4c-0.2,0.4-0.5,0.7-0.9,1
	c-0.4,0.2-0.8,0.3-1.3,0.3c-0.8,0-1.3-0.2-1.8-0.7C1117.5,147.6,1117.3,146.9,1117.3,146L1117.3,146z M1118.5,146.1
	c0,0.5,0.1,1,0.3,1.3c0.2,0.3,0.5,0.5,0.9,0.5c0.4,0,0.7-0.2,0.9-0.5c0.2-0.3,0.3-0.8,0.3-1.4c0-0.5-0.1-1-0.3-1.3
	c-0.2-0.3-0.5-0.5-0.9-0.5c-0.4,0-0.7,0.2-0.9,0.5C1118.6,145.1,1118.5,145.5,1118.5,146.1z M1127.8,146.1c0,0.8-0.2,1.5-0.5,2
	c-0.4,0.5-0.9,0.7-1.5,0.7c-0.6,0-1.1-0.2-1.5-0.7l-0.1,0.6h-1.1v-7.5h1.2v2.7c0.3-0.4,0.8-0.6,1.4-0.6c0.7,0,1.2,0.2,1.5,0.7
	C1127.7,144.5,1127.8,145.2,1127.8,146.1L1127.8,146.1z M1126.7,146c0-0.6-0.1-1-0.3-1.3c-0.2-0.3-0.5-0.4-0.9-0.4
	c-0.5,0-0.9,0.2-1.1,0.7v2.2c0.2,0.5,0.6,0.7,1.1,0.7c0.4,0,0.7-0.1,0.9-0.4c0.2-0.3,0.3-0.7,0.3-1.3V146z"/>
<path class="st1" d="M1084.7,146.4c-0.1,0.8-0.4,1.4-0.8,1.8c-0.5,0.4-1.1,0.6-1.9,0.6c-0.6,0-1.1-0.1-1.5-0.4
	c-0.4-0.3-0.8-0.7-1-1.2c-0.2-0.5-0.4-1.1-0.4-1.7v-0.7c0-0.7,0.1-1.3,0.4-1.8s0.6-0.9,1-1.2c0.4-0.3,1-0.4,1.5-0.4
	c0.8,0,1.4,0.2,1.9,0.6c0.5,0.4,0.8,1,0.8,1.8h-1.2c-0.1-0.5-0.2-0.9-0.5-1.1c-0.2-0.2-0.6-0.3-1.1-0.3c-0.5,0-1,0.2-1.2,0.6
	c-0.3,0.4-0.4,1-0.4,1.7v0.6c0,0.8,0.1,1.4,0.4,1.8c0.3,0.4,0.7,0.6,1.2,0.6c0.5,0,0.8-0.1,1.1-0.3c0.3-0.2,0.4-0.6,0.5-1.1H1084.7z
	 M1088.4,146h-1.4v2.8h-1.2v-7.1h2.5c0.8,0,1.5,0.2,1.9,0.6c0.4,0.4,0.7,0.9,0.7,1.6c0,0.5-0.1,0.9-0.4,1.2
	c-0.2,0.3-0.5,0.6-0.9,0.7l1.6,3v0.1h-1.3L1088.4,146z M1087,145h1.3c0.4,0,0.7-0.1,1-0.3c0.2-0.2,0.4-0.5,0.4-0.9
	c0-0.4-0.1-0.7-0.3-0.9c-0.2-0.2-0.5-0.3-1-0.3h-1.3V145z M1093.3,147.7h3.2v1h-4.5v-7.1h1.2V147.7z"/>
<path class="st0" d="M1085,15.5V6.8h3c1,0,1.7,0.2,2.3,0.6c0.5,0.4,0.8,1,0.8,1.8c0,0.4-0.1,0.8-0.3,1.1c-0.2,0.3-0.5,0.6-1,0.7
	c0.5,0.1,0.8,0.4,1.1,0.7c0.3,0.4,0.4,0.8,0.4,1.3c0,0.8-0.3,1.5-0.8,1.9c-0.5,0.4-1.3,0.7-2.3,0.7H1085z M1086.5,11.6v2.7h1.7
	c0.5,0,0.8-0.1,1.1-0.4c0.3-0.2,0.4-0.6,0.4-1c0-0.9-0.5-1.4-1.4-1.4H1086.5z M1086.5,10.4h1.5c0.5,0,0.8-0.1,1.1-0.3
	c0.3-0.2,0.4-0.5,0.4-0.9c0-0.4-0.1-0.7-0.4-0.9c-0.3-0.2-0.6-0.3-1.2-0.3h-1.5V10.4z M1092.3,12.2c0-0.6,0.1-1.2,0.4-1.7
	c0.3-0.5,0.6-0.9,1.1-1.2c0.4-0.3,1-0.4,1.6-0.4c0.9,0,1.6,0.3,2.1,0.8c0.6,0.6,0.8,1.3,0.9,2.2v0.3c0,0.6-0.1,1.2-0.4,1.7
	c-0.2,0.5-0.6,0.9-1,1.2c-0.5,0.3-1,0.4-1.6,0.4c-0.9,0-1.7-0.3-2.2-0.9C1092.6,14.1,1092.3,13.3,1092.3,12.2L1092.3,12.2z
	 M1093.8,12.3c0,0.7,0.1,1.2,0.4,1.6c0.3,0.4,0.7,0.6,1.2,0.6s0.9-0.2,1.2-0.6c0.3-0.4,0.4-0.9,0.4-1.7c0-0.7-0.1-1.2-0.4-1.6
	c-0.3-0.4-0.7-0.6-1.1-0.6c-0.5,0-0.8,0.2-1.1,0.6C1093.9,11,1093.8,11.6,1093.8,12.3z M1105.3,12.3c0,1-0.2,1.8-0.7,2.4
	c-0.4,0.6-1.1,0.9-1.8,0.9c-0.8,0-1.3-0.3-1.8-0.8l-0.1,0.7h-1.3V6.3h1.5v3.4c0.4-0.5,1-0.7,1.7-0.7c0.8,0,1.4,0.3,1.9,0.9
	C1105.1,10.4,1105.3,11.2,1105.3,12.3L1105.3,12.3z M1103.8,12.2c0-0.7-0.1-1.2-0.4-1.6c-0.2-0.4-0.6-0.5-1.1-0.5
	c-0.6,0-1.1,0.3-1.3,0.8v2.7c0.3,0.6,0.7,0.8,1.3,0.8c0.4,0,0.8-0.2,1-0.5c0.3-0.3,0.4-0.9,0.4-1.5V12.2z M1113,10.3
	c-0.2,0-0.4,0-0.6,0c-0.7,0-1.1,0.3-1.4,0.8v4.5h-1.5V9h1.4l0,0.7c0.3-0.6,0.8-0.8,1.5-0.8c0.2,0,0.4,0,0.5,0.1L1113,10.3z
	 M1116.6,15.6c-0.9,0-1.7-0.3-2.3-0.9c-0.6-0.6-0.9-1.4-0.9-2.3v-0.2c0-0.6,0.1-1.2,0.4-1.7c0.3-0.5,0.6-0.9,1.1-1.2
	c0.5-0.3,1-0.4,1.5-0.4c0.9,0,1.6,0.3,2.1,0.8c0.5,0.6,0.7,1.4,0.7,2.4v0.6h-4.3c0,0.5,0.2,1,0.5,1.3c0.3,0.3,0.7,0.5,1.2,0.5
	c0.7,0,1.2-0.3,1.6-0.8l0.8,0.8c-0.3,0.4-0.6,0.7-1,0.9C1117.7,15.5,1117.2,15.6,1116.6,15.6z M1116.4,10.1c-0.4,0-0.7,0.1-1,0.4
	c-0.3,0.3-0.4,0.7-0.5,1.2h2.8v-0.1c0-0.5-0.2-0.9-0.4-1.1C1117.2,10.2,1116.9,10.1,1116.4,10.1z M1123,14.5c0.4,0,0.7-0.1,0.9-0.3
	c0.2-0.2,0.4-0.5,0.4-0.8h1.4c0,0.4-0.1,0.8-0.4,1.1c-0.2,0.3-0.5,0.6-1,0.8c-0.4,0.2-0.8,0.3-1.3,0.3c-0.9,0-1.6-0.3-2.2-0.9
	c-0.5-0.6-0.8-1.4-0.8-2.4v-0.2c0-1,0.3-1.8,0.8-2.4c0.5-0.6,1.3-0.9,2.2-0.9c0.8,0,1.4,0.2,1.9,0.7c0.5,0.4,0.8,1,0.8,1.8h-1.4
	c0-0.4-0.1-0.7-0.4-0.9c-0.2-0.2-0.5-0.4-0.9-0.4c-0.5,0-0.8,0.2-1.1,0.5c-0.3,0.3-0.4,0.9-0.4,1.6v0.2c0,0.7,0.1,1.2,0.4,1.6
	C1122.2,14.3,1122.6,14.5,1123,14.5z M1129.7,15.6c-0.9,0-1.7-0.3-2.3-0.9c-0.6-0.6-0.9-1.4-0.9-2.3v-0.2c0-0.6,0.1-1.2,0.4-1.7
	c0.3-0.5,0.6-0.9,1-1.2c0.5-0.3,1-0.4,1.5-0.4c0.9,0,1.6,0.3,2.1,0.8c0.5,0.6,0.7,1.4,0.7,2.4v0.6h-4.3c0,0.5,0.2,1,0.5,1.3
	c0.3,0.3,0.7,0.5,1.2,0.5c0.7,0,1.2-0.3,1.6-0.8l0.8,0.8c-0.3,0.4-0.6,0.7-1.1,0.9C1130.7,15.5,1130.2,15.6,1129.7,15.6z
	 M1129.5,10.1c-0.4,0-0.7,0.1-1,0.4c-0.3,0.3-0.4,0.7-0.5,1.2h2.8v-0.1c0-0.5-0.2-0.9-0.4-1.1C1130.2,10.2,1129.9,10.1,1129.5,10.1z
	 M1135,15.5h-1.5V9h1.5V15.5z M1133.4,7.3c0-0.2,0.1-0.4,0.2-0.6c0.1-0.1,0.3-0.2,0.6-0.2c0.3,0,0.5,0.1,0.6,0.2
	c0.1,0.1,0.2,0.3,0.2,0.6c0,0.2-0.1,0.4-0.2,0.6c-0.1,0.1-0.3,0.2-0.6,0.2c-0.3,0-0.5-0.1-0.6-0.2C1133.5,7.7,1133.4,7.5,1133.4,7.3
	z M1138.8,13.7l1.4-4.7h1.5l-2.3,6.5h-1.3l-2.3-6.5h1.5L1138.8,13.7z M1145.4,15.6c-0.9,0-1.7-0.3-2.2-0.9c-0.6-0.6-0.9-1.4-0.9-2.3
	v-0.2c0-0.6,0.1-1.2,0.4-1.7c0.3-0.5,0.6-0.9,1.1-1.2c0.5-0.3,1-0.4,1.5-0.4c0.9,0,1.6,0.3,2,0.8c0.5,0.6,0.7,1.4,0.7,2.4v0.6h-4.2
	c0,0.5,0.2,1,0.5,1.3c0.3,0.3,0.7,0.5,1.2,0.5c0.7,0,1.2-0.3,1.6-0.8l0.8,0.8c-0.3,0.4-0.6,0.7-1,0.9
	C1146.4,15.5,1145.9,15.6,1145.4,15.6z M1145.2,10.1c-0.4,0-0.7,0.1-1,0.4c-0.2,0.3-0.4,0.7-0.5,1.2h2.8v-0.1c0-0.5-0.2-0.9-0.4-1.1
	C1145.9,10.2,1145.6,10.1,1145.2,10.1z M1088.7,30.1h-1.4v-7l-2.1,0.7v-1.2l3.4-1.3h0.2V30.1z M1097.4,26.4c0,1.3-0.2,2.2-0.7,2.9
	c-0.5,0.6-1.2,1-2.2,1c-0.9,0-1.6-0.3-2.1-0.9c-0.5-0.6-0.7-1.5-0.7-2.8V25c0-1.3,0.2-2.2,0.7-2.8c0.5-0.6,1.2-0.9,2.2-0.9
	c1,0,1.7,0.3,2.1,0.9c0.5,0.6,0.7,1.5,0.7,2.8V26.4z M1096,24.8c0-0.8-0.1-1.4-0.3-1.8c-0.2-0.4-0.6-0.6-1.1-0.6
	c-0.5,0-0.8,0.2-1.1,0.5c-0.2,0.4-0.3,0.9-0.3,1.7v2c0,0.8,0.1,1.4,0.3,1.8c0.2,0.4,0.6,0.6,1.1,0.6c0.5,0,0.8-0.2,1-0.6
	c0.2-0.4,0.3-1,0.4-1.7V24.8z"/>
<path class="st1" d="M1108.7,27.3c-0.1,0.9-0.4,1.7-1,2.2c-0.6,0.5-1.4,0.8-2.4,0.8c-0.7,0-1.3-0.2-1.8-0.5
	c-0.5-0.3-0.9-0.8-1.2-1.4c-0.3-0.6-0.4-1.3-0.5-2.1v-0.8c0-0.8,0.2-1.6,0.4-2.2c0.3-0.6,0.7-1.1,1.3-1.5c0.5-0.3,1.2-0.5,1.9-0.5
	c1,0,1.7,0.3,2.3,0.8c0.6,0.5,0.9,1.3,1,2.2h-1.5c-0.1-0.6-0.3-1.1-0.6-1.4c-0.3-0.3-0.7-0.4-1.3-0.4c-0.7,0-1.2,0.2-1.5,0.7
	c-0.4,0.5-0.5,1.2-0.5,2.1v0.8c0,0.9,0.2,1.7,0.5,2.2c0.3,0.5,0.8,0.7,1.5,0.7c0.6,0,1-0.1,1.3-0.4c0.3-0.3,0.5-0.7,0.6-1.3H1108.7z
	 M1113.3,26.7h-1.7v3.4h-1.5v-8.8h3.1c1,0,1.8,0.2,2.3,0.7c0.6,0.5,0.8,1.1,0.8,2c0,0.6-0.1,1.1-0.4,1.5c-0.3,0.4-0.7,0.7-1.2,0.9
	l2,3.7v0.1h-1.6L1113.3,26.7z M1111.6,25.5h1.6c0.5,0,0.9-0.1,1.2-0.4c0.3-0.3,0.4-0.6,0.4-1.1c0-0.5-0.1-0.8-0.4-1.1
	c-0.3-0.3-0.7-0.4-1.2-0.4h-1.6V25.5z M1119.2,28.9h4v1.2h-5.5v-8.8h1.5V28.9z"/>
<path class="st1" d="M1059.8,13.3c0.2,0.1,0.3,0.3,0.3,0.5v5.4h12.3c0.3,0,0.5,0.2,0.5,0.5v7.9c0,0.3-0.2,0.5-0.5,0.5h-12.3v5.4
	c0,0.2-0.1,0.4-0.3,0.5c-0.2,0.1-0.4,0-0.5-0.1l-9.8-9.8c-0.1-0.1-0.2-0.2-0.2-0.3c0-0.1,0.1-0.3,0.2-0.3l9.8-9.9
	C1059.4,13.2,1059.7,13.2,1059.8,13.3z"/>
<path class="st3" d="M1019.5,264.7c0-1.2-0.9-2.2-2.1-2.3l-0.1-1.4c-0.2-2-1.1-3.9-2.6-5.2c-0.4-0.4-0.8-0.7-1.3-0.9
	c0-0.2,0-0.4,0-0.6c0-2.3-1.9-4.2-4.2-4.2c-2,0-3.7,1.4-4.1,3.4c-0.1,0.3,0.1,0.6,0.4,0.7c0.3,0.1,0.6-0.1,0.7-0.4
	c0.3-1.4,1.6-2.5,3-2.5c1.7,0,3.1,1.4,3.1,3.1c0,0,0,0,0,0v0v0c-1-0.4-2-0.6-3.1-0.6c-2,0-4,0.7-5.4,2.1c-1.5,1.4-2.4,3.2-2.6,5.2
	l-0.1,1.4c-1.2,0.1-2.1,1.1-2.1,2.3c0,1.1,0.7,2,1.7,2.2c-0.1,2.1,0.9,4.2,2.6,5.4l0.5,0.4c-2.2,0.8-3.7,3-3.7,5.4v1.8
	c0,0.3,0.3,0.6,0.6,0.6c0.3,0,0.6-0.3,0.6-0.6v-1.8c0-2.2,1.6-4.1,3.7-4.5l1.5,1.1c0.9,0.6,1.9,0.9,2.9,0.9c1,0,2-0.3,2.9-0.9
	l3.1-2.3c1.7-1.2,2.7-3.3,2.6-5.4C1018.8,266.7,1019.5,265.8,1019.5,264.7z M1000.8,265.8c-0.4-0.2-0.6-0.6-0.6-1.1
	c0-0.5,0.3-1,0.8-1.1L1000.8,265.8z M1004.6,256.6c1.3-1.2,2.9-1.8,4.7-1.8c1.7,0,3.4,0.6,4.7,1.8c1.3,1.2,2.1,2.8,2.2,4.5l0,0.3
	c-2.8-0.4-4.4-3.4-4.5-3.5c-0.1-0.2-0.3-0.3-0.5-0.3c-0.2,0-0.4,0.1-0.5,0.3c0,0-1.8,3.3-8.3,2.7
	C1002.7,259,1003.4,257.7,1004.6,256.6z M1002.3,261.7c5.3,0.5,7.9-1.4,8.9-2.5c0.8,1.1,2.5,3.1,5.1,3.4l0.1,1.4l-1.4,1.2
	c-0.4-1-1.4-1.6-2.5-1.6c-1.3,0-2.4,0.9-2.6,2.1h-1.3c-0.3-1.2-1.3-2.1-2.6-2.1c-1.1,0-2.1,0.7-2.5,1.6l-1.4-1.2L1002.3,261.7z
	 M1014.1,266.2c0,0.9-0.7,1.6-1.6,1.6c-0.8,0-1.5-0.7-1.5-1.6c0-0.9,0.7-1.6,1.5-1.6C1013.4,264.6,1014.1,265.3,1014.1,266.2z
	 M1007.5,266.2c0,0.9-0.7,1.6-1.6,1.6c-0.9,0-1.6-0.7-1.6-1.6c0-0.9,0.7-1.6,1.6-1.6C1006.8,264.6,1007.5,265.3,1007.5,266.2z
	 M1014.6,271.4l-3.1,2.3c-1.3,1-3.1,1-4.5,0l-3.1-2.3c-1.5-1.1-2.3-2.9-2.1-4.7l0.1-1.4l1.4,1.2c0.1,1.4,1.3,2.4,2.7,2.4
	c1.3,0,2.4-0.9,2.6-2.1h0.9v1.4h-0.6c-0.3,0-0.6,0.3-0.6,0.6c0,0.3,0.3,0.6,0.6,0.6h1.1c0.3,0,0.6-0.3,0.6-0.6v-0.7
	c0.5,0.5,1.2,0.8,1.9,0.8c1.4,0,2.6-1.1,2.7-2.4l1.4-1.2l0.1,1.4C1016.9,268.6,1016.1,270.4,1014.6,271.4z M1017.8,265.8l-0.2-2.2
	c0.5,0.2,0.8,0.6,0.8,1.1C1018.4,265.2,1018.1,265.6,1017.8,265.8z M1014.7,273.3c0.2-0.3,0.5-0.4,0.8-0.2c1.9,1,3,3,3,5.1v6.9
	c0,0.3-0.3,0.6-0.6,0.6h-17.3c-0.3,0-0.6-0.3-0.6-0.6v-3.1c0-0.3,0.3-0.6,0.6-0.6c0.3,0,0.6,0.3,0.6,0.6v2.5h2.3v-6.2
	c0-0.3,0.3-0.6,0.6-0.6s0.6,0.3,0.6,0.6v6.2h9.3v-6.2c0-0.3,0.3-0.6,0.6-0.6s0.6,0.3,0.6,0.6v6.2h2.3v-6.3c0-1.7-0.9-3.3-2.4-4.1
	C1014.7,273.9,1014.5,273.5,1014.7,273.3z M1012,275.6c0-0.3,0.3-0.6,0.6-0.6s0.6,0.3,0.6,0.6c0,2.2-1.8,3.9-3.9,3.9
	c-2.2,0-3.9-1.8-3.9-3.9c0-0.3,0.3-0.6,0.6-0.6c0.3,0,0.6,0.3,0.6,0.6c0,1.5,1.3,2.8,2.8,2.8C1010.8,278.4,1012,277.1,1012,275.6z
	 M1010.4,270.2c0.2-0.2,0.6-0.2,0.8,0c0.2,0.2,0.2,0.6,0,0.8c-0.5,0.5-1.2,0.8-1.9,0.8c-0.7,0-1.4-0.3-1.9-0.8
	c-0.2-0.2-0.2-0.6,0-0.8c0.2-0.2,0.6-0.2,0.8,0c0.3,0.3,0.7,0.5,1.1,0.5C1009.7,270.7,1010.1,270.5,1010.4,270.2z M1013,265.3h-0.9
	c-0.3,0-0.6,0.3-0.6,0.6c0,0.3,0.3,0.6,0.6,0.6h0.9c0.3,0,0.6-0.3,0.6-0.6C1013.6,265.5,1013.3,265.3,1013,265.3z M1005.5,265.3h0.9
	c0.3,0,0.6,0.3,0.6,0.6c0,0.3-0.3,0.6-0.6,0.6h-0.9c-0.3,0-0.6-0.3-0.6-0.6C1004.9,265.5,1005.2,265.3,1005.5,265.3z"/>
<path class="st1" d="M656.7,118.6H614c-1.5,0-2.7,1.2-2.7,2.7v38.8c0,1.5,1.2,2.7,2.7,2.7h42.8c1.5,0,2.7-1.2,2.7-2.7v-38.8
	C659.5,119.9,658.2,118.6,656.7,118.6z"/>
<path class="st8" d="M654.9,112.9h-77.8c-8.9,0-16.2,7.3-16.2,16.2v24.6c0,8.9,7.2,16.2,16.2,16.2h77.8c8.9,0,16.2-7.3,16.2-16.2
	v-24.6C671.1,120.2,663.8,112.9,654.9,112.9z"/>
<path class="st3" d="M577.5,131.1c0-4.8,3.9-8.8,8.8-8.8c4.8,0,8.8,3.9,8.8,8.8v1.4c0.4,0.4,0.6,1,0.6,1.5c0,0.6-0.2,1.1-0.6,1.5
	c0.1,1.3,0.6,2.5,1.4,3.6c1.7,2.2,2.1,5,1.1,7.6c1,1,1.6,2.3,1.6,3.8v7H598v-7c0-2.1-1.5-3.8-3.6-4.1l-2.3-0.3v11.3H591v-11.1
	l-4.2,7.3c-0.1,0.2-0.3,0.3-0.5,0.3c-0.2,0-0.4-0.1-0.5-0.3l-4.2-7.3v11.1h-1.2v-11.3l-2.3,0.3c-2,0.3-3.6,2-3.6,4.1v7h-1.2v-7
	c0-1.5,0.6-2.8,1.6-3.8c-0.9-2.4-0.6-5.2,0.9-7.3l0.4-0.5c0.8-1,1.2-2.2,1.2-3.5V131.1z M589.9,145.8c-0.8-0.2-1.3-0.9-1.3-1.7v-1.7
	c-0.7,0.3-1.6,0.4-2.4,0.4c-0.8,0-1.6-0.1-2.3-0.4v1.7c0,0.8-0.5,1.5-1.3,1.7l3.6,6.4L589.9,145.8z M589.8,141.8v2.3
	c0,0.3,0.2,0.6,0.5,0.6l4.2,0.5c0.7,0.1,1.4,0.3,2,0.7c0.7-2.1,0.3-4.3-1.1-6.1c-0.8-1-1.3-2.3-1.5-3.6c-0.2,0.1-0.4,0.1-0.7,0.1
	h-0.2C592.9,138.6,591.7,140.6,589.8,141.8z M579.4,136.4c0.2,2.3,1.5,4.3,3.4,5.4v2.3c0,0.3-0.2,0.5-0.5,0.6l-4.2,0.5
	c-0.7,0.1-1.4,0.3-2,0.7c-0.6-2-0.3-4.2,0.9-5.9l0.4-0.5c0.9-1.2,1.4-2.7,1.4-4.2v-4.3c0-4.2,3.4-7.6,7.6-7.6s7.6,3.4,7.6,7.6v0.7
	c-0.2,0-0.4-0.1-0.6-0.1h-0.4c-2.1-1.7-3.8-4.9-3.8-4.9c-0.1-0.2-0.3-0.3-0.5-0.3c-0.2,0-0.4,0.1-0.5,0.2c-2.8,3.9-8.5,7.4-8.6,7.4
	c-0.2,0.1-0.3,0.3-0.3,0.5L579.4,136.4z M593.3,132.8l-0.1,2.3h0.2c0.6,0,1.2-0.5,1.2-1.2S594,132.8,593.3,132.8L593.3,132.8z
	 M591.9,136.3c-0.2,3-2.7,5.3-5.7,5.3c-2.9,0-5.4-2.3-5.7-5.2l-0.1-1.5c0.3-0.2,0.7-0.5,1.3-0.9c0.2,0.3,0.6,0.6,1,0.6
	c0.6,0,1.2-0.5,1.2-1.2c0-0.3-0.1-0.6-0.3-0.8c1.6-1.2,3.5-2.8,4.9-4.6c0.6,1.1,1.9,3.1,3.6,4.5L591.9,136.3z M589.8,134.6
	c0.6,0,1.2-0.5,1.2-1.2c0-0.6-0.5-1.2-1.2-1.2c-0.6,0-1.2,0.5-1.2,1.2C588.6,134,589.2,134.6,589.8,134.6z M586.8,134.2l-0.7,1.5
	h0.8v1.2h-1.8c-0.2,0-0.4-0.1-0.5-0.3c-0.1-0.2-0.1-0.4,0-0.6l1.2-2.3L586.8,134.2z M587.8,137.6c-0.7,0.3-1.4,0.5-2.2,0.5h0h-0.4
	v1.2h0.4h0c0.9,0,1.9-0.2,2.7-0.6L587.8,137.6z"/>
<path class="st9" d="M651.7,151.5h-33.2c-2,0-3.6,1.6-3.6,3.6s1.6,3.6,3.6,3.6h33.2c2,0,3.6-1.6,3.6-3.6S653.7,151.5,651.7,151.5z"
	/>
<path class="st6" d="M633.3,155.6c7.9,0,14.3-6.4,14.3-14.4c0-7.9-6.4-14.4-14.3-14.4c-7.9,0-14.3,6.4-14.3,14.4
	C619,149.1,625.4,155.6,633.3,155.6z"/>
<path class="st4" d="M637.4,155.6c7.9,0,14.3-6.4,14.3-14.4c0-7.9-6.4-14.4-14.3-14.4c-7.9,0-14.3,6.4-14.3,14.4
	C623.1,149.1,629.5,155.6,637.4,155.6z"/>
<path class="st7" d="M637.4,149.2c4.4,0,8-3.6,8-8c0-4.4-3.6-8-8-8c-4.4,0-8,3.6-8,8C629.4,145.6,633,149.2,637.4,149.2z"/>
<path class="st0" d="M393,20v-0.5c-0.3,0-0.5,0.2-0.5,0.5H393z M392.6,108.4c0.2,0.2,0.5,0.2,0.7,0l3.2-3.2c0.2-0.2,0.2-0.5,0-0.7
	c-0.2-0.2-0.5-0.2-0.7,0l-2.8,2.8l-2.8-2.8c-0.2-0.2-0.5-0.2-0.7,0c-0.2,0.2-0.2,0.5,0,0.7L392.6,108.4z M985,19.5h-5v1h5V19.5z
	 M975.9,19.5h-10.1v1h10.1V19.5z M961.8,19.5h-10.1v1h10.1V19.5z M947.7,19.5h-10.1v1h10.1V19.5z M933.7,19.5h-10.1v1h10.1V19.5z
	 M919.6,19.5h-10.1v1h10.1V19.5z M905.5,19.5h-10.1v1h10.1V19.5z M891.4,19.5h-10.1v1h10.1V19.5z M877.3,19.5h-10.1v1h10.1V19.5z
	 M863.2,19.5h-10.1v1h10.1V19.5z M849.1,19.5H839v1h10.1V19.5z M835,19.5h-10.1v1H835V19.5z M820.9,19.5h-10.1v1h10.1V19.5z
	 M806.8,19.5h-10.1v1h10.1V19.5z M792.7,19.5h-10.1v1h10.1V19.5z M778.6,19.5h-10.1v1h10.1V19.5z M764.5,19.5h-10.1v1h10.1V19.5z
	 M750.4,19.5h-10.1v1h10.1V19.5z M736.3,19.5h-10.1v1h10.1V19.5z M722.2,19.5h-10.1v1h10.1V19.5z M708.1,19.5h-10.1v1h10.1V19.5z
	 M694,19.5H684v1H694V19.5z M679.9,19.5h-10.1v1h10.1V19.5z M665.8,19.5h-10.1v1h10.1V19.5z M651.7,19.5h-10.1v1h10.1V19.5z
	 M637.7,19.5h-10.1v1h10.1V19.5z M623.6,19.5h-10.1v1h10.1V19.5z M609.5,19.5h-10.1v1h10.1V19.5z M595.4,19.5h-10.1v1h10.1V19.5z
	 M581.3,19.5h-10.1v1h10.1V19.5z M567.2,19.5h-10.1v1h10.1V19.5z M553.1,19.5H543v1h10.1V19.5z M539,19.5h-10.1v1H539V19.5z
	 M524.9,19.5h-10.1v1h10.1V19.5z M510.8,19.5h-10.1v1h10.1V19.5z M496.7,19.5h-10.1v1h10.1V19.5z M482.6,19.5h-10.1v1h10.1V19.5z
	 M468.5,19.5h-10.1v1h10.1V19.5z M454.4,19.5h-10.1v1h10.1V19.5z M440.3,19.5h-10.1v1h10.1V19.5z M426.2,19.5h-10.1v1h10.1V19.5z
	 M412.1,19.5h-10.1v1h10.1V19.5z M398,19.5h-5v1h5V19.5z M392.5,20v5.2h1V20H392.5z M392.5,29.4v10.5h1V29.4H392.5z M392.5,44.1
	v10.5h1V44.1H392.5z M392.5,58.8v10.5h1V58.8H392.5z M392.5,73.4v10.5h1V73.4H392.5z M392.5,88.1v10.5h1V88.1H392.5z M392.5,102.8
	v5.2h1v-5.2H392.5z M393,20v-1c-0.6,0-1,0.4-1,1H393z M392.3,108.7c0.4,0.4,1,0.4,1.4,0l6.4-6.4c0.4-0.4,0.4-1,0-1.4
	c-0.4-0.4-1-0.4-1.4,0l-5.7,5.7l-5.7-5.7c-0.4-0.4-1-0.4-1.4,0c-0.4,0.4-0.4,1,0,1.4L392.3,108.7z M985,19h-5v2h5V19z M975.9,19
	h-10.1v2h10.1V19z M961.8,19h-10.1v2h10.1V19z M947.7,19h-10.1v2h10.1V19z M933.7,19h-10.1v2h10.1V19z M919.6,19h-10.1v2h10.1V19z
	 M905.5,19h-10.1v2h10.1V19z M891.4,19h-10.1v2h10.1V19z M877.3,19h-10.1v2h10.1V19z M863.2,19h-10.1v2h10.1V19z M849.1,19H839v2
	h10.1V19z M835,19h-10.1v2H835V19z M820.9,19h-10.1v2h10.1V19z M806.8,19h-10.1v2h10.1V19z M792.7,19h-10.1v2h10.1V19z M778.6,19
	h-10.1v2h10.1V19z M764.5,19h-10.1v2h10.1V19z M750.4,19h-10.1v2h10.1V19z M736.3,19h-10.1v2h10.1V19z M722.2,19h-10.1v2h10.1V19z
	 M708.1,19h-10.1v2h10.1V19z M694,19H684v2H694V19z M679.9,19h-10.1v2h10.1V19z M665.8,19h-10.1v2h10.1V19z M651.7,19h-10.1v2h10.1
	V19z M637.7,19h-10.1v2h10.1V19z M623.6,19h-10.1v2h10.1V19z M609.5,19h-10.1v2h10.1V19z M595.4,19h-10.1v2h10.1V19z M581.3,19
	h-10.1v2h10.1V19z M567.2,19h-10.1v2h10.1V19z M553.1,19H543v2h10.1V19z M539,19h-10.1v2H539V19z M524.9,19h-10.1v2h10.1V19z
	 M510.8,19h-10.1v2h10.1V19z M496.7,19h-10.1v2h10.1V19z M482.6,19h-10.1v2h10.1V19z M468.5,19h-10.1v2h10.1V19z M454.4,19h-10.1v2
	h10.1V19z M440.3,19h-10.1v2h10.1V19z M426.2,19h-10.1v2h10.1V19z M412.1,19h-10.1v2h10.1V19z M398,19h-5v2h5V19z M392,20v5.2h2V20
	H392z M392,29.4v10.5h2V29.4H392z M392,44.1v10.5h2V44.1H392z M392,58.8v10.5h2V58.8H392z M392,73.4v10.5h2V73.4H392z M392,88.1
	v10.5h2V88.1H392z M392,102.8v5.2h2v-5.2H392z"/>
<path class="st0" d="M393,273v0.5c-0.3,0-0.5-0.2-0.5-0.5H393z M392.6,184.6c0.2-0.2,0.5-0.2,0.7,0l3.2,3.2c0.2,0.2,0.2,0.5,0,0.7
	c-0.2,0.2-0.5,0.2-0.7,0l-2.8-2.8l-2.8,2.8c-0.2,0.2-0.5,0.2-0.7,0c-0.2-0.2-0.2-0.5,0-0.7L392.6,184.6z M985,273.5h-5v-1h5V273.5z
	 M975.9,273.5h-10.1v-1h10.1V273.5z M961.8,273.5h-10.1v-1h10.1V273.5z M947.7,273.5h-10.1v-1h10.1V273.5z M933.7,273.5h-10.1v-1
	h10.1V273.5z M919.6,273.5h-10.1v-1h10.1V273.5z M905.5,273.5h-10.1v-1h10.1V273.5z M891.4,273.5h-10.1v-1h10.1V273.5z M877.3,273.5
	h-10.1v-1h10.1V273.5z M863.2,273.5h-10.1v-1h10.1V273.5z M849.1,273.5H839v-1h10.1V273.5z M835,273.5h-10.1v-1H835V273.5z
	 M820.9,273.5h-10.1v-1h10.1V273.5z M806.8,273.5h-10.1v-1h10.1V273.5z M792.7,273.5h-10.1v-1h10.1V273.5z M778.6,273.5h-10.1v-1
	h10.1V273.5z M764.5,273.5h-10.1v-1h10.1V273.5z M750.4,273.5h-10.1v-1h10.1V273.5z M736.3,273.5h-10.1v-1h10.1V273.5z M722.2,273.5
	h-10.1v-1h10.1V273.5z M708.1,273.5h-10.1v-1h10.1V273.5z M694,273.5H684v-1H694V273.5z M679.9,273.5h-10.1v-1h10.1V273.5z
	 M665.8,273.5h-10.1v-1h10.1V273.5z M651.7,273.5h-10.1v-1h10.1V273.5z M637.7,273.5h-10.1v-1h10.1V273.5z M623.6,273.5h-10.1v-1
	h10.1V273.5z M609.5,273.5h-10.1v-1h10.1V273.5z M595.4,273.5h-10.1v-1h10.1V273.5z M581.3,273.5h-10.1v-1h10.1V273.5z M567.2,273.5
	h-10.1v-1h10.1V273.5z M553.1,273.5H543v-1h10.1V273.5z M539,273.5h-10.1v-1H539V273.5z M524.9,273.5h-10.1v-1h10.1V273.5z
	 M510.8,273.5h-10.1v-1h10.1V273.5z M496.7,273.5h-10.1v-1h10.1V273.5z M482.6,273.5h-10.1v-1h10.1V273.5z M468.5,273.5h-10.1v-1
	h10.1V273.5z M454.4,273.5h-10.1v-1h10.1V273.5z M440.3,273.5h-10.1v-1h10.1V273.5z M426.2,273.5h-10.1v-1h10.1V273.5z M412.1,273.5
	h-10.1v-1h10.1V273.5z M398,273.5h-5v-1h5V273.5z M392.5,273v-5.2h1v5.2H392.5z M392.5,263.6v-10.5h1v10.5H392.5z M392.5,248.9
	v-10.5h1v10.5H392.5z M392.5,234.2v-10.5h1v10.5H392.5z M392.5,219.6v-10.5h1v10.5H392.5z M392.5,204.9v-10.5h1v10.5H392.5z
	 M392.5,190.2V185h1v5.2H392.5z M393,273v1c-0.6,0-1-0.4-1-1H393z M392.3,184.3c0.4-0.4,1-0.4,1.4,0l6.4,6.4c0.4,0.4,0.4,1,0,1.4
	c-0.4,0.4-1,0.4-1.4,0l-5.7-5.7l-5.7,5.7c-0.4,0.4-1,0.4-1.4,0c-0.4-0.4-0.4-1,0-1.4L392.3,184.3z M985,274h-5v-2h5V274z M975.9,274
	h-10.1v-2h10.1V274z M961.8,274h-10.1v-2h10.1V274z M947.7,274h-10.1v-2h10.1V274z M933.7,274h-10.1v-2h10.1V274z M919.6,274h-10.1
	v-2h10.1V274z M905.5,274h-10.1v-2h10.1V274z M891.4,274h-10.1v-2h10.1V274z M877.3,274h-10.1v-2h10.1V274z M863.2,274h-10.1v-2
	h10.1V274z M849.1,274H839v-2h10.1V274z M835,274h-10.1v-2H835V274z M820.9,274h-10.1v-2h10.1V274z M806.8,274h-10.1v-2h10.1V274z
	 M792.7,274h-10.1v-2h10.1V274z M778.6,274h-10.1v-2h10.1V274z M764.5,274h-10.1v-2h10.1V274z M750.4,274h-10.1v-2h10.1V274z
	 M736.3,274h-10.1v-2h10.1V274z M722.2,274h-10.1v-2h10.1V274z M708.1,274h-10.1v-2h10.1V274z M694,274H684v-2H694V274z M679.9,274
	h-10.1v-2h10.1V274z M665.8,274h-10.1v-2h10.1V274z M651.7,274h-10.1v-2h10.1V274z M637.7,274h-10.1v-2h10.1V274z M623.6,274h-10.1
	v-2h10.1V274z M609.5,274h-10.1v-2h10.1V274z M595.4,274h-10.1v-2h10.1V274z M581.3,274h-10.1v-2h10.1V274z M567.2,274h-10.1v-2
	h10.1V274z M553.1,274H543v-2h10.1V274z M539,274h-10.1v-2H539V274z M524.9,274h-10.1v-2h10.1V274z M510.8,274h-10.1v-2h10.1V274z
	 M496.7,274h-10.1v-2h10.1V274z M482.6,274h-10.1v-2h10.1V274z M468.5,274h-10.1v-2h10.1V274z M454.4,274h-10.1v-2h10.1V274z
	 M440.3,274h-10.1v-2h10.1V274z M426.2,274h-10.1v-2h10.1V274z M412.1,274h-10.1v-2h10.1V274z M398,274h-5v-2h5V274z M392,273v-5.2
	h2v5.2H392z M392,263.6v-10.5h2v10.5H392z M392,248.9v-10.5h2v10.5H392z M392,234.2v-10.5h2v10.5H392z M392,219.6v-10.5h2v10.5H392z
	 M392,204.9v-10.5h2v10.5H392z M392,190.2V185h2v5.2H392z"/>
<path class="st0" d="M490.6,139.6c-0.2,0.2-0.2,0.5,0,0.7l3.2,3.2c0.2,0.2,0.5,0.2,0.7,0c0.2-0.2,0.2-0.5,0-0.7l-2.8-2.8l2.8-2.8
	c0.2-0.2,0.2-0.5,0-0.7c-0.2-0.2-0.5-0.2-0.7,0L490.6,139.6z M549,139.5h-4.8v1h4.8V139.5z M539.3,139.5h-9.7v1h9.7V139.5z
	 M524.8,139.5h-9.7v1h9.7V139.5z M510.3,139.5h-9.7v1h9.7V139.5z M495.8,139.5H491v1h4.8V139.5z M490.3,139.3c-0.4,0.4-0.4,1,0,1.4
	l6.4,6.4c0.4,0.4,1,0.4,1.4,0c0.4-0.4,0.4-1,0-1.4l-5.7-5.7l5.7-5.7c0.4-0.4,0.4-1,0-1.4c-0.4-0.4-1-0.4-1.4,0L490.3,139.3z
	 M549,139h-4.8v2h4.8V139z M539.3,139h-9.7v2h9.7V139z M524.8,139h-9.7v2h9.7V139z M510.3,139h-9.7v2h9.7V139z M495.8,139H491v2h4.8
	V139z"/>
<path class="st0" d="M747.4,140.4c0.2-0.2,0.2-0.5,0-0.7l-3.2-3.2c-0.2-0.2-0.5-0.2-0.7,0c-0.2,0.2-0.2,0.5,0,0.7l2.8,2.8l-2.8,2.8
	c-0.2,0.2-0.2,0.5,0,0.7c0.2,0.2,0.5,0.2,0.7,0L747.4,140.4z M688.6,139.6c-0.2,0.2-0.2,0.5,0,0.7l3.2,3.2c0.2,0.2,0.5,0.2,0.7,0
	c0.2-0.2,0.2-0.5,0-0.7l-2.8-2.8l2.8-2.8c0.2-0.2,0.2-0.5,0-0.7c-0.2-0.2-0.5-0.2-0.7,0L688.6,139.6z M747,139.5h-4.8v1h4.8V139.5z
	 M737.3,139.5h-9.7v1h9.7V139.5z M722.8,139.5h-9.7v1h9.7V139.5z M708.3,139.5h-9.7v1h9.7V139.5z M693.8,139.5H689v1h4.8V139.5z
	 M747.7,140.7c0.4-0.4,0.4-1,0-1.4l-6.4-6.4c-0.4-0.4-1-0.4-1.4,0c-0.4,0.4-0.4,1,0,1.4l5.7,5.7l-5.7,5.7c-0.4,0.4-0.4,1,0,1.4
	c0.4,0.4,1,0.4,1.4,0L747.7,140.7z M688.3,139.3c-0.4,0.4-0.4,1,0,1.4l6.4,6.4c0.4,0.4,1,0.4,1.4,0c0.4-0.4,0.4-1,0-1.4l-5.7-5.7
	l5.7-5.7c0.4-0.4,0.4-1,0-1.4c-0.4-0.4-1-0.4-1.4,0L688.3,139.3z M747,139h-4.8v2h4.8V139z M737.3,139h-9.7v2h9.7V139z M722.8,139
	h-9.7v2h9.7V139z M708.3,139h-9.7v2h9.7V139z M693.8,139H689v2h4.8V139z"/>
<path class="st1" d="M1009.7,44.3c-0.4-0.4-1-0.4-1.4,0l-6.4,6.4c-0.4,0.4-0.4,1,0,1.4c0.4,0.4,1,0.4,1.4,0l5.7-5.7l5.7,5.7
	c0.4,0.4,1,0.4,1.4,0c0.4-0.4,0.4-1,0-1.4L1009.7,44.3z M1010,240V45h-2v195H1010z"/>
</svg>
