<?xml version="1.0" encoding="utf-8"?>
<!-- Generator: Adobe Illustrator 23.0.1, SVG Export Plug-In . SVG Version: 6.00 Build 0)  -->
<svg version="1.1" id="Layer_1" xmlns="http://www.w3.org/2000/svg" xmlns:xlink="http://www.w3.org/1999/xlink" x="0px" y="0px"
	 viewBox="0 0 282 377" style="enable-background:new 0 0 282 377;" xml:space="preserve">
<style type="text/css">
	.st0{fill:#B5BBCD;}
	.st1{fill:#2173FD;}
	.st2{fill:none;stroke:#B5BBCD;}
	.st3{fill-rule:evenodd;clip-rule:evenodd;fill:#2173FD;}
	.st4{fill:#ECEEFB;}
	.st5{fill-rule:evenodd;clip-rule:evenodd;fill:#FFFFFF;}
	.st6{fill:#CFD3ED;}
	.st7{fill:#D8DBEE;}
	.st8{fill:none;stroke:#B5BBCD;stroke-dasharray:10.1,10.1;}
	.st9{fill:#0D4AAF;}
</style>
<path class="st0" d="M155.7,94.9v1.9h-0.9v-5h1.9c0.6,0,1,0.1,1.3,0.4c0.3,0.3,0.5,0.7,0.5,1.2c0,0.5-0.2,0.9-0.5,1.1
	c-0.3,0.3-0.8,0.4-1.4,0.4H155.7z M155.7,94.2h1c0.3,0,0.5-0.1,0.7-0.2c0.2-0.1,0.2-0.4,0.2-0.6c0-0.3-0.1-0.5-0.2-0.6
	c-0.2-0.2-0.4-0.2-0.7-0.3h-1.1V94.2z M161.4,96.8c0-0.1-0.1-0.2-0.1-0.3c-0.3,0.3-0.6,0.4-1,0.4c-0.4,0-0.7-0.1-0.9-0.3
	c-0.2-0.2-0.4-0.5-0.4-0.8c0-0.4,0.1-0.7,0.4-0.9c0.3-0.2,0.7-0.3,1.3-0.3h0.5v-0.2c0-0.2-0.1-0.3-0.2-0.5c-0.1-0.1-0.3-0.2-0.5-0.2
	c-0.2,0-0.3,0-0.5,0.1c-0.1,0.1-0.2,0.2-0.2,0.4h-0.8c0-0.2,0.1-0.4,0.2-0.6c0.1-0.2,0.3-0.3,0.5-0.4c0.2-0.1,0.5-0.2,0.8-0.2
	c0.4,0,0.8,0.1,1,0.3c0.3,0.2,0.4,0.5,0.4,0.9v1.7c0,0.3,0,0.6,0.1,0.8v0.1H161.4z M160.5,96.2c0.2,0,0.3,0,0.5-0.1
	c0.1-0.1,0.3-0.2,0.3-0.3V95h-0.4c-0.3,0-0.5,0.1-0.7,0.2c-0.2,0.1-0.2,0.3-0.2,0.5c0,0.2,0.1,0.3,0.2,0.4
	C160.2,96.1,160.3,96.2,160.5,96.2z M164.2,95.6l0.8-2.5h0.9l-1.5,4.3c-0.2,0.6-0.6,0.9-1.2,0.9c-0.1,0-0.3,0-0.4-0.1v-0.6l0.2,0
	c0.2,0,0.4,0,0.5-0.1c0.1-0.1,0.2-0.2,0.3-0.4l0.1-0.3l-1.3-3.7h0.9L164.2,95.6z M171.3,94.7c0,0.7-0.1,1.3-0.4,1.6
	c-0.3,0.4-0.7,0.5-1.2,0.5c-0.5,0-0.9-0.2-1.2-0.5c-0.3-0.4-0.4-0.9-0.4-1.6v-0.9c0-0.7,0.1-1.3,0.4-1.6c0.3-0.4,0.7-0.5,1.2-0.5
	c0.5,0,1,0.2,1.2,0.5c0.3,0.3,0.4,0.9,0.4,1.6V94.7z M170.5,93.8c0-0.5-0.1-0.8-0.2-1c-0.1-0.2-0.3-0.3-0.6-0.3
	c-0.3,0-0.5,0.1-0.6,0.3c-0.1,0.2-0.2,0.5-0.2,1v1.1c0,0.5,0.1,0.8,0.2,1c0.1,0.2,0.3,0.3,0.6,0.3c0.3,0,0.5-0.1,0.6-0.3
	c0.1-0.2,0.2-0.5,0.2-1V93.8z M172.6,95.9c0.2,0,0.3,0,0.4,0.1c0.1,0.1,0.1,0.2,0.1,0.3c0,0.1,0,0.2-0.1,0.3
	c-0.1,0.1-0.2,0.1-0.4,0.1c-0.1,0-0.3,0-0.4-0.1c-0.1-0.1-0.1-0.2-0.1-0.3c0-0.1,0-0.2,0.1-0.3C172.4,96,172.5,95.9,172.6,95.9z
	 M175.8,96.8H175v-4l-1.2,0.4v-0.7l2-0.7h0.1V96.8z M194.3,96.8v-3.1h-0.6v-0.6h0.6v-0.3c0-0.4,0.1-0.7,0.3-1c0.2-0.2,0.5-0.3,1-0.3
	c0.1,0,0.3,0,0.5,0.1l0,0.7c-0.1,0-0.2,0-0.3,0c-0.4,0-0.6,0.2-0.6,0.6v0.3h0.8v0.6h-0.8v3.1H194.3z M198,96.9c-0.5,0-1-0.2-1.3-0.5
	c-0.3-0.3-0.5-0.8-0.5-1.3v-0.1c0-0.4,0.1-0.7,0.2-1c0.1-0.3,0.3-0.5,0.6-0.7c0.3-0.2,0.5-0.2,0.9-0.2c0.5,0,0.9,0.2,1.2,0.5
	c0.3,0.3,0.4,0.8,0.4,1.4v0.3h-2.4c0,0.3,0.1,0.5,0.3,0.7c0.2,0.2,0.4,0.3,0.7,0.3c0.4,0,0.7-0.2,0.9-0.5l0.4,0.4
	c-0.1,0.2-0.3,0.4-0.6,0.5C198.6,96.8,198.3,96.9,198,96.9z M197.9,93.7c-0.2,0-0.4,0.1-0.6,0.2c-0.1,0.2-0.2,0.4-0.3,0.7h1.6v-0.1
	c0-0.3-0.1-0.5-0.2-0.6C198.3,93.7,198.2,93.7,197.9,93.7z M201.8,96.9c-0.5,0-1-0.2-1.3-0.5c-0.3-0.3-0.5-0.8-0.5-1.3v-0.1
	c0-0.4,0.1-0.7,0.2-1c0.1-0.3,0.3-0.5,0.6-0.7c0.3-0.2,0.5-0.2,0.9-0.2c0.5,0,0.9,0.2,1.2,0.5c0.3,0.3,0.4,0.8,0.4,1.4v0.3h-2.4
	c0,0.3,0.1,0.5,0.3,0.7c0.2,0.2,0.4,0.3,0.7,0.3c0.4,0,0.7-0.2,0.9-0.5l0.4,0.4c-0.1,0.2-0.3,0.4-0.6,0.5
	C202.4,96.8,202.1,96.9,201.8,96.9z M201.7,93.7c-0.2,0-0.4,0.1-0.6,0.2c-0.1,0.2-0.2,0.4-0.3,0.7h1.6v-0.1c0-0.3-0.1-0.5-0.2-0.6
	C202.1,93.7,201.9,93.7,201.7,93.7z M206,96.8v-3.1h-0.6v-0.6h0.6v-0.3c0-0.4,0.1-0.7,0.3-1c0.2-0.2,0.6-0.3,1-0.3
	c0.1,0,0.3,0,0.5,0.1l0,0.7c-0.1,0-0.2,0-0.3,0c-0.4,0-0.6,0.2-0.6,0.6v0.3h0.8v0.6h-0.8v3.1H206z M208,94.9c0-0.4,0.1-0.7,0.2-1
	c0.1-0.3,0.3-0.5,0.6-0.7c0.3-0.2,0.6-0.2,0.9-0.2c0.5,0,0.9,0.2,1.2,0.5c0.3,0.3,0.5,0.7,0.5,1.3l0,0.2c0,0.4-0.1,0.7-0.2,1
	c-0.1,0.3-0.3,0.5-0.6,0.7c-0.3,0.2-0.6,0.2-0.9,0.2c-0.5,0-0.9-0.2-1.3-0.5C208.2,96,208,95.5,208,94.9L208,94.9z M208.9,95
	c0,0.4,0.1,0.7,0.2,0.9c0.2,0.2,0.4,0.3,0.7,0.3s0.5-0.1,0.7-0.3c0.2-0.2,0.2-0.5,0.2-1c0-0.4-0.1-0.7-0.2-0.9
	c-0.2-0.2-0.4-0.3-0.7-0.3c-0.3,0-0.5,0.1-0.6,0.3C209,94.2,208.9,94.5,208.9,95z M214.1,93.8c-0.1,0-0.2,0-0.3,0
	c-0.4,0-0.6,0.1-0.8,0.4v2.5h-0.8v-3.7h0.8l0,0.4c0.2-0.3,0.5-0.5,0.8-0.5c0.1,0,0.2,0,0.3,0L214.1,93.8z M157.6,103.9h-1.9
	l-0.4,1.2h-0.9l1.9-5h0.8l1.9,5H158L157.6,103.9z M155.9,103.3h1.4l-0.7-2.1L155.9,103.3z M160.3,105.1h-0.8v-5.3h0.8V105.1z
	 M162.1,105.1h-0.8v-3.7h0.8V105.1z M161.2,100.4c0-0.1,0-0.2,0.1-0.3c0.1-0.1,0.2-0.1,0.4-0.1s0.3,0,0.4,0.1
	c0.1,0.1,0.1,0.2,0.1,0.3c0,0.1,0,0.2-0.1,0.3c-0.1,0.1-0.2,0.1-0.4,0.1s-0.3,0-0.4-0.1C161.2,100.7,161.2,100.6,161.2,100.4z
	 M164.5,104.5c0.2,0,0.4-0.1,0.5-0.2c0.1-0.1,0.2-0.3,0.2-0.4h0.8c0,0.2-0.1,0.4-0.2,0.6c-0.1,0.2-0.3,0.4-0.5,0.5
	c-0.2,0.1-0.5,0.2-0.7,0.2c-0.5,0-0.9-0.2-1.2-0.5c-0.3-0.3-0.5-0.8-0.5-1.4v-0.1c0-0.6,0.2-1,0.5-1.4c0.3-0.3,0.7-0.5,1.2-0.5
	c0.4,0,0.8,0.1,1.1,0.4c0.3,0.3,0.4,0.6,0.4,1h-0.8c0-0.2-0.1-0.4-0.2-0.5c-0.1-0.1-0.3-0.2-0.5-0.2c-0.3,0-0.5,0.1-0.6,0.3
	c-0.1,0.2-0.2,0.5-0.2,0.9v0.1c0,0.4,0.1,0.7,0.2,0.9C164,104.4,164.3,104.5,164.5,104.5z M168.3,105.2c-0.5,0-1-0.2-1.3-0.5
	c-0.3-0.3-0.5-0.8-0.5-1.3v-0.1c0-0.4,0.1-0.7,0.2-1c0.1-0.3,0.3-0.5,0.6-0.7c0.3-0.2,0.5-0.2,0.9-0.2c0.5,0,0.9,0.2,1.2,0.5
	c0.3,0.3,0.4,0.8,0.4,1.4v0.3h-2.4c0,0.3,0.1,0.5,0.3,0.7c0.2,0.2,0.4,0.3,0.7,0.3c0.4,0,0.7-0.2,0.9-0.5l0.5,0.4
	c-0.1,0.2-0.3,0.4-0.6,0.5C168.9,105.1,168.6,105.2,168.3,105.2z M168.2,102c-0.2,0-0.4,0.1-0.6,0.2c-0.1,0.2-0.2,0.4-0.3,0.7h1.6
	v-0.1c0-0.3-0.1-0.5-0.2-0.6C168.6,102.1,168.5,102,168.2,102z M173.3,100.5v0.9h0.7v0.6h-0.7v2.1c0,0.1,0,0.2,0.1,0.3
	c0.1,0.1,0.2,0.1,0.3,0.1c0.1,0,0.2,0,0.3,0v0.6c-0.2,0.1-0.4,0.1-0.6,0.1c-0.6,0-1-0.4-1-1.1V102h-0.6v-0.6h0.6v-0.9H173.3z
	 M176.5,102.2c-0.1,0-0.2,0-0.3,0c-0.4,0-0.6,0.1-0.8,0.4v2.5h-0.8v-3.7h0.8l0,0.4c0.2-0.3,0.5-0.5,0.8-0.5c0.1,0,0.2,0,0.3,0
	L176.5,102.2z M179.2,105.1c0-0.1-0.1-0.2-0.1-0.3c-0.3,0.3-0.6,0.4-1,0.4c-0.4,0-0.7-0.1-0.9-0.3c-0.2-0.2-0.4-0.5-0.4-0.8
	c0-0.4,0.1-0.7,0.4-0.9c0.3-0.2,0.7-0.3,1.3-0.3h0.5v-0.2c0-0.2-0.1-0.3-0.2-0.5c-0.1-0.1-0.3-0.2-0.5-0.2c-0.2,0-0.3,0-0.5,0.1
	c-0.1,0.1-0.2,0.2-0.2,0.4h-0.8c0-0.2,0.1-0.4,0.2-0.6c0.1-0.2,0.3-0.3,0.5-0.4c0.2-0.1,0.5-0.2,0.8-0.2c0.4,0,0.8,0.1,1,0.3
	c0.3,0.2,0.4,0.5,0.4,0.9v1.7c0,0.3,0,0.6,0.1,0.8v0.1H179.2z M178.2,104.5c0.2,0,0.3,0,0.5-0.1c0.1-0.1,0.3-0.2,0.3-0.3v-0.7h-0.5
	c-0.3,0-0.5,0.1-0.7,0.2c-0.2,0.1-0.2,0.3-0.2,0.5c0,0.2,0.1,0.3,0.2,0.4C177.9,104.5,178.1,104.5,178.2,104.5z M181.5,101.4l0,0.4
	c0.3-0.3,0.6-0.5,1.1-0.5c0.8,0,1.2,0.4,1.2,1.3v2.5H183v-2.4c0-0.2-0.1-0.4-0.2-0.5c-0.1-0.1-0.3-0.2-0.5-0.2
	c-0.3,0-0.6,0.2-0.8,0.5v2.6h-0.8v-3.7H181.5z M186.7,104.1c0-0.1-0.1-0.3-0.2-0.3c-0.1-0.1-0.3-0.1-0.6-0.2
	c-0.3-0.1-0.5-0.1-0.7-0.2c-0.4-0.2-0.6-0.5-0.6-0.9c0-0.3,0.1-0.6,0.4-0.8c0.3-0.2,0.6-0.3,1-0.3c0.4,0,0.8,0.1,1.1,0.3
	c0.3,0.2,0.4,0.5,0.4,0.9h-0.8c0-0.2-0.1-0.3-0.2-0.4c-0.1-0.1-0.3-0.2-0.5-0.2c-0.2,0-0.3,0-0.4,0.1c-0.1,0.1-0.2,0.2-0.2,0.3
	c0,0.1,0.1,0.2,0.2,0.3c0.1,0.1,0.3,0.1,0.7,0.2c0.3,0.1,0.6,0.2,0.8,0.3c0.2,0.1,0.3,0.2,0.4,0.4c0.1,0.1,0.1,0.3,0.1,0.5
	c0,0.3-0.1,0.6-0.4,0.8c-0.3,0.2-0.6,0.3-1.1,0.3c-0.3,0-0.6-0.1-0.8-0.2c-0.2-0.1-0.4-0.3-0.6-0.5c-0.1-0.2-0.2-0.4-0.2-0.6h0.8
	c0,0.2,0.1,0.3,0.2,0.5c0.1,0.1,0.3,0.2,0.5,0.2c0.2,0,0.4,0,0.5-0.1C186.7,104.3,186.7,104.2,186.7,104.1z M190.5,105.1
	c0-0.1-0.1-0.2-0.1-0.3c-0.3,0.3-0.6,0.4-1,0.4c-0.4,0-0.7-0.1-0.9-0.3c-0.2-0.2-0.4-0.5-0.4-0.8c0-0.4,0.1-0.7,0.4-0.9
	c0.3-0.2,0.7-0.3,1.3-0.3h0.5v-0.2c0-0.2-0.1-0.3-0.2-0.5c-0.1-0.1-0.3-0.2-0.5-0.2c-0.2,0-0.3,0-0.5,0.1c-0.1,0.1-0.2,0.2-0.2,0.4
	h-0.8c0-0.2,0.1-0.4,0.2-0.6c0.1-0.2,0.3-0.3,0.5-0.4c0.2-0.1,0.5-0.2,0.8-0.2c0.4,0,0.8,0.1,1,0.3c0.3,0.2,0.4,0.5,0.4,0.9v1.7
	c0,0.3,0,0.6,0.1,0.8v0.1H190.5z M189.6,104.5c0.2,0,0.3,0,0.5-0.1c0.1-0.1,0.3-0.2,0.3-0.3v-0.7h-0.4c-0.3,0-0.5,0.1-0.7,0.2
	c-0.2,0.1-0.2,0.3-0.2,0.5c0,0.2,0.1,0.3,0.2,0.4C189.3,104.5,189.4,104.5,189.6,104.5z M193.6,104.5c0.2,0,0.4-0.1,0.5-0.2
	c0.1-0.1,0.2-0.3,0.2-0.4h0.8c0,0.2-0.1,0.4-0.2,0.6c-0.1,0.2-0.3,0.4-0.6,0.5c-0.2,0.1-0.5,0.2-0.7,0.2c-0.5,0-0.9-0.2-1.2-0.5
	c-0.3-0.3-0.5-0.8-0.5-1.4v-0.1c0-0.6,0.2-1,0.5-1.4c0.3-0.3,0.7-0.5,1.2-0.5c0.4,0,0.8,0.1,1.1,0.4c0.3,0.3,0.4,0.6,0.4,1h-0.8
	c0-0.2-0.1-0.4-0.2-0.5c-0.1-0.1-0.3-0.2-0.5-0.2c-0.3,0-0.5,0.1-0.6,0.3c-0.1,0.2-0.2,0.5-0.2,0.9v0.1c0,0.4,0.1,0.7,0.2,0.9
	C193.1,104.4,193.4,104.5,193.6,104.5z M196.8,100.5v0.9h0.7v0.6h-0.7v2.1c0,0.1,0,0.2,0.1,0.3c0.1,0.1,0.2,0.1,0.3,0.1
	c0.1,0,0.2,0,0.3,0v0.6c-0.2,0.1-0.4,0.1-0.5,0.1c-0.6,0-1-0.4-1-1.1V102h-0.6v-0.6h0.6v-0.9H196.8z M199,105.1h-0.8v-3.7h0.8V105.1
	z M198.1,100.4c0-0.1,0-0.2,0.1-0.3c0.1-0.1,0.2-0.1,0.4-0.1s0.3,0,0.4,0.1c0.1,0.1,0.1,0.2,0.1,0.3c0,0.1,0,0.2-0.1,0.3
	c-0.1,0.1-0.2,0.1-0.4,0.1s-0.3,0-0.4-0.1C198.2,100.7,198.1,100.6,198.1,100.4z M199.8,103.2c0-0.4,0.1-0.7,0.2-1
	c0.1-0.3,0.3-0.5,0.6-0.7c0.3-0.2,0.6-0.2,0.9-0.2c0.5,0,0.9,0.2,1.2,0.5c0.3,0.3,0.5,0.8,0.5,1.3l0,0.2c0,0.4-0.1,0.7-0.2,1
	c-0.1,0.3-0.3,0.5-0.6,0.7c-0.3,0.2-0.6,0.2-0.9,0.2c-0.5,0-0.9-0.2-1.3-0.5C199.9,104.3,199.8,103.8,199.8,103.2L199.8,103.2z
	 M200.6,103.3c0,0.4,0.1,0.7,0.2,0.9c0.2,0.2,0.4,0.3,0.7,0.3s0.5-0.1,0.7-0.3c0.2-0.2,0.2-0.5,0.2-1c0-0.4-0.1-0.7-0.2-0.9
	c-0.2-0.2-0.4-0.3-0.7-0.3c-0.3,0-0.5,0.1-0.6,0.3C200.7,102.5,200.6,102.9,200.6,103.3z M204.7,101.4l0,0.4
	c0.3-0.3,0.6-0.5,1.1-0.5c0.8,0,1.2,0.4,1.2,1.3v2.5h-0.8v-2.4c0-0.2-0.1-0.4-0.2-0.5c-0.1-0.1-0.3-0.2-0.5-0.2
	c-0.3,0-0.6,0.2-0.8,0.5v2.6h-0.8v-3.7H204.7z"/>
<path class="st1" d="M180.9,94.6h-2.1v1.5h2.4v0.7H178v-5h3.2v0.7h-2.4v1.4h2.1V94.6z M186,96.8h-0.9l-2.2-3.5v3.5H182v-5h0.9
	l2.2,3.6v-3.6h0.9V96.8z M191,94.4c0,0.5-0.1,0.9-0.2,1.2c-0.1,0.3-0.4,0.6-0.6,0.8l0.9,0.7l-0.6,0.5l-1.1-0.8c-0.1,0-0.3,0-0.4,0
	c-0.4,0-0.8-0.1-1.1-0.3c-0.3-0.2-0.6-0.5-0.7-0.8c-0.2-0.4-0.3-0.8-0.3-1.3v-0.3c0-0.5,0.1-0.9,0.3-1.3c0.2-0.4,0.4-0.7,0.7-0.9
	c0.3-0.2,0.7-0.3,1.1-0.3c0.4,0,0.8,0.1,1.1,0.3c0.3,0.2,0.6,0.5,0.7,0.8c0.2,0.4,0.3,0.8,0.3,1.3V94.4z M190.1,94.2
	c0-0.6-0.1-1-0.3-1.3c-0.2-0.3-0.5-0.4-0.9-0.4c-0.4,0-0.7,0.1-0.9,0.4c-0.2,0.3-0.3,0.7-0.3,1.2v0.3c0,0.5,0.1,1,0.3,1.3
	c0.2,0.3,0.5,0.5,0.9,0.5c0.4,0,0.7-0.1,0.9-0.4c0.2-0.3,0.3-0.7,0.3-1.3V94.2z"/>
<path class="st2" d="M198.9,127.9H81.1c-0.5,0-0.9,0.4-0.9,0.9v25.5c0,0.5,0.4,0.9,0.9,0.9h117.8c0.5,0,0.9-0.4,0.9-0.9v-25.5
	C199.8,128.3,199.4,127.9,198.9,127.9z"/>
<path class="st2" d="M198.9,274.4H81.1c-0.5,0-0.9,0.4-0.9,0.9v25.5c0,0.5,0.4,0.9,0.9,0.9h117.8c0.5,0,0.9-0.4,0.9-0.9v-25.5
	C199.8,274.8,199.4,274.4,198.9,274.4z"/>
<path class="st0" d="M113,142.3c-0.1,0.5-0.2,0.9-0.6,1.2c-0.3,0.3-0.8,0.4-1.4,0.4c-0.4,0-0.8-0.1-1.1-0.3
	c-0.3-0.2-0.5-0.5-0.7-0.8c-0.2-0.3-0.3-0.8-0.3-1.2v-0.5c0-0.5,0.1-0.9,0.3-1.2c0.2-0.4,0.4-0.6,0.7-0.8c0.3-0.2,0.7-0.3,1.1-0.3
	c0.6,0,1,0.2,1.3,0.5c0.3,0.3,0.5,0.7,0.6,1.3h-0.9c0-0.4-0.1-0.6-0.3-0.8c-0.2-0.2-0.4-0.2-0.7-0.2c-0.4,0-0.7,0.1-0.9,0.4
	c-0.2,0.3-0.3,0.7-0.3,1.2v0.4c0,0.5,0.1,1,0.3,1.2c0.2,0.3,0.5,0.4,0.9,0.4c0.3,0,0.6-0.1,0.8-0.2c0.2-0.2,0.3-0.4,0.3-0.8H113z
	 M115.9,143.9c0-0.1-0.1-0.2-0.1-0.3c-0.3,0.3-0.6,0.4-1,0.4c-0.4,0-0.7-0.1-0.9-0.3s-0.4-0.5-0.4-0.8c0-0.4,0.1-0.7,0.4-0.9
	c0.3-0.2,0.7-0.3,1.3-0.3h0.5v-0.2c0-0.2-0.1-0.3-0.2-0.5c-0.1-0.1-0.3-0.2-0.5-0.2c-0.2,0-0.3,0-0.5,0.1c-0.1,0.1-0.2,0.2-0.2,0.4
	h-0.8c0-0.2,0.1-0.4,0.2-0.6c0.1-0.2,0.3-0.3,0.5-0.4c0.2-0.1,0.5-0.2,0.8-0.2c0.4,0,0.8,0.1,1,0.3c0.3,0.2,0.4,0.5,0.4,0.9v1.7
	c0,0.3,0,0.6,0.1,0.8v0.1H115.9z M115,143.3c0.2,0,0.3,0,0.5-0.1c0.1-0.1,0.3-0.2,0.3-0.3v-0.7h-0.4c-0.3,0-0.5,0.1-0.7,0.2
	c-0.2,0.1-0.2,0.3-0.2,0.5c0,0.2,0.1,0.3,0.2,0.4C114.7,143.2,114.8,143.3,115,143.3z M119.5,140.9c-0.1,0-0.2,0-0.3,0
	c-0.4,0-0.6,0.1-0.8,0.4v2.5h-0.8v-3.7h0.8l0,0.4c0.2-0.3,0.5-0.5,0.8-0.5c0.1,0,0.2,0,0.3,0L119.5,140.9z M119.7,142
	c0-0.4,0.1-0.7,0.2-1c0.1-0.3,0.3-0.5,0.6-0.7c0.3-0.2,0.6-0.2,0.9-0.2c0.5,0,0.9,0.2,1.2,0.5c0.3,0.3,0.5,0.8,0.5,1.3l0,0.2
	c0,0.4-0.1,0.7-0.2,1c-0.1,0.3-0.3,0.5-0.6,0.7c-0.3,0.2-0.6,0.2-0.9,0.2c-0.5,0-0.9-0.2-1.3-0.5C119.9,143.1,119.7,142.6,119.7,142
	L119.7,142z M120.5,142.1c0,0.4,0.1,0.7,0.2,0.9c0.2,0.2,0.4,0.3,0.7,0.3c0.3,0,0.5-0.1,0.7-0.3c0.2-0.2,0.2-0.5,0.2-1
	c0-0.4-0.1-0.7-0.2-0.9c-0.2-0.2-0.4-0.3-0.7-0.3c-0.3,0-0.5,0.1-0.7,0.3C120.6,141.3,120.5,141.6,120.5,142.1z M124.8,143.9h-0.8
	v-5.3h0.8V143.9z M144.1,139.3v0.9h0.7v0.6h-0.7v2.1c0,0.1,0,0.2,0.1,0.3c0.1,0.1,0.2,0.1,0.3,0.1c0.1,0,0.2,0,0.3,0v0.6
	c-0.2,0.1-0.4,0.1-0.5,0.1c-0.6,0-1-0.4-1-1.1v-2.1h-0.6v-0.6h0.6v-0.9H144.1z M145.1,142c0-0.4,0.1-0.7,0.2-1
	c0.1-0.3,0.3-0.5,0.6-0.7c0.3-0.2,0.6-0.2,0.9-0.2c0.5,0,0.9,0.2,1.2,0.5c0.3,0.3,0.5,0.8,0.5,1.3l0,0.2c0,0.4-0.1,0.7-0.2,1
	c-0.1,0.3-0.3,0.5-0.6,0.7c-0.3,0.2-0.6,0.2-0.9,0.2c-0.5,0-0.9-0.2-1.3-0.5C145.3,143.1,145.1,142.6,145.1,142L145.1,142z
	 M145.9,142.1c0,0.4,0.1,0.7,0.2,0.9c0.2,0.2,0.4,0.3,0.7,0.3s0.5-0.1,0.7-0.3c0.2-0.2,0.2-0.5,0.2-1c0-0.4-0.1-0.7-0.2-0.9
	c-0.2-0.2-0.4-0.3-0.7-0.3c-0.3,0-0.5,0.1-0.6,0.3C146,141.3,145.9,141.6,145.9,142.1z M150.5,142.3l-0.4,0.4v1.2h-0.8v-5.3h0.8v3
	l0.3-0.3l1-1.2h1l-1.4,1.5l1.5,2.2h-1L150.5,142.3z M154.5,143.9c-0.5,0-1-0.2-1.3-0.5c-0.3-0.3-0.5-0.8-0.5-1.3V142
	c0-0.4,0.1-0.7,0.2-1c0.1-0.3,0.3-0.5,0.6-0.7c0.3-0.2,0.5-0.2,0.9-0.2c0.5,0,0.9,0.2,1.2,0.5c0.3,0.3,0.4,0.8,0.4,1.4v0.3h-2.4
	c0,0.3,0.1,0.5,0.3,0.7c0.2,0.2,0.4,0.3,0.7,0.3c0.4,0,0.7-0.2,0.9-0.5l0.4,0.4c-0.1,0.2-0.3,0.4-0.6,0.5
	C155.1,143.9,154.8,143.9,154.5,143.9z M154.4,140.8c-0.2,0-0.4,0.1-0.6,0.2c-0.1,0.2-0.2,0.4-0.3,0.7h1.6v-0.1
	c0-0.3-0.1-0.5-0.2-0.6C154.8,140.8,154.6,140.8,154.4,140.8z M157.4,140.2l0,0.4c0.3-0.3,0.6-0.5,1.1-0.5c0.8,0,1.2,0.4,1.2,1.3
	v2.5h-0.8v-2.4c0-0.2-0.1-0.4-0.2-0.5c-0.1-0.1-0.3-0.2-0.5-0.2c-0.3,0-0.6,0.2-0.8,0.5v2.6h-0.8v-3.7H157.4z M164.5,143.9
	c0-0.1-0.1-0.2-0.1-0.3c-0.3,0.3-0.6,0.4-1,0.4c-0.4,0-0.7-0.1-0.9-0.3c-0.2-0.2-0.4-0.5-0.4-0.8c0-0.4,0.1-0.7,0.4-0.9
	c0.3-0.2,0.7-0.3,1.3-0.3h0.5v-0.2c0-0.2-0.1-0.3-0.2-0.5c-0.1-0.1-0.3-0.2-0.5-0.2c-0.2,0-0.3,0-0.5,0.1c-0.1,0.1-0.2,0.2-0.2,0.4
	h-0.8c0-0.2,0.1-0.4,0.2-0.6c0.1-0.2,0.3-0.3,0.5-0.4c0.2-0.1,0.5-0.2,0.8-0.2c0.4,0,0.8,0.1,1,0.3c0.3,0.2,0.4,0.5,0.4,0.9v1.7
	c0,0.3,0,0.6,0.1,0.8v0.1H164.5z M163.6,143.3c0.2,0,0.3,0,0.5-0.1c0.1-0.1,0.3-0.2,0.3-0.3v-0.7H164c-0.3,0-0.5,0.1-0.7,0.2
	c-0.2,0.1-0.2,0.3-0.2,0.5c0,0.2,0.1,0.3,0.2,0.4C163.3,143.2,163.4,143.3,163.6,143.3z M166,142c0-0.6,0.1-1,0.4-1.4
	c0.3-0.3,0.6-0.5,1.1-0.5c0.4,0,0.7,0.1,1,0.4v-1.9h0.8v5.3h-0.8l0-0.4c-0.3,0.3-0.6,0.5-1,0.5c-0.4,0-0.8-0.2-1.1-0.5
	C166.1,143.1,166,142.6,166,142z M166.8,142.1c0,0.4,0.1,0.7,0.2,0.9c0.1,0.2,0.4,0.3,0.6,0.3c0.3,0,0.6-0.2,0.7-0.5v-1.6
	c-0.2-0.3-0.4-0.4-0.7-0.4c-0.3,0-0.5,0.1-0.6,0.3C166.9,141.3,166.8,141.6,166.8,142.1z M172,140.9c-0.1,0-0.2,0-0.3,0
	c-0.4,0-0.6,0.1-0.8,0.4v2.5h-0.8v-3.7h0.8l0,0.4c0.2-0.3,0.5-0.5,0.8-0.5c0.1,0,0.2,0,0.3,0L172,140.9z M174.1,143.9
	c-0.5,0-1-0.2-1.3-0.5c-0.3-0.3-0.5-0.8-0.5-1.3V142c0-0.4,0.1-0.7,0.2-1c0.1-0.3,0.3-0.5,0.6-0.7c0.3-0.2,0.5-0.2,0.9-0.2
	c0.5,0,0.9,0.2,1.2,0.5c0.3,0.3,0.4,0.8,0.4,1.4v0.3h-2.4c0,0.3,0.1,0.5,0.3,0.7c0.2,0.2,0.4,0.3,0.7,0.3c0.4,0,0.7-0.2,0.9-0.5
	l0.4,0.4c-0.1,0.2-0.3,0.4-0.6,0.5C174.7,143.9,174.4,143.9,174.1,143.9z M174,140.8c-0.2,0-0.4,0.1-0.6,0.2
	c-0.1,0.2-0.2,0.4-0.3,0.7h1.6v-0.1c0-0.3-0.1-0.5-0.2-0.6C174.4,140.8,174.3,140.8,174,140.8z M178.4,142.9c0-0.1-0.1-0.3-0.2-0.3
	c-0.1-0.1-0.3-0.1-0.6-0.2c-0.3-0.1-0.5-0.1-0.7-0.2c-0.4-0.2-0.6-0.5-0.6-0.9c0-0.3,0.1-0.6,0.4-0.8c0.3-0.2,0.6-0.3,1-0.3
	c0.4,0,0.8,0.1,1.1,0.3c0.3,0.2,0.4,0.5,0.4,0.9h-0.8c0-0.2-0.1-0.3-0.2-0.4c-0.1-0.1-0.3-0.2-0.5-0.2c-0.2,0-0.3,0-0.4,0.1
	c-0.1,0.1-0.2,0.2-0.2,0.3c0,0.1,0.1,0.2,0.2,0.3c0.1,0.1,0.3,0.1,0.7,0.2c0.3,0.1,0.6,0.2,0.8,0.3c0.2,0.1,0.3,0.2,0.4,0.4
	c0.1,0.1,0.1,0.3,0.1,0.5c0,0.3-0.1,0.6-0.4,0.8c-0.3,0.2-0.6,0.3-1.1,0.3c-0.3,0-0.6-0.1-0.8-0.2c-0.2-0.1-0.4-0.3-0.6-0.5
	c-0.1-0.2-0.2-0.4-0.2-0.6h0.8c0,0.2,0.1,0.3,0.2,0.5c0.1,0.1,0.3,0.2,0.5,0.2c0.2,0,0.4,0,0.5-0.1
	C178.3,143.1,178.4,143,178.4,142.9z M182,142.9c0-0.1-0.1-0.3-0.2-0.3c-0.1-0.1-0.3-0.1-0.6-0.2c-0.3-0.1-0.5-0.1-0.7-0.2
	c-0.4-0.2-0.6-0.5-0.6-0.9c0-0.3,0.1-0.6,0.4-0.8s0.6-0.3,1-0.3c0.4,0,0.8,0.1,1.1,0.3c0.3,0.2,0.4,0.5,0.4,0.9H182
	c0-0.2-0.1-0.3-0.2-0.4c-0.1-0.1-0.3-0.2-0.5-0.2c-0.2,0-0.3,0-0.4,0.1c-0.1,0.1-0.2,0.2-0.2,0.3c0,0.1,0.1,0.2,0.2,0.3
	c0.1,0.1,0.3,0.1,0.7,0.2c0.3,0.1,0.6,0.2,0.8,0.3c0.2,0.1,0.3,0.2,0.4,0.4c0.1,0.1,0.1,0.3,0.1,0.5c0,0.3-0.1,0.6-0.4,0.8
	c-0.3,0.2-0.6,0.3-1.1,0.3c-0.3,0-0.6-0.1-0.8-0.2c-0.2-0.1-0.4-0.3-0.6-0.5c-0.1-0.2-0.2-0.4-0.2-0.6h0.8c0,0.2,0.1,0.3,0.2,0.5
	c0.1,0.1,0.3,0.2,0.5,0.2c0.2,0,0.4,0,0.5-0.1C181.9,143.1,182,143,182,142.9z"/>
<path class="st1" d="M130.4,141.6h-2.1v1.5h2.4v0.7h-3.3v-5h3.2v0.7h-2.4v1.4h2.1V141.6z M135.5,143.9h-0.9l-2.2-3.5v3.5h-0.9v-5
	h0.9l2.2,3.6v-3.6h0.9V143.9z M140.5,141.5c0,0.5-0.1,0.9-0.2,1.2c-0.1,0.3-0.4,0.6-0.6,0.8l0.9,0.7l-0.6,0.5l-1.1-0.8
	c-0.1,0-0.3,0-0.4,0c-0.4,0-0.8-0.1-1.1-0.3c-0.3-0.2-0.6-0.5-0.7-0.8c-0.2-0.4-0.3-0.8-0.3-1.3v-0.3c0-0.5,0.1-0.9,0.3-1.3
	c0.2-0.4,0.4-0.7,0.7-0.9c0.3-0.2,0.7-0.3,1.1-0.3c0.4,0,0.8,0.1,1.1,0.3c0.3,0.2,0.6,0.5,0.7,0.8c0.2,0.4,0.3,0.8,0.3,1.3V141.5z
	 M139.6,141.3c0-0.6-0.1-1-0.3-1.3c-0.2-0.3-0.5-0.4-0.9-0.4c-0.4,0-0.7,0.1-0.9,0.4c-0.2,0.3-0.3,0.7-0.3,1.2v0.3
	c0,0.5,0.1,1,0.3,1.3c0.2,0.3,0.5,0.5,0.9,0.5c0.4,0,0.7-0.1,0.9-0.4c0.2-0.3,0.3-0.7,0.3-1.3V141.3z"/>
<path class="st0" d="M114,231.2c-0.1,0.5-0.2,0.9-0.6,1.2c-0.3,0.3-0.8,0.4-1.4,0.4c-0.4,0-0.8-0.1-1.1-0.3
	c-0.3-0.2-0.5-0.5-0.7-0.8c-0.2-0.3-0.3-0.8-0.3-1.2v-0.5c0-0.5,0.1-0.9,0.3-1.2c0.2-0.4,0.4-0.6,0.7-0.8c0.3-0.2,0.7-0.3,1.1-0.3
	c0.6,0,1,0.1,1.3,0.4c0.3,0.3,0.5,0.7,0.6,1.3h-0.9c0-0.4-0.1-0.6-0.3-0.8c-0.2-0.2-0.4-0.2-0.7-0.2c-0.4,0-0.7,0.1-0.9,0.4
	c-0.2,0.3-0.3,0.7-0.3,1.2v0.4c0,0.5,0.1,1,0.3,1.2c0.2,0.3,0.5,0.4,0.9,0.4c0.3,0,0.6-0.1,0.8-0.2c0.2-0.2,0.3-0.4,0.3-0.8H114z
	 M116.9,232.9c0-0.1-0.1-0.2-0.1-0.3c-0.3,0.3-0.6,0.4-1,0.4c-0.4,0-0.7-0.1-0.9-0.3s-0.4-0.5-0.4-0.8c0-0.4,0.1-0.7,0.4-0.9
	c0.3-0.2,0.7-0.3,1.3-0.3h0.5v-0.2c0-0.2-0.1-0.3-0.2-0.5c-0.1-0.1-0.3-0.2-0.5-0.2c-0.2,0-0.3,0-0.5,0.1c-0.1,0.1-0.2,0.2-0.2,0.4
	h-0.8c0-0.2,0.1-0.4,0.2-0.6c0.1-0.2,0.3-0.3,0.6-0.4c0.2-0.1,0.5-0.2,0.8-0.2c0.4,0,0.8,0.1,1,0.3c0.3,0.2,0.4,0.5,0.4,0.9v1.7
	c0,0.3,0,0.6,0.1,0.8v0.1H116.9z M116,232.3c0.2,0,0.3,0,0.5-0.1c0.1-0.1,0.3-0.2,0.3-0.3v-0.7h-0.4c-0.3,0-0.5,0.1-0.7,0.2
	c-0.2,0.1-0.2,0.3-0.2,0.5c0,0.2,0.1,0.3,0.2,0.4C115.7,232.2,115.8,232.3,116,232.3z M120.5,229.9c-0.1,0-0.2,0-0.3,0
	c-0.4,0-0.6,0.1-0.8,0.4v2.5h-0.8v-3.7h0.8l0,0.4c0.2-0.3,0.5-0.5,0.8-0.5c0.1,0,0.2,0,0.3,0L120.5,229.9z M120.7,231
	c0-0.4,0.1-0.7,0.2-1c0.1-0.3,0.3-0.5,0.6-0.7c0.3-0.2,0.6-0.2,0.9-0.2c0.5,0,0.9,0.2,1.2,0.5c0.3,0.3,0.5,0.8,0.5,1.3l0,0.2
	c0,0.4-0.1,0.7-0.2,1c-0.1,0.3-0.3,0.5-0.6,0.7c-0.3,0.2-0.6,0.2-0.9,0.2c-0.5,0-0.9-0.2-1.3-0.5C120.9,232.1,120.7,231.6,120.7,231
	L120.7,231z M121.5,231c0,0.4,0.1,0.7,0.2,0.9c0.2,0.2,0.4,0.3,0.7,0.3s0.5-0.1,0.7-0.3c0.2-0.2,0.2-0.5,0.2-1
	c0-0.4-0.1-0.7-0.2-0.9c-0.2-0.2-0.4-0.3-0.7-0.3c-0.3,0-0.5,0.1-0.6,0.3C121.6,230.3,121.5,230.6,121.5,231z M125.8,232.9h-0.8
	v-5.3h0.8V232.9z M129.5,228.2v0.9h0.7v0.6h-0.7v2.1c0,0.1,0,0.2,0.1,0.3c0.1,0.1,0.2,0.1,0.3,0.1c0.1,0,0.2,0,0.3,0v0.6
	c-0.2,0.1-0.4,0.1-0.6,0.1c-0.6,0-1-0.4-1-1.1v-2.1H128v-0.6h0.6v-0.9H129.5z M130.5,231c0-0.4,0.1-0.7,0.2-1
	c0.1-0.3,0.3-0.5,0.6-0.7c0.3-0.2,0.6-0.2,0.9-0.2c0.5,0,0.9,0.2,1.2,0.5c0.3,0.3,0.5,0.8,0.5,1.3l0,0.2c0,0.4-0.1,0.7-0.2,1
	c-0.1,0.3-0.3,0.5-0.6,0.7c-0.3,0.2-0.6,0.2-0.9,0.2c-0.5,0-0.9-0.2-1.3-0.5C130.7,232.1,130.5,231.6,130.5,231L130.5,231z
	 M131.3,231c0,0.4,0.1,0.7,0.2,0.9c0.2,0.2,0.4,0.3,0.7,0.3c0.3,0,0.5-0.1,0.7-0.3c0.2-0.2,0.2-0.5,0.2-1c0-0.4-0.1-0.7-0.2-0.9
	c-0.2-0.2-0.4-0.3-0.7-0.3c-0.3,0-0.5,0.1-0.6,0.3C131.4,230.3,131.3,230.6,131.3,231z M135.9,231.3l-0.4,0.4v1.2h-0.8v-5.3h0.8v3
	l0.3-0.3l1-1.2h1l-1.4,1.5l1.5,2.2h-1L135.9,231.3z M139.9,232.9c-0.5,0-1-0.2-1.3-0.5c-0.3-0.3-0.5-0.8-0.5-1.3V231
	c0-0.4,0.1-0.7,0.2-1c0.1-0.3,0.3-0.5,0.6-0.7c0.3-0.2,0.5-0.2,0.9-0.2c0.5,0,0.9,0.2,1.2,0.5c0.3,0.3,0.4,0.8,0.4,1.4v0.3H139
	c0,0.3,0.1,0.5,0.3,0.7c0.2,0.2,0.4,0.3,0.7,0.3c0.4,0,0.7-0.2,0.9-0.5l0.4,0.4c-0.1,0.2-0.3,0.4-0.6,0.5
	C140.5,232.9,140.2,232.9,139.9,232.9z M139.8,229.7c-0.2,0-0.4,0.1-0.6,0.2c-0.1,0.2-0.2,0.4-0.3,0.7h1.6v-0.1
	c0-0.3-0.1-0.5-0.2-0.6C140.2,229.8,140,229.7,139.8,229.7z M142.8,229.1l0,0.4c0.3-0.3,0.6-0.5,1.1-0.5c0.8,0,1.2,0.4,1.2,1.3v2.5
	h-0.8v-2.4c0-0.2-0.1-0.4-0.2-0.5c-0.1-0.1-0.3-0.2-0.5-0.2c-0.3,0-0.6,0.2-0.8,0.5v2.6H142v-3.7H142.8z M148.6,232.9h-0.8v-3.7h0.8
	V232.9z M147.7,228.2c0-0.1,0-0.2,0.1-0.3c0.1-0.1,0.2-0.1,0.4-0.1s0.3,0,0.4,0.1c0.1,0.1,0.1,0.2,0.1,0.3c0,0.1,0,0.2-0.1,0.3
	c-0.1,0.1-0.2,0.1-0.4,0.1s-0.3,0-0.4-0.1C147.8,228.4,147.7,228.3,147.7,228.2z M151.6,231.9c0-0.1-0.1-0.3-0.2-0.3
	c-0.1-0.1-0.3-0.1-0.6-0.2c-0.3-0.1-0.5-0.1-0.7-0.2c-0.4-0.2-0.6-0.5-0.6-0.9c0-0.3,0.1-0.6,0.4-0.8c0.3-0.2,0.6-0.3,1-0.3
	c0.4,0,0.8,0.1,1.1,0.3c0.3,0.2,0.4,0.5,0.4,0.9h-0.8c0-0.2-0.1-0.3-0.2-0.4c-0.1-0.1-0.3-0.2-0.5-0.2c-0.2,0-0.3,0-0.4,0.1
	c-0.1,0.1-0.2,0.2-0.2,0.3c0,0.1,0.1,0.2,0.2,0.3c0.1,0.1,0.3,0.1,0.7,0.2c0.3,0.1,0.6,0.2,0.8,0.3c0.2,0.1,0.3,0.2,0.4,0.4
	c0.1,0.1,0.1,0.3,0.1,0.5c0,0.3-0.1,0.6-0.4,0.8c-0.3,0.2-0.6,0.3-1.1,0.3c-0.3,0-0.6-0.1-0.8-0.2c-0.2-0.1-0.4-0.3-0.6-0.5
	c-0.1-0.2-0.2-0.4-0.2-0.6h0.8c0,0.2,0.1,0.3,0.2,0.5c0.1,0.1,0.3,0.2,0.5,0.2c0.2,0,0.4,0,0.5-0.1
	C151.5,232.1,151.6,232,151.6,231.9z M155.2,231.9c0-0.1-0.1-0.3-0.2-0.3c-0.1-0.1-0.3-0.1-0.6-0.2c-0.3-0.1-0.5-0.1-0.7-0.2
	c-0.4-0.2-0.6-0.5-0.6-0.9c0-0.3,0.1-0.6,0.4-0.8s0.6-0.3,1-0.3c0.4,0,0.8,0.1,1.1,0.3c0.3,0.2,0.4,0.5,0.4,0.9h-0.8
	c0-0.2-0.1-0.3-0.2-0.4c-0.1-0.1-0.3-0.2-0.5-0.2c-0.2,0-0.3,0-0.5,0.1c-0.1,0.1-0.2,0.2-0.2,0.3c0,0.1,0.1,0.2,0.2,0.3
	c0.1,0.1,0.3,0.1,0.7,0.2c0.3,0.1,0.6,0.2,0.8,0.3c0.2,0.1,0.3,0.2,0.4,0.4c0.1,0.1,0.1,0.3,0.1,0.5c0,0.3-0.1,0.6-0.4,0.8
	c-0.3,0.2-0.6,0.3-1.1,0.3c-0.3,0-0.6-0.1-0.8-0.2c-0.2-0.1-0.4-0.3-0.6-0.5c-0.1-0.2-0.2-0.4-0.2-0.6h0.8c0,0.2,0.1,0.3,0.2,0.5
	c0.1,0.1,0.3,0.2,0.5,0.2c0.2,0,0.4,0,0.5-0.1C155.2,232.1,155.2,232,155.2,231.9z M159,232.5c-0.2,0.3-0.6,0.4-1,0.4
	c-0.4,0-0.7-0.1-0.9-0.4c-0.2-0.2-0.3-0.6-0.3-1v-2.4h0.8v2.4c0,0.5,0.2,0.7,0.6,0.7c0.4,0,0.7-0.1,0.8-0.4v-2.7h0.8v3.7h-0.8
	L159,232.5z M162.3,232.9c-0.5,0-1-0.2-1.3-0.5c-0.3-0.3-0.5-0.8-0.5-1.3V231c0-0.4,0.1-0.7,0.2-1c0.1-0.3,0.3-0.5,0.6-0.7
	c0.3-0.2,0.5-0.2,0.9-0.2c0.5,0,0.9,0.2,1.2,0.5c0.3,0.3,0.4,0.8,0.4,1.4v0.3h-2.4c0,0.3,0.1,0.5,0.3,0.7c0.2,0.2,0.4,0.3,0.7,0.3
	c0.4,0,0.7-0.2,0.9-0.5l0.4,0.4c-0.1,0.2-0.3,0.4-0.6,0.5C162.9,232.9,162.6,232.9,162.3,232.9z M162.2,229.7
	c-0.2,0-0.4,0.1-0.6,0.2c-0.1,0.2-0.2,0.4-0.3,0.7h1.6v-0.1c0-0.3-0.1-0.5-0.2-0.6C162.6,229.8,162.5,229.7,162.2,229.7z
	 M166.2,230.8c0-0.5,0.1-1,0.2-1.5c0.1-0.5,0.4-0.9,0.6-1.3c0.3-0.4,0.6-0.6,0.9-0.8l0.2,0.5c-0.3,0.2-0.6,0.6-0.8,1.1
	c-0.2,0.5-0.3,1.1-0.3,1.7l0,0.3c0,0.7,0.1,1.3,0.3,1.9c0.2,0.5,0.5,1,0.8,1.2l-0.2,0.5c-0.3-0.2-0.6-0.4-0.9-0.8
	c-0.3-0.4-0.5-0.8-0.6-1.3C166.3,231.9,166.2,231.4,166.2,230.8z M183.1,230.9c0,0.5-0.1,1-0.2,1.5c-0.1,0.5-0.4,0.9-0.6,1.3
	c-0.3,0.4-0.6,0.7-0.9,0.8l-0.2-0.5c0.3-0.3,0.6-0.7,0.8-1.2c0.2-0.5,0.3-1.2,0.3-1.9v-0.1c0-0.6-0.1-1.2-0.3-1.7
	c-0.2-0.5-0.4-0.9-0.7-1.3l-0.1-0.1l0.2-0.5c0.3,0.1,0.6,0.4,0.9,0.8c0.3,0.4,0.5,0.8,0.6,1.2c0.1,0.4,0.2,0.9,0.2,1.4L183.1,230.9z
	"/>
<path class="st1" d="M172.6,231.2c-0.1,0.5-0.2,0.9-0.6,1.2c-0.3,0.3-0.8,0.4-1.4,0.4c-0.4,0-0.8-0.1-1.1-0.3
	c-0.3-0.2-0.5-0.5-0.7-0.8c-0.2-0.3-0.3-0.8-0.3-1.2v-0.5c0-0.5,0.1-0.9,0.3-1.2c0.2-0.4,0.4-0.6,0.7-0.8c0.3-0.2,0.7-0.3,1.1-0.3
	c0.6,0,1,0.1,1.3,0.4c0.3,0.3,0.5,0.7,0.6,1.3h-0.9c0-0.4-0.1-0.6-0.3-0.8c-0.2-0.2-0.4-0.2-0.7-0.2c-0.4,0-0.7,0.1-0.9,0.4
	c-0.2,0.3-0.3,0.7-0.3,1.2v0.4c0,0.5,0.1,1,0.3,1.2c0.2,0.3,0.5,0.4,0.9,0.4c0.3,0,0.6-0.1,0.8-0.2c0.2-0.2,0.3-0.4,0.3-0.8H172.6z
	 M175.2,230.9h-1v1.9h-0.9v-5h1.8c0.6,0,1,0.1,1.3,0.4c0.3,0.3,0.5,0.6,0.5,1.1c0,0.3-0.1,0.6-0.2,0.8c-0.2,0.2-0.4,0.4-0.7,0.5
	l1.1,2.1v0h-0.9L175.2,230.9z M174.2,230.2h0.9c0.3,0,0.5-0.1,0.7-0.2c0.2-0.1,0.2-0.4,0.2-0.6c0-0.3-0.1-0.5-0.2-0.6
	c-0.2-0.1-0.4-0.2-0.7-0.2h-0.9V230.2z M178.6,232.2h2.3v0.7h-3.1v-5h0.9V232.2z"/>
<path class="st0" d="M114.2,289c0,0.5-0.2,1-0.6,1.2c-0.3,0.3-0.8,0.4-1.4,0.4c-0.4,0-0.8-0.1-1.1-0.3c-0.3-0.2-0.5-0.5-0.7-0.8
	c-0.2-0.3-0.3-0.8-0.3-1.2v-0.5c0-0.5,0.1-0.9,0.3-1.2c0.2-0.4,0.4-0.6,0.7-0.8c0.3-0.2,0.7-0.3,1.1-0.3c0.6,0,1,0.2,1.3,0.4
	c0.3,0.3,0.5,0.7,0.6,1.3h-0.9c0-0.4-0.1-0.6-0.3-0.8c-0.2-0.2-0.4-0.2-0.7-0.2c-0.4,0-0.7,0.1-0.9,0.4c-0.2,0.3-0.3,0.7-0.3,1.2
	v0.4c0,0.5,0.1,1,0.3,1.2c0.2,0.3,0.5,0.4,0.9,0.4c0.3,0,0.6-0.1,0.8-0.2c0.2-0.2,0.3-0.4,0.3-0.8H114.2z M117.2,290.6
	c0-0.1-0.1-0.2-0.1-0.3c-0.3,0.3-0.6,0.4-1,0.4c-0.4,0-0.7-0.1-0.9-0.3c-0.2-0.2-0.4-0.5-0.4-0.8c0-0.4,0.1-0.7,0.4-0.9
	c0.3-0.2,0.7-0.3,1.3-0.3h0.5v-0.2c0-0.2-0.1-0.3-0.2-0.5c-0.1-0.1-0.3-0.2-0.5-0.2c-0.2,0-0.3,0-0.5,0.1c-0.1,0.1-0.2,0.2-0.2,0.4
	h-0.8c0-0.2,0.1-0.4,0.2-0.6c0.1-0.2,0.3-0.3,0.5-0.4c0.2-0.1,0.5-0.2,0.8-0.2c0.4,0,0.8,0.1,1,0.3c0.3,0.2,0.4,0.5,0.4,0.9v1.7
	c0,0.3,0,0.6,0.1,0.8v0.1H117.2z M116.2,290c0.2,0,0.3,0,0.5-0.1c0.1-0.1,0.3-0.2,0.3-0.3v-0.7h-0.5c-0.3,0-0.5,0.1-0.7,0.2
	c-0.2,0.1-0.2,0.3-0.2,0.5c0,0.2,0.1,0.3,0.2,0.4C115.9,290,116.1,290,116.2,290z M120.7,287.7c-0.1,0-0.2,0-0.3,0
	c-0.4,0-0.6,0.1-0.8,0.4v2.5h-0.8v-3.7h0.8l0,0.4c0.2-0.3,0.5-0.5,0.8-0.5c0.1,0,0.2,0,0.3,0L120.7,287.7z M120.9,288.7
	c0-0.4,0.1-0.7,0.2-1c0.1-0.3,0.3-0.5,0.6-0.7c0.3-0.2,0.6-0.2,0.9-0.2c0.5,0,0.9,0.2,1.2,0.5c0.3,0.3,0.5,0.7,0.5,1.3l0,0.2
	c0,0.4-0.1,0.7-0.2,1c-0.1,0.3-0.3,0.5-0.6,0.7c-0.3,0.2-0.6,0.2-0.9,0.2c-0.5,0-0.9-0.2-1.3-0.5
	C121.1,289.8,120.9,289.4,120.9,288.7L120.9,288.7z M121.8,288.8c0,0.4,0.1,0.7,0.2,0.9c0.2,0.2,0.4,0.3,0.7,0.3
	c0.3,0,0.5-0.1,0.7-0.3c0.2-0.2,0.2-0.5,0.2-1c0-0.4-0.1-0.7-0.2-0.9c-0.2-0.2-0.4-0.3-0.7-0.3c-0.3,0-0.5,0.1-0.6,0.3
	C121.8,288,121.8,288.4,121.8,288.8z M126,290.6h-0.8v-5.3h0.8V290.6z M144.2,286v0.9h0.7v0.6h-0.7v2.1c0,0.1,0,0.2,0.1,0.3
	c0.1,0.1,0.2,0.1,0.3,0.1c0.1,0,0.2,0,0.3,0v0.6c-0.2,0.1-0.4,0.1-0.5,0.1c-0.6,0-1-0.4-1-1.1v-2.1h-0.6v-0.6h0.6V286H144.2z
	 M145.3,288.7c0-0.4,0.1-0.7,0.2-1c0.1-0.3,0.3-0.5,0.6-0.7c0.3-0.2,0.6-0.2,0.9-0.2c0.5,0,0.9,0.2,1.2,0.5c0.3,0.3,0.5,0.7,0.5,1.3
	l0,0.2c0,0.4-0.1,0.7-0.2,1c-0.1,0.3-0.3,0.5-0.6,0.7c-0.3,0.2-0.6,0.2-0.9,0.2c-0.5,0-0.9-0.2-1.3-0.5
	C145.4,289.8,145.3,289.4,145.3,288.7L145.3,288.7z M146.1,288.8c0,0.4,0.1,0.7,0.2,0.9c0.2,0.2,0.4,0.3,0.7,0.3s0.5-0.1,0.7-0.3
	c0.2-0.2,0.2-0.5,0.2-1c0-0.4-0.1-0.7-0.2-0.9c-0.2-0.2-0.4-0.3-0.7-0.3c-0.3,0-0.5,0.1-0.6,0.3C146.2,288,146.1,288.4,146.1,288.8z
	 M150.6,289l-0.4,0.4v1.2h-0.8v-5.3h0.8v3l0.3-0.3l1-1.2h1l-1.4,1.5l1.5,2.2h-1L150.6,289z M154.7,290.7c-0.5,0-1-0.2-1.3-0.5
	c-0.3-0.3-0.5-0.8-0.5-1.3v-0.1c0-0.4,0.1-0.7,0.2-1c0.1-0.3,0.3-0.5,0.6-0.7c0.3-0.2,0.5-0.2,0.9-0.2c0.5,0,0.9,0.2,1.2,0.5
	c0.3,0.3,0.4,0.8,0.4,1.4v0.3h-2.4c0,0.3,0.1,0.5,0.3,0.7c0.2,0.2,0.4,0.3,0.7,0.3c0.4,0,0.7-0.2,0.9-0.5l0.4,0.4
	c-0.1,0.2-0.3,0.4-0.6,0.5C155.3,290.6,155,290.7,154.7,290.7z M154.6,287.5c-0.2,0-0.4,0.1-0.6,0.2c-0.1,0.2-0.2,0.4-0.3,0.7h1.6
	v-0.1c0-0.3-0.1-0.5-0.2-0.6C155,287.6,154.8,287.5,154.6,287.5z M157.6,286.9l0,0.4c0.3-0.3,0.6-0.5,1.1-0.5c0.8,0,1.2,0.4,1.2,1.3
	v2.5h-0.8v-2.4c0-0.2-0.1-0.4-0.2-0.5c-0.1-0.1-0.3-0.2-0.5-0.2c-0.3,0-0.6,0.2-0.8,0.5v2.6h-0.8v-3.7H157.6z M164.7,290.6
	c0-0.1-0.1-0.2-0.1-0.3c-0.3,0.3-0.6,0.4-1,0.4c-0.4,0-0.7-0.1-0.9-0.3c-0.2-0.2-0.4-0.5-0.4-0.8c0-0.4,0.1-0.7,0.4-0.9
	c0.3-0.2,0.7-0.3,1.3-0.3h0.5v-0.2c0-0.2-0.1-0.3-0.2-0.5c-0.1-0.1-0.3-0.2-0.5-0.2c-0.2,0-0.3,0-0.5,0.1c-0.1,0.1-0.2,0.2-0.2,0.4
	h-0.8c0-0.2,0.1-0.4,0.2-0.6c0.1-0.2,0.3-0.3,0.6-0.4c0.2-0.1,0.5-0.2,0.8-0.2c0.4,0,0.8,0.1,1,0.3c0.3,0.2,0.4,0.5,0.4,0.9v1.7
	c0,0.3,0,0.6,0.1,0.8v0.1H164.7z M163.8,290c0.2,0,0.3,0,0.5-0.1c0.1-0.1,0.3-0.2,0.3-0.3v-0.7h-0.4c-0.3,0-0.5,0.1-0.7,0.2
	c-0.2,0.1-0.2,0.3-0.2,0.5c0,0.2,0.1,0.3,0.2,0.4C163.5,290,163.6,290,163.8,290z M166.1,288.7c0-0.6,0.1-1,0.4-1.4
	c0.3-0.3,0.6-0.5,1.1-0.5c0.4,0,0.7,0.1,1,0.4v-1.9h0.8v5.3h-0.8l0-0.4c-0.3,0.3-0.6,0.5-1,0.5c-0.4,0-0.8-0.2-1.1-0.5
	C166.3,289.8,166.1,289.3,166.1,288.7z M167,288.8c0,0.4,0.1,0.7,0.2,0.9c0.1,0.2,0.4,0.3,0.6,0.3c0.3,0,0.6-0.2,0.7-0.5V288
	c-0.2-0.3-0.4-0.4-0.7-0.4c-0.3,0-0.5,0.1-0.6,0.3C167.1,288.1,167,288.4,167,288.8z M172.2,287.7c-0.1,0-0.2,0-0.3,0
	c-0.4,0-0.6,0.1-0.8,0.4v2.5h-0.8v-3.7h0.8l0,0.4c0.2-0.3,0.5-0.5,0.8-0.5c0.1,0,0.2,0,0.3,0L172.2,287.7z M174.3,290.7
	c-0.5,0-1-0.2-1.3-0.5c-0.3-0.3-0.5-0.8-0.5-1.3v-0.1c0-0.4,0.1-0.7,0.2-1c0.1-0.3,0.3-0.5,0.6-0.7c0.3-0.2,0.5-0.2,0.9-0.2
	c0.5,0,0.9,0.2,1.2,0.5c0.3,0.3,0.4,0.8,0.4,1.4v0.3h-2.4c0,0.3,0.1,0.5,0.3,0.7c0.2,0.2,0.4,0.3,0.7,0.3c0.4,0,0.7-0.2,0.9-0.5
	l0.5,0.4c-0.1,0.2-0.3,0.4-0.6,0.5C174.9,290.6,174.6,290.7,174.3,290.7z M174.2,287.5c-0.2,0-0.4,0.1-0.6,0.2
	c-0.1,0.2-0.2,0.4-0.3,0.7h1.6v-0.1c0-0.3-0.1-0.5-0.2-0.6C174.6,287.6,174.4,287.5,174.2,287.5z M178.5,289.6
	c0-0.1-0.1-0.3-0.2-0.3c-0.1-0.1-0.3-0.1-0.6-0.2c-0.3-0.1-0.5-0.1-0.7-0.2c-0.4-0.2-0.6-0.5-0.6-0.9c0-0.3,0.1-0.6,0.4-0.8
	c0.3-0.2,0.6-0.3,1-0.3c0.4,0,0.8,0.1,1.1,0.3c0.3,0.2,0.4,0.5,0.4,0.9h-0.8c0-0.2-0.1-0.3-0.2-0.4c-0.1-0.1-0.3-0.2-0.5-0.2
	c-0.2,0-0.3,0-0.4,0.1c-0.1,0.1-0.2,0.2-0.2,0.3c0,0.1,0.1,0.2,0.2,0.3c0.1,0.1,0.3,0.1,0.7,0.2c0.3,0.1,0.6,0.2,0.8,0.3
	c0.2,0.1,0.3,0.2,0.4,0.4c0.1,0.1,0.1,0.3,0.1,0.5c0,0.3-0.1,0.6-0.4,0.8c-0.3,0.2-0.6,0.3-1.1,0.3c-0.3,0-0.6-0.1-0.8-0.2
	c-0.2-0.1-0.4-0.3-0.6-0.5c-0.1-0.2-0.2-0.4-0.2-0.6h0.8c0,0.2,0.1,0.3,0.2,0.5c0.1,0.1,0.3,0.2,0.5,0.2c0.2,0,0.4,0,0.5-0.1
	C178.5,289.9,178.5,289.7,178.5,289.6z M182.2,289.6c0-0.1-0.1-0.3-0.2-0.3c-0.1-0.1-0.3-0.1-0.6-0.2c-0.3-0.1-0.5-0.1-0.7-0.2
	c-0.4-0.2-0.6-0.5-0.6-0.9c0-0.3,0.1-0.6,0.4-0.8c0.3-0.2,0.6-0.3,1-0.3c0.4,0,0.8,0.1,1.1,0.3c0.3,0.2,0.4,0.5,0.4,0.9h-0.8
	c0-0.2-0.1-0.3-0.2-0.4c-0.1-0.1-0.3-0.2-0.5-0.2c-0.2,0-0.3,0-0.4,0.1c-0.1,0.1-0.2,0.2-0.2,0.3c0,0.1,0.1,0.2,0.2,0.3
	c0.1,0.1,0.3,0.1,0.7,0.2c0.3,0.1,0.6,0.2,0.8,0.3c0.2,0.1,0.3,0.2,0.4,0.4c0.1,0.1,0.1,0.3,0.1,0.5c0,0.3-0.1,0.6-0.4,0.8
	c-0.3,0.2-0.6,0.3-1.1,0.3c-0.3,0-0.6-0.1-0.8-0.2c-0.2-0.1-0.4-0.3-0.6-0.5c-0.1-0.2-0.2-0.4-0.2-0.6h0.8c0,0.2,0.1,0.3,0.2,0.5
	c0.1,0.1,0.3,0.2,0.5,0.2c0.2,0,0.4,0,0.5-0.1C182.1,289.9,182.2,289.7,182.2,289.6z"/>
<path class="st1" d="M132.5,289c-0.1,0.5-0.2,1-0.6,1.2c-0.3,0.3-0.8,0.4-1.4,0.4c-0.4,0-0.8-0.1-1.1-0.3c-0.3-0.2-0.5-0.5-0.7-0.8
	c-0.2-0.3-0.3-0.8-0.3-1.2v-0.5c0-0.5,0.1-0.9,0.3-1.2c0.2-0.4,0.4-0.6,0.7-0.8c0.3-0.2,0.7-0.3,1.1-0.3c0.6,0,1,0.2,1.3,0.4
	c0.3,0.3,0.5,0.7,0.6,1.3h-0.9c0-0.4-0.1-0.6-0.3-0.8c-0.2-0.2-0.4-0.2-0.7-0.2c-0.4,0-0.7,0.1-0.9,0.4c-0.2,0.3-0.3,0.7-0.3,1.2
	v0.4c0,0.5,0.1,1,0.3,1.2c0.2,0.3,0.5,0.4,0.9,0.4c0.3,0,0.6-0.1,0.8-0.2c0.2-0.2,0.3-0.4,0.3-0.8H132.5z M135.2,288.7h-1v1.9h-0.9
	v-5h1.8c0.6,0,1,0.1,1.3,0.4c0.3,0.3,0.5,0.6,0.5,1.1c0,0.3-0.1,0.6-0.2,0.8c-0.2,0.2-0.4,0.4-0.7,0.5l1.1,2.1v0h-0.9L135.2,288.7z
	 M134.2,288h0.9c0.3,0,0.5-0.1,0.7-0.2c0.2-0.1,0.2-0.4,0.2-0.6c0-0.3-0.1-0.5-0.2-0.6c-0.2-0.1-0.4-0.2-0.7-0.2h-0.9V288z
	 M138.6,289.9h2.3v0.7h-3.1v-5h0.9V289.9z"/>
<path class="st0" d="M12.7,374.3h-1.9l-0.4,1.2H9.4l1.9-5h0.8l1.9,5h-0.9L12.7,374.3z M11,373.6h1.5l-0.7-2.1L11,373.6z M15.4,375.4
	h-0.8v-5.3h0.8V375.4z M17.2,375.4h-0.8v-3.7h0.8V375.4z M16.3,370.8c0-0.1,0-0.2,0.1-0.3c0.1-0.1,0.2-0.1,0.4-0.1
	c0.2,0,0.3,0,0.4,0.1c0.1,0.1,0.1,0.2,0.1,0.3c0,0.1,0,0.2-0.1,0.3c-0.1,0.1-0.2,0.1-0.4,0.1c-0.2,0-0.3,0-0.4-0.1
	C16.3,371,16.3,370.9,16.3,370.8z M19.6,374.8c0.2,0,0.4-0.1,0.5-0.2c0.1-0.1,0.2-0.3,0.2-0.5h0.8c0,0.2-0.1,0.4-0.2,0.6
	c-0.1,0.2-0.3,0.4-0.5,0.5c-0.2,0.1-0.5,0.2-0.7,0.2c-0.5,0-0.9-0.2-1.2-0.5c-0.3-0.3-0.5-0.8-0.5-1.4v-0.1c0-0.6,0.2-1,0.5-1.4
	c0.3-0.3,0.7-0.5,1.2-0.5c0.4,0,0.8,0.1,1.1,0.4c0.3,0.3,0.4,0.6,0.4,1h-0.8c0-0.2-0.1-0.4-0.2-0.5c-0.1-0.1-0.3-0.2-0.5-0.2
	c-0.3,0-0.5,0.1-0.6,0.3c-0.1,0.2-0.2,0.5-0.2,0.9v0.1c0,0.4,0.1,0.7,0.2,0.9C19.1,374.7,19.3,374.8,19.6,374.8z M23.4,375.5
	c-0.5,0-1-0.2-1.3-0.5c-0.3-0.3-0.5-0.8-0.5-1.3v-0.1c0-0.4,0.1-0.7,0.2-1c0.1-0.3,0.3-0.5,0.6-0.7c0.3-0.2,0.5-0.2,0.9-0.2
	c0.5,0,0.9,0.2,1.2,0.5c0.3,0.3,0.4,0.8,0.4,1.4v0.3h-2.4c0,0.3,0.1,0.5,0.3,0.7c0.2,0.2,0.4,0.3,0.7,0.3c0.4,0,0.7-0.2,0.9-0.5
	l0.5,0.4c-0.1,0.2-0.3,0.4-0.6,0.5C24,375.4,23.7,375.5,23.4,375.5z M23.3,372.3c-0.2,0-0.4,0.1-0.6,0.2c-0.1,0.2-0.2,0.4-0.3,0.7
	h1.6v-0.1c0-0.3-0.1-0.5-0.2-0.6C23.7,372.4,23.5,372.3,23.3,372.3z M29.4,374.4c0-0.1-0.1-0.3-0.2-0.3c-0.1-0.1-0.3-0.1-0.6-0.2
	c-0.3-0.1-0.5-0.1-0.7-0.2c-0.4-0.2-0.6-0.5-0.6-0.9c0-0.3,0.1-0.6,0.4-0.8c0.3-0.2,0.6-0.3,1-0.3c0.4,0,0.8,0.1,1.1,0.3
	c0.3,0.2,0.4,0.5,0.4,0.9h-0.8c0-0.2-0.1-0.3-0.2-0.4c-0.1-0.1-0.3-0.2-0.5-0.2c-0.2,0-0.3,0-0.5,0.1c-0.1,0.1-0.2,0.2-0.2,0.3
	c0,0.1,0.1,0.2,0.2,0.3c0.1,0.1,0.3,0.1,0.7,0.2c0.3,0.1,0.6,0.2,0.8,0.3c0.2,0.1,0.3,0.2,0.4,0.4c0.1,0.1,0.1,0.3,0.1,0.5
	c0,0.3-0.1,0.6-0.4,0.8c-0.3,0.2-0.6,0.3-1.1,0.3c-0.3,0-0.6-0.1-0.8-0.2c-0.2-0.1-0.4-0.3-0.6-0.5c-0.1-0.2-0.2-0.4-0.2-0.6h0.8
	c0,0.2,0.1,0.3,0.2,0.5c0.1,0.1,0.3,0.2,0.5,0.2c0.2,0,0.4,0,0.5-0.1C29.3,374.7,29.4,374.6,29.4,374.4z M32.6,375.5
	c-0.5,0-1-0.2-1.3-0.5c-0.3-0.3-0.5-0.8-0.5-1.3v-0.1c0-0.4,0.1-0.7,0.2-1c0.1-0.3,0.3-0.5,0.6-0.7c0.3-0.2,0.5-0.2,0.9-0.2
	c0.5,0,0.9,0.2,1.2,0.5c0.3,0.3,0.4,0.8,0.4,1.4v0.3h-2.4c0,0.3,0.1,0.5,0.3,0.7c0.2,0.2,0.4,0.3,0.7,0.3c0.4,0,0.7-0.2,0.9-0.5
	l0.5,0.4c-0.1,0.2-0.3,0.4-0.6,0.5C33.2,375.4,32.9,375.5,32.6,375.5z M32.5,372.3c-0.2,0-0.4,0.1-0.6,0.2c-0.1,0.2-0.2,0.4-0.3,0.7
	h1.6v-0.1c0-0.3-0.1-0.5-0.2-0.6S32.7,372.3,32.5,372.3z M35.5,371.7l0,0.4c0.3-0.3,0.6-0.5,1.1-0.5c0.8,0,1.2,0.4,1.2,1.3v2.5h-0.8
	V373c0-0.2-0.1-0.4-0.2-0.5c-0.1-0.1-0.3-0.2-0.5-0.2c-0.3,0-0.6,0.2-0.8,0.5v2.6h-0.8v-3.7H35.5z M38.5,373.6c0-0.6,0.1-1,0.4-1.4
	c0.3-0.3,0.6-0.5,1.1-0.5c0.4,0,0.7,0.1,1,0.4v-1.9h0.8v5.3H41l0-0.4c-0.2,0.3-0.6,0.5-1,0.5c-0.4,0-0.8-0.2-1.1-0.5
	C38.6,374.6,38.5,374.2,38.5,373.6z M39.3,373.6c0,0.4,0.1,0.7,0.2,0.9c0.1,0.2,0.4,0.3,0.6,0.3c0.3,0,0.6-0.2,0.7-0.5v-1.6
	c-0.2-0.3-0.4-0.4-0.7-0.4c-0.3,0-0.5,0.1-0.6,0.3C39.4,372.9,39.3,373.2,39.3,373.6z M46.6,375.4h-0.8v-4l-1.2,0.4v-0.7l2-0.7h0.1
	V375.4z M51.6,373.3c0,0.7-0.1,1.3-0.4,1.6c-0.3,0.4-0.7,0.5-1.2,0.5c-0.5,0-0.9-0.2-1.2-0.5c-0.3-0.4-0.4-0.9-0.4-1.6v-0.9
	c0-0.7,0.1-1.3,0.4-1.6c0.3-0.4,0.7-0.5,1.2-0.5c0.5,0,1,0.2,1.2,0.5c0.3,0.3,0.4,0.9,0.4,1.6V373.3z M50.7,372.4
	c0-0.5-0.1-0.8-0.2-1c-0.1-0.2-0.3-0.3-0.6-0.3c-0.3,0-0.5,0.1-0.6,0.3c-0.1,0.2-0.2,0.5-0.2,1v1.1c0,0.5,0.1,0.8,0.2,1
	c0.1,0.2,0.3,0.3,0.6,0.3c0.3,0,0.5-0.1,0.6-0.3c0.1-0.2,0.2-0.5,0.2-1V372.4z"/>
<path class="st1" d="M58,373.8c-0.1,0.5-0.2,1-0.6,1.2c-0.3,0.3-0.8,0.4-1.4,0.4c-0.4,0-0.8-0.1-1.1-0.3c-0.3-0.2-0.5-0.5-0.7-0.8
	c-0.2-0.3-0.3-0.7-0.3-1.2v-0.5c0-0.5,0.1-0.9,0.3-1.2c0.2-0.4,0.4-0.6,0.7-0.8c0.3-0.2,0.7-0.3,1.1-0.3c0.6,0,1,0.2,1.3,0.4
	c0.3,0.3,0.5,0.7,0.6,1.3h-0.9c0-0.4-0.1-0.6-0.3-0.8c-0.2-0.2-0.4-0.2-0.7-0.2c-0.4,0-0.7,0.1-0.9,0.4c-0.2,0.3-0.3,0.7-0.3,1.2
	v0.4c0,0.5,0.1,1,0.3,1.2c0.2,0.3,0.5,0.4,0.9,0.4c0.3,0,0.6-0.1,0.8-0.2c0.2-0.2,0.3-0.4,0.3-0.8H58z M60.6,373.5h-1v1.9h-0.9v-5
	h1.8c0.6,0,1,0.1,1.3,0.4c0.3,0.3,0.5,0.6,0.5,1.1c0,0.3-0.1,0.6-0.2,0.8c-0.2,0.2-0.4,0.4-0.7,0.5l1.1,2.1v0h-0.9L60.6,373.5z
	 M59.7,372.8h0.9c0.3,0,0.5-0.1,0.7-0.2c0.2-0.1,0.2-0.4,0.2-0.6c0-0.3-0.1-0.5-0.2-0.6c-0.2-0.1-0.4-0.2-0.7-0.2h-0.9V372.8z
	 M64,374.7h2.3v0.7h-3.1v-5H64V374.7z"/>
<path class="st3" d="M88.1,135.6c0-2.8,2.3-5,5-5c2.8,0,5,2.2,5,5v0.8c0.2,0.2,0.3,0.5,0.3,0.9c0,0.3-0.1,0.6-0.3,0.9
	c0.1,0.7,0.3,1.4,0.8,2c1,1.2,1.2,2.9,0.6,4.3c0.6,0.6,0.9,1.3,0.9,2.2v4h-0.7v-4c0-1.2-0.9-2.2-2-2.3l-1.3-0.2v6.5h-0.7v-6.3
	l-2.4,4.2c-0.1,0.1-0.2,0.2-0.3,0.2c-0.1,0-0.2-0.1-0.3-0.2l-2.4-4.2v6.3h-0.7v-6.5l-1.3,0.2c-1.2,0.1-2,1.1-2,2.3v4h-0.7v-4
	c0-0.8,0.3-1.6,0.9-2.2c-0.5-1.4-0.3-2.9,0.5-4.2l0.2-0.3c0.4-0.6,0.7-1.3,0.7-2V135.6z M95.2,144c-0.4-0.1-0.7-0.5-0.7-1v-1
	c-0.4,0.2-0.9,0.2-1.4,0.2c-0.5,0-0.9-0.1-1.3-0.2v1c0,0.5-0.3,0.9-0.7,1l2.1,3.6L95.2,144z M95.1,141.7v1.3c0,0.2,0.1,0.3,0.3,0.3
	l2.4,0.3c0.4,0.1,0.8,0.2,1.2,0.4c0.4-1.2,0.2-2.5-0.6-3.5c-0.5-0.6-0.8-1.3-0.9-2c-0.1,0-0.3,0.1-0.4,0.1H97
	C96.9,139.9,96.2,141.1,95.1,141.7z M89.2,138.7c0.1,1.3,0.9,2.4,1.9,3.1v1.3c0,0.2-0.1,0.3-0.3,0.3l-2.4,0.3
	c-0.4,0.1-0.8,0.2-1.2,0.4c-0.4-1.1-0.2-2.4,0.5-3.3l0.2-0.3c0.5-0.7,0.8-1.5,0.8-2.4v-2.5c0-2.4,2-4.3,4.3-4.3s4.3,1.9,4.3,4.3v0.4
	c-0.1,0-0.2,0-0.3,0h-0.2c-1.2-1-2.1-2.8-2.2-2.8c-0.1-0.1-0.2-0.2-0.3-0.2c-0.1,0-0.2,0-0.3,0.1c-1.6,2.3-4.9,4.2-4.9,4.2
	c-0.1,0.1-0.2,0.2-0.2,0.3L89.2,138.7z M97.1,136.6L97,138h0.1c0.4,0,0.7-0.3,0.7-0.7C97.8,136.9,97.5,136.6,97.1,136.6L97.1,136.6z
	 M96.3,138.6c-0.1,1.7-1.5,3-3.2,3c-1.7,0-3.1-1.3-3.2-3l-0.1-0.8c0.2-0.1,0.4-0.3,0.8-0.5c0.1,0.2,0.3,0.3,0.6,0.3
	c0.4,0,0.7-0.3,0.7-0.7c0-0.2-0.1-0.3-0.2-0.4c0.9-0.7,2-1.6,2.8-2.6c0.4,0.6,1.1,1.8,2,2.5L96.3,138.6z M95.1,137.6
	c0.4,0,0.7-0.3,0.7-0.7c0-0.4-0.3-0.7-0.7-0.7c-0.4,0-0.7,0.3-0.7,0.7C94.4,137.3,94.7,137.6,95.1,137.6z M93.4,137.4l-0.4,0.9h0.5
	v0.7h-1c-0.1,0-0.2-0.1-0.3-0.2c-0.1-0.1-0.1-0.2,0-0.3l0.7-1.3L93.4,137.4z M94,139.3c-0.4,0.2-0.8,0.3-1.3,0.3h0h-0.3v0.7h0.3h0
	c0.5,0,1.1-0.1,1.6-0.4L94,139.3z"/>
<path class="st3" d="M88.1,283.1c0-2.8,2.3-5,5-5c2.8,0,5,2.2,5,5v0.8c0.2,0.2,0.3,0.5,0.3,0.9c0,0.3-0.1,0.6-0.3,0.9
	c0.1,0.7,0.3,1.4,0.8,2c1,1.2,1.2,2.9,0.6,4.3c0.6,0.5,0.9,1.3,0.9,2.2v4h-0.7v-4c0-1.2-0.9-2.2-2-2.3l-1.3-0.2v6.5h-0.7v-6.3
	l-2.4,4.2c-0.1,0.1-0.2,0.2-0.3,0.2c-0.1,0-0.2-0.1-0.3-0.2l-2.4-4.2v6.3h-0.7v-6.5l-1.3,0.2c-1.2,0.1-2,1.1-2,2.3v4h-0.7v-4
	c0-0.8,0.3-1.6,0.9-2.2c-0.5-1.4-0.3-2.9,0.5-4.2l0.2-0.3c0.4-0.6,0.7-1.3,0.7-2V283.1z M95.2,291.5c-0.4-0.1-0.7-0.5-0.7-1v-1
	c-0.4,0.2-0.9,0.3-1.4,0.3c-0.5,0-0.9-0.1-1.3-0.2v1c0,0.5-0.3,0.9-0.7,1l2.1,3.6L95.2,291.5z M95.1,289.2v1.3
	c0,0.2,0.1,0.3,0.3,0.3l2.4,0.3c0.4,0.1,0.8,0.2,1.2,0.4c0.4-1.2,0.2-2.5-0.6-3.5c-0.5-0.6-0.8-1.3-0.9-2c-0.1,0-0.3,0.1-0.4,0.1H97
	C96.9,287.5,96.2,288.6,95.1,289.2z M89.2,286.2c0.1,1.3,0.9,2.4,1.9,3.1v1.3c0,0.2-0.1,0.3-0.3,0.3l-2.4,0.3
	c-0.4,0.1-0.8,0.2-1.2,0.4c-0.4-1.1-0.2-2.4,0.5-3.3l0.2-0.3c0.5-0.7,0.8-1.5,0.8-2.4v-2.5c0-2.4,2-4.3,4.3-4.3s4.3,1.9,4.3,4.3v0.4
	c-0.1,0-0.2,0-0.3,0h-0.2c-1.2-1-2.1-2.8-2.2-2.8c-0.1-0.1-0.2-0.2-0.3-0.2c-0.1,0-0.2,0-0.3,0.1c-1.6,2.3-4.9,4.2-4.9,4.2
	c-0.1,0.1-0.2,0.2-0.2,0.3L89.2,286.2z M97.1,284.1l-0.1,1.3h0.1c0.4,0,0.7-0.3,0.7-0.7C97.8,284.4,97.5,284.1,97.1,284.1
	L97.1,284.1z M96.3,286.1c-0.1,1.7-1.5,3-3.2,3c-1.7,0-3.1-1.3-3.2-3l-0.1-0.8c0.2-0.1,0.4-0.3,0.8-0.5c0.1,0.2,0.3,0.3,0.6,0.3
	c0.4,0,0.7-0.3,0.7-0.7c0-0.2-0.1-0.3-0.2-0.4c0.9-0.7,2-1.6,2.8-2.6c0.4,0.6,1.1,1.8,2,2.5L96.3,286.1z M95.1,285.1
	c0.4,0,0.7-0.3,0.7-0.7c0-0.4-0.3-0.7-0.7-0.7c-0.4,0-0.7,0.3-0.7,0.7C94.4,284.8,94.7,285.1,95.1,285.1z M93.4,285l-0.4,0.9h0.5
	v0.7h-1c-0.1,0-0.2-0.1-0.3-0.2c-0.1-0.1-0.1-0.2,0-0.3l0.7-1.3L93.4,285z M94,286.8c-0.4,0.2-0.8,0.3-1.3,0.3h0h-0.3v0.7h0.3h0
	c0.5,0,1.1-0.1,1.6-0.4L94,286.8z"/>
<path class="st0" d="M147.8,74.4c-0.3-0.3-0.8-0.3-1.1,0l-5,5c-0.3,0.3-0.3,0.8,0,1.1c0.3,0.3,0.8,0.3,1.1,0l4.4-4.4l4.4,4.4
	c0.3,0.3,0.8,0.3,1.1,0c0.3-0.3,0.3-0.8,0-1.1L147.8,74.4z M148,118.6V74.9h-1.6v43.7H148z"/>
<path class="st1" d="M147.8,161.8c-0.3-0.3-0.8-0.3-1.1,0l-5,5c-0.3,0.3-0.3,0.8,0,1.1c0.3,0.3,0.8,0.3,1.1,0l4.4-4.4l4.4,4.4
	c0.3,0.3,0.8,0.3,1.1,0c0.3-0.3,0.3-0.8,0-1.1L147.8,161.8z M148,180.6v-18.2h-1.6v18.2H148z"/>
<path class="st0" d="M67.4,306.2c0-0.4-0.4-0.7-0.8-0.7l-7,0.6c-0.4,0-0.7,0.4-0.7,0.8c0,0.4,0.4,0.7,0.8,0.7l6.2-0.6l0.6,6.2
	c0,0.4,0.4,0.7,0.8,0.7c0.4,0,0.7-0.4,0.7-0.8L67.4,306.2z M39.2,340.3l28.1-33.6l-1.2-1L38,339.3L39.2,340.3z"/>
<path class="st1" d="M76,162.5c-0.2-0.4-0.7-0.5-1.1-0.3l-6.1,3.4c-0.4,0.2-0.5,0.7-0.3,1.1c0.2,0.4,0.7,0.5,1.1,0.3l5.5-3.1
	l3.1,5.4c0.2,0.4,0.7,0.5,1.1,0.3c0.4-0.2,0.5-0.7,0.3-1.1L76,162.5z M27.6,335.8l48.5-172.8l-1.5-0.4L26.1,335.4L27.6,335.8z"/>
<path class="st1" d="M208.1,162.5c0.2-0.4,0.7-0.5,1.1-0.3l6.1,3.4c0.4,0.2,0.5,0.7,0.3,1.1c-0.2,0.4-0.7,0.5-1.1,0.3l-5.5-3.1
	l-3.1,5.4c-0.2,0.4-0.7,0.5-1.1,0.3s-0.5-0.7-0.3-1.1L208.1,162.5z M256.5,335.8L208,163.1l1.5-0.4L258,335.4L256.5,335.8z"/>
<path class="st0" d="M215.6,355.2c0.2-0.2,0.2-0.4,0-0.6l-2.5-2.5c-0.2-0.2-0.4-0.2-0.6,0c-0.2,0.2-0.2,0.4,0,0.6l2.2,2.2l-2.2,2.2
	c-0.2,0.2-0.2,0.4,0,0.6c0.2,0.2,0.4,0.2,0.6,0L215.6,355.2z M67.8,355.3h1.3v-0.8h-1.3V355.3z M71.7,355.3h2.6v-0.8h-2.6V355.3z
	 M77,355.3h2.6v-0.8H77V355.3z M82.3,355.3h2.6v-0.8h-2.6V355.3z M87.5,355.3h2.6v-0.8h-2.6V355.3z M92.8,355.3h2.6v-0.8h-2.6V355.3
	z M98.1,355.3h2.6v-0.8h-2.6V355.3z M103.3,355.3h2.6v-0.8h-2.6V355.3z M108.6,355.3h2.6v-0.8h-2.6V355.3z M113.9,355.3h2.6v-0.8
	h-2.6V355.3z M119.1,355.3h2.6v-0.8h-2.6V355.3z M124.4,355.3h2.6v-0.8h-2.6V355.3z M129.7,355.3h2.6v-0.8h-2.6V355.3z M134.9,355.3
	h2.6v-0.8h-2.6V355.3z M140.2,355.3h2.6v-0.8h-2.6V355.3z M145.5,355.3h2.6v-0.8h-2.6V355.3z M150.7,355.3h2.6v-0.8h-2.6V355.3z
	 M156,355.3h2.6v-0.8H156V355.3z M161.3,355.3h2.6v-0.8h-2.6V355.3z M166.5,355.3h2.6v-0.8h-2.6V355.3z M171.8,355.3h2.6v-0.8h-2.6
	V355.3z M177.1,355.3h2.6v-0.8h-2.6V355.3z M182.4,355.3h2.6v-0.8h-2.6V355.3z M187.6,355.3h2.6v-0.8h-2.6V355.3z M192.9,355.3h2.6
	v-0.8h-2.6V355.3z M198.2,355.3h2.6v-0.8h-2.6V355.3z M203.4,355.3h2.6v-0.8h-2.6V355.3z M208.7,355.3h2.6v-0.8h-2.6V355.3z
	 M214,355.3h1.3v-0.8H214V355.3z M215.8,355.4c0.3-0.3,0.3-0.8,0-1.1l-5-5c-0.3-0.3-0.8-0.3-1.1,0c-0.3,0.3-0.3,0.8,0,1.1l4.4,4.4
	l-4.4,4.4c-0.3,0.3-0.3,0.8,0,1.1c0.3,0.3,0.8,0.3,1.1,0L215.8,355.4z M67.8,355.7h1.3v-1.6h-1.3V355.7z M71.7,355.7h2.6v-1.6h-2.6
	V355.7z M77,355.7h2.6v-1.6H77V355.7z M82.3,355.7h2.6v-1.6h-2.6V355.7z M87.5,355.7h2.6v-1.6h-2.6V355.7z M92.8,355.7h2.6v-1.6
	h-2.6V355.7z M98.1,355.7h2.6v-1.6h-2.6V355.7z M103.3,355.7h2.6v-1.6h-2.6V355.7z M108.6,355.7h2.6v-1.6h-2.6V355.7z M113.9,355.7
	h2.6v-1.6h-2.6V355.7z M119.1,355.7h2.6v-1.6h-2.6V355.7z M124.4,355.7h2.6v-1.6h-2.6V355.7z M129.7,355.7h2.6v-1.6h-2.6V355.7z
	 M134.9,355.7h2.6v-1.6h-2.6V355.7z M140.2,355.7h2.6v-1.6h-2.6V355.7z M145.5,355.7h2.6v-1.6h-2.6V355.7z M150.7,355.7h2.6v-1.6
	h-2.6V355.7z M156,355.7h2.6v-1.6H156V355.7z M161.3,355.7h2.6v-1.6h-2.6V355.7z M166.5,355.7h2.6v-1.6h-2.6V355.7z M171.8,355.7
	h2.6v-1.6h-2.6V355.7z M177.1,355.7h2.6v-1.6h-2.6V355.7z M182.4,355.7h2.6v-1.6h-2.6V355.7z M187.6,355.7h2.6v-1.6h-2.6V355.7z
	 M192.9,355.7h2.6v-1.6h-2.6V355.7z M198.2,355.7h2.6v-1.6h-2.6V355.7z M203.4,355.7h2.6v-1.6h-2.6V355.7z M208.7,355.7h2.6v-1.6
	h-2.6V355.7z M214,355.7h1.3v-1.6H214V355.7z"/>
<path class="st0" d="M146.7,271.1c0.3,0.3,0.8,0.3,1.1,0l5-5c0.3-0.3,0.3-0.8,0-1.1c-0.3-0.3-0.8-0.3-1.1,0l-4.4,4.4l-4.4-4.4
	c-0.3-0.3-0.8-0.3-1.1,0c-0.3,0.3-0.3,0.8,0,1.1L146.7,271.1z M147.8,240.9c-0.3-0.3-0.8-0.3-1.1,0l-5,5c-0.3,0.3-0.3,0.8,0,1.1
	c0.3,0.3,0.8,0.3,1.1,0l4.4-4.4l4.4,4.4c0.3,0.3,0.8,0.3,1.1,0c0.3-0.3,0.3-0.8,0-1.1L147.8,240.9z M148,270.6v-29.1h-1.6v29.1H148z
	"/>
<path class="st0" d="M130.5,64.8h-1.7V66h2v0.6h-2.7v-4.1h2.6v0.6h-1.9v1.1h1.7V64.8z M134.6,66.6h-0.7l-1.8-2.9v2.9h-0.7v-4.1h0.7
	l1.8,2.9v-2.9h0.7V66.6z M138.7,64.7c0,0.4-0.1,0.7-0.2,1c-0.1,0.3-0.3,0.5-0.5,0.7l0.7,0.5l-0.5,0.4l-0.9-0.7c-0.1,0-0.2,0-0.4,0
	c-0.3,0-0.6-0.1-0.9-0.2c-0.3-0.2-0.5-0.4-0.6-0.7c-0.1-0.3-0.2-0.6-0.2-1v-0.2c0-0.4,0.1-0.7,0.2-1.1c0.1-0.3,0.3-0.5,0.6-0.7
	c0.3-0.2,0.6-0.2,0.9-0.2c0.3,0,0.6,0.1,0.9,0.2c0.3,0.2,0.5,0.4,0.6,0.7c0.1,0.3,0.2,0.6,0.2,1V64.7z M138,64.5
	c0-0.5-0.1-0.8-0.3-1c-0.2-0.2-0.4-0.4-0.7-0.4c-0.3,0-0.5,0.1-0.7,0.4c-0.2,0.2-0.3,0.6-0.3,1v0.2c0,0.4,0.1,0.8,0.3,1
	c0.2,0.2,0.4,0.4,0.7,0.4c0.3,0,0.6-0.1,0.7-0.4c0.2-0.2,0.3-0.6,0.3-1V64.5z M144.1,66.6h-0.7l-1.8-2.9v2.9h-0.7v-4.1h0.7l1.8,2.9
	v-2.9h0.7V66.6z M146.2,66.7c-0.4,0-0.8-0.1-1.1-0.4c-0.3-0.3-0.4-0.6-0.4-1.1v-0.1c0-0.3,0.1-0.6,0.2-0.8c0.1-0.2,0.3-0.4,0.5-0.6
	c0.2-0.1,0.4-0.2,0.7-0.2c0.4,0,0.7,0.1,1,0.4c0.2,0.3,0.3,0.6,0.3,1.1v0.3h-2c0,0.2,0.1,0.4,0.2,0.6c0.1,0.1,0.3,0.2,0.6,0.2
	c0.3,0,0.6-0.1,0.8-0.4l0.4,0.3c-0.1,0.2-0.3,0.3-0.5,0.4C146.6,66.6,146.4,66.7,146.2,66.7z M146.1,64.1c-0.2,0-0.3,0.1-0.5,0.2
	c-0.1,0.1-0.2,0.3-0.2,0.5h1.3v-0.1c0-0.2-0.1-0.4-0.2-0.5C146.4,64.1,146.3,64.1,146.1,64.1z M148.8,62.8v0.7h0.5v0.5h-0.5v1.7
	c0,0.1,0,0.2,0.1,0.3c0,0.1,0.1,0.1,0.2,0.1c0.1,0,0.2,0,0.2,0v0.5c-0.2,0-0.3,0.1-0.4,0.1c-0.5,0-0.8-0.3-0.8-0.9v-1.7h-0.5v-0.5
	h0.5v-0.7H148.8z M152.5,65.7l0.5-2.1h0.7l-0.8,3h-0.6l-0.6-2.1l-0.6,2.1h-0.6l-0.8-3h0.7l0.5,2.1l0.6-2.1h0.5L152.5,65.7z
	 M153.9,65.1c0-0.3,0.1-0.6,0.2-0.8c0.1-0.2,0.3-0.4,0.5-0.5c0.2-0.1,0.5-0.2,0.7-0.2c0.4,0,0.7,0.1,1,0.4c0.3,0.3,0.4,0.6,0.4,1
	l0,0.2c0,0.3-0.1,0.6-0.2,0.8c-0.1,0.2-0.3,0.4-0.5,0.5c-0.2,0.1-0.5,0.2-0.7,0.2c-0.4,0-0.8-0.1-1-0.4
	C154.1,66,153.9,65.6,153.9,65.1L153.9,65.1z M154.6,65.1c0,0.3,0.1,0.6,0.2,0.7c0.1,0.2,0.3,0.3,0.5,0.3c0.2,0,0.4-0.1,0.5-0.3
	c0.1-0.2,0.2-0.4,0.2-0.8c0-0.3-0.1-0.5-0.2-0.7c-0.1-0.2-0.3-0.3-0.5-0.3c-0.2,0-0.4,0.1-0.5,0.3C154.7,64.5,154.6,64.8,154.6,65.1
	z M158.9,64.2c-0.1,0-0.2,0-0.3,0c-0.3,0-0.5,0.1-0.6,0.4v2.1h-0.7v-3h0.7l0,0.3c0.2-0.3,0.4-0.4,0.7-0.4c0.1,0,0.2,0,0.2,0
	L158.9,64.2z M160.3,65.3l-0.3,0.3v1h-0.7v-4.3h0.7v2.5l0.2-0.3l0.8-0.9h0.8l-1.1,1.3l1.2,1.8h-0.8L160.3,65.3z"/>
<path class="st0" d="M60.5,325v1.5h-0.7v-4.1h1.6c0.5,0,0.8,0.1,1.1,0.4c0.3,0.2,0.4,0.6,0.4,0.9c0,0.4-0.1,0.7-0.4,0.9
	c-0.3,0.2-0.6,0.3-1.1,0.3H60.5z M60.5,324.4h0.9c0.3,0,0.4-0.1,0.6-0.2c0.1-0.1,0.2-0.3,0.2-0.5c0-0.2-0.1-0.4-0.2-0.5
	c-0.1-0.1-0.3-0.2-0.6-0.2h-0.9V324.4z M65.2,326.5c0-0.1-0.1-0.2-0.1-0.3c-0.2,0.2-0.5,0.3-0.8,0.3c-0.3,0-0.6-0.1-0.7-0.3
	c-0.2-0.2-0.3-0.4-0.3-0.6c0-0.3,0.1-0.6,0.4-0.7c0.2-0.2,0.6-0.3,1-0.3h0.4v-0.2c0-0.2,0-0.3-0.1-0.4c-0.1-0.1-0.2-0.1-0.4-0.1
	c-0.2,0-0.3,0-0.4,0.1c-0.1,0.1-0.1,0.2-0.1,0.3h-0.7c0-0.2,0.1-0.3,0.2-0.5c0.1-0.1,0.3-0.3,0.4-0.3c0.2-0.1,0.4-0.1,0.6-0.1
	c0.4,0,0.6,0.1,0.8,0.3c0.2,0.2,0.3,0.4,0.3,0.7v1.4c0,0.3,0,0.5,0.1,0.7v0H65.2z M64.5,326c0.1,0,0.3,0,0.4-0.1
	c0.1-0.1,0.2-0.2,0.3-0.3v-0.6h-0.4c-0.3,0-0.4,0-0.6,0.1c-0.1,0.1-0.2,0.2-0.2,0.4c0,0.1,0,0.2,0.1,0.3C64.2,326,64.3,326,64.5,326
	z M67.5,325.6l0.6-2h0.7l-1.2,3.5c-0.2,0.5-0.5,0.8-0.9,0.8c-0.1,0-0.2,0-0.3,0v-0.5l0.1,0c0.2,0,0.3,0,0.4-0.1
	c0.1-0.1,0.2-0.2,0.2-0.3l0.1-0.3l-1.1-3h0.7L67.5,325.6z M72.5,326.5h-0.7v-3.3l-1,0.3V323l1.6-0.6h0.1V326.5z M87.5,326.5V324H87
	v-0.5h0.5v-0.3c0-0.3,0.1-0.6,0.3-0.8c0.2-0.2,0.4-0.3,0.8-0.3c0.1,0,0.2,0,0.4,0.1l0,0.5c-0.1,0-0.2,0-0.3,0
	c-0.3,0-0.5,0.2-0.5,0.5v0.3h0.6v0.5h-0.6v2.5H87.5z M90.5,326.6c-0.4,0-0.8-0.1-1-0.4c-0.3-0.3-0.4-0.6-0.4-1.1V325
	c0-0.3,0.1-0.6,0.2-0.8c0.1-0.2,0.3-0.4,0.5-0.6c0.2-0.1,0.4-0.2,0.7-0.2c0.4,0,0.7,0.1,1,0.4c0.2,0.3,0.3,0.6,0.3,1.1v0.3h-2
	c0,0.3,0.1,0.4,0.2,0.6c0.1,0.1,0.3,0.2,0.6,0.2c0.3,0,0.6-0.1,0.8-0.4l0.4,0.3c-0.1,0.2-0.3,0.3-0.5,0.4
	C91,326.5,90.8,326.6,90.5,326.6z M90.4,324c-0.2,0-0.3,0.1-0.5,0.2c-0.1,0.1-0.2,0.3-0.2,0.5h1.3v0c0-0.2-0.1-0.4-0.2-0.5
	C90.8,324,90.6,324,90.4,324z M93.6,326.6c-0.4,0-0.8-0.1-1-0.4c-0.3-0.3-0.4-0.6-0.4-1.1V325c0-0.3,0.1-0.6,0.2-0.8
	c0.1-0.2,0.3-0.4,0.5-0.6c0.2-0.1,0.4-0.2,0.7-0.2c0.4,0,0.7,0.1,1,0.4c0.2,0.3,0.3,0.6,0.3,1.1v0.3h-2c0,0.3,0.1,0.4,0.2,0.6
	c0.1,0.1,0.3,0.2,0.6,0.2c0.3,0,0.6-0.1,0.8-0.4l0.4,0.3c-0.1,0.2-0.3,0.3-0.5,0.4C94.1,326.5,93.9,326.6,93.6,326.6z M93.5,324
	c-0.2,0-0.3,0.1-0.5,0.2c-0.1,0.1-0.2,0.3-0.2,0.5h1.3v0c0-0.2-0.1-0.4-0.2-0.5S93.7,324,93.5,324z M97,326.5V324h-0.5v-0.5H97v-0.3
	c0-0.3,0.1-0.6,0.3-0.8s0.4-0.3,0.8-0.3c0.1,0,0.2,0,0.4,0.1l0,0.5c-0.1,0-0.2,0-0.3,0c-0.3,0-0.5,0.2-0.5,0.5v0.3h0.6v0.5h-0.6v2.5
	H97z M98.7,325c0-0.3,0.1-0.6,0.2-0.8c0.1-0.2,0.3-0.4,0.5-0.5c0.2-0.1,0.5-0.2,0.7-0.2c0.4,0,0.7,0.1,1,0.4c0.3,0.3,0.4,0.6,0.4,1
	l0,0.2c0,0.3-0.1,0.6-0.2,0.8c-0.1,0.2-0.3,0.4-0.5,0.5c-0.2,0.1-0.5,0.2-0.7,0.2c-0.4,0-0.8-0.1-1-0.4
	C98.8,325.9,98.7,325.5,98.7,325L98.7,325z M99.4,325c0,0.3,0.1,0.6,0.2,0.7c0.1,0.2,0.3,0.3,0.5,0.3c0.2,0,0.4-0.1,0.5-0.3
	c0.1-0.2,0.2-0.4,0.2-0.8c0-0.3-0.1-0.5-0.2-0.7c-0.1-0.2-0.3-0.3-0.5-0.3c-0.2,0-0.4,0.1-0.5,0.3C99.4,324.4,99.4,324.7,99.4,325z
	 M103.7,324.1c-0.1,0-0.2,0-0.3,0c-0.3,0-0.5,0.1-0.6,0.4v2.1h-0.7v-3h0.6l0,0.3c0.2-0.3,0.4-0.4,0.7-0.4c0.1,0,0.2,0,0.2,0
	L103.7,324.1z M60.6,329.5v0.7h0.5v0.5h-0.5v1.7c0,0.1,0,0.2,0.1,0.3c0,0,0.1,0.1,0.2,0.1c0.1,0,0.2,0,0.2,0v0.5
	c-0.2,0-0.3,0.1-0.4,0.1c-0.5,0-0.8-0.3-0.8-0.9v-1.7h-0.5v-0.5h0.5v-0.7H60.6z M63.3,330.9c-0.1,0-0.2,0-0.3,0
	c-0.3,0-0.5,0.1-0.6,0.4v2.1h-0.7v-3h0.6l0,0.3c0.2-0.3,0.4-0.4,0.7-0.4c0.1,0,0.2,0,0.2,0L63.3,330.9z M65.4,333.3
	c0-0.1-0.1-0.2-0.1-0.3c-0.2,0.2-0.5,0.3-0.8,0.3c-0.3,0-0.6-0.1-0.7-0.3c-0.2-0.2-0.3-0.4-0.3-0.6c0-0.3,0.1-0.6,0.4-0.7
	c0.2-0.2,0.6-0.3,1-0.3h0.4v-0.2c0-0.2,0-0.3-0.1-0.4c-0.1-0.1-0.2-0.1-0.4-0.1c-0.2,0-0.3,0-0.4,0.1c-0.1,0.1-0.1,0.2-0.1,0.3h-0.7
	c0-0.2,0.1-0.3,0.2-0.5c0.1-0.1,0.3-0.3,0.4-0.3c0.2-0.1,0.4-0.1,0.6-0.1c0.4,0,0.6,0.1,0.8,0.3c0.2,0.2,0.3,0.4,0.3,0.8v1.4
	c0,0.3,0,0.5,0.1,0.7v0H65.4z M64.7,332.8c0.1,0,0.3,0,0.4-0.1c0.1-0.1,0.2-0.2,0.3-0.3v-0.6H65c-0.3,0-0.4,0-0.6,0.1
	c-0.1,0.1-0.2,0.2-0.2,0.4c0,0.1,0,0.2,0.1,0.3C64.4,332.8,64.5,332.8,64.7,332.8z M67.3,330.3l0,0.3c0.2-0.3,0.5-0.4,0.9-0.4
	c0.6,0,1,0.4,1,1.1v2h-0.7v-2c0-0.2,0-0.3-0.1-0.4c-0.1-0.1-0.2-0.1-0.4-0.1c-0.3,0-0.5,0.1-0.6,0.4v2.2h-0.7v-3H67.3z M71.6,332.5
	c0-0.1-0.1-0.2-0.2-0.3c-0.1-0.1-0.3-0.1-0.5-0.2c-0.2,0-0.4-0.1-0.6-0.2c-0.3-0.2-0.5-0.4-0.5-0.7c0-0.3,0.1-0.5,0.3-0.7
	c0.2-0.2,0.5-0.3,0.8-0.3c0.4,0,0.7,0.1,0.9,0.3c0.2,0.2,0.3,0.4,0.3,0.7h-0.7c0-0.1,0-0.2-0.1-0.3c-0.1-0.1-0.2-0.1-0.4-0.1
	c-0.1,0-0.3,0-0.4,0.1c-0.1,0.1-0.1,0.2-0.1,0.3c0,0.1,0,0.2,0.1,0.2c0.1,0.1,0.3,0.1,0.5,0.2c0.3,0.1,0.5,0.1,0.6,0.2
	c0.2,0.1,0.3,0.2,0.3,0.3c0.1,0.1,0.1,0.3,0.1,0.4c0,0.3-0.1,0.5-0.3,0.7c-0.2,0.2-0.5,0.3-0.9,0.3c-0.2,0-0.5,0-0.7-0.1
	c-0.2-0.1-0.3-0.2-0.5-0.4c-0.1-0.2-0.2-0.3-0.2-0.5h0.7c0,0.2,0.1,0.3,0.2,0.4c0.1,0.1,0.3,0.1,0.4,0.1c0.2,0,0.3,0,0.4-0.1
	C71.6,332.7,71.6,332.6,71.6,332.5z M74.7,333.3c0-0.1-0.1-0.2-0.1-0.3c-0.2,0.2-0.5,0.3-0.8,0.3c-0.3,0-0.6-0.1-0.7-0.3
	c-0.2-0.2-0.3-0.4-0.3-0.6c0-0.3,0.1-0.6,0.4-0.7c0.2-0.2,0.6-0.3,1-0.3h0.4v-0.2c0-0.2,0-0.3-0.1-0.4c-0.1-0.1-0.2-0.1-0.4-0.1
	c-0.2,0-0.3,0-0.4,0.1c-0.1,0.1-0.1,0.2-0.1,0.3h-0.7c0-0.2,0.1-0.3,0.2-0.5c0.1-0.1,0.3-0.3,0.4-0.3c0.2-0.1,0.4-0.1,0.6-0.1
	c0.4,0,0.6,0.1,0.8,0.3c0.2,0.2,0.3,0.4,0.3,0.8v1.4c0,0.3,0,0.5,0.1,0.7v0H74.7z M73.9,332.8c0.1,0,0.3,0,0.4-0.1
	c0.1-0.1,0.2-0.2,0.3-0.3v-0.6h-0.4c-0.3,0-0.4,0-0.6,0.1c-0.1,0.1-0.2,0.2-0.2,0.4c0,0.1,0,0.2,0.1,0.3
	C73.7,332.8,73.8,332.8,73.9,332.8z M77.2,332.8c0.2,0,0.3,0,0.4-0.1c0.1-0.1,0.2-0.2,0.2-0.4h0.6c0,0.2-0.1,0.4-0.2,0.5
	c-0.1,0.2-0.3,0.3-0.4,0.4c-0.2,0.1-0.4,0.1-0.6,0.1c-0.4,0-0.8-0.1-1-0.4c-0.2-0.3-0.4-0.7-0.4-1.1v-0.1c0-0.5,0.1-0.8,0.4-1.1
	c0.2-0.3,0.6-0.4,1-0.4c0.4,0,0.7,0.1,0.9,0.3c0.2,0.2,0.3,0.5,0.4,0.8h-0.6c0-0.2-0.1-0.3-0.2-0.4c-0.1-0.1-0.3-0.2-0.4-0.2
	c-0.2,0-0.4,0.1-0.5,0.2c-0.1,0.2-0.2,0.4-0.2,0.7v0.1c0,0.3,0.1,0.6,0.2,0.7C76.8,332.7,77,332.8,77.2,332.8z M79.8,329.5v0.7h0.5
	v0.5h-0.5v1.7c0,0.1,0,0.2,0.1,0.3c0,0,0.1,0.1,0.2,0.1c0.1,0,0.2,0,0.2,0v0.5c-0.2,0-0.3,0.1-0.4,0.1c-0.5,0-0.8-0.3-0.8-0.9v-1.7
	h-0.5v-0.5h0.5v-0.7H79.8z M81.6,333.3h-0.7v-3h0.7V333.3z M80.9,329.5c0-0.1,0-0.2,0.1-0.3c0.1-0.1,0.2-0.1,0.3-0.1
	c0.1,0,0.2,0,0.3,0.1c0.1,0.1,0.1,0.2,0.1,0.3c0,0.1,0,0.2-0.1,0.3c-0.1,0.1-0.2,0.1-0.3,0.1c-0.1,0-0.2,0-0.3-0.1
	C80.9,329.7,80.9,329.6,80.9,329.5z M82.2,331.8c0-0.3,0.1-0.6,0.2-0.8c0.1-0.2,0.3-0.4,0.5-0.5c0.2-0.1,0.5-0.2,0.7-0.2
	c0.4,0,0.7,0.1,1,0.4c0.3,0.3,0.4,0.6,0.4,1l0,0.2c0,0.3-0.1,0.6-0.2,0.8c-0.1,0.2-0.3,0.4-0.5,0.5c-0.2,0.1-0.5,0.2-0.7,0.2
	c-0.4,0-0.8-0.1-1-0.4C82.3,332.6,82.2,332.3,82.2,331.8L82.2,331.8z M82.9,331.8c0,0.3,0.1,0.6,0.2,0.7c0.1,0.2,0.3,0.3,0.5,0.3
	c0.2,0,0.4-0.1,0.5-0.3c0.1-0.2,0.2-0.4,0.2-0.8c0-0.3-0.1-0.5-0.2-0.7c-0.1-0.2-0.3-0.3-0.5-0.3c-0.2,0-0.4,0.1-0.5,0.3
	C83,331.2,82.9,331.5,82.9,331.8z M86.2,330.3l0,0.3c0.2-0.3,0.5-0.4,0.9-0.4c0.6,0,1,0.4,1,1.1v2h-0.7v-2c0-0.2,0-0.3-0.1-0.4
	c-0.1-0.1-0.2-0.1-0.4-0.1c-0.3,0-0.5,0.1-0.6,0.4v2.2h-0.7v-3H86.2z"/>
<path class="st1" d="M78.5,325.2c0,0.4-0.2,0.8-0.5,1c-0.3,0.2-0.7,0.4-1.1,0.4c-0.3,0-0.6-0.1-0.9-0.2c-0.2-0.2-0.4-0.4-0.6-0.7
	c-0.1-0.3-0.2-0.6-0.2-1v-0.4c0-0.4,0.1-0.7,0.2-1c0.1-0.3,0.3-0.5,0.6-0.7c0.3-0.2,0.6-0.2,0.9-0.2c0.4,0,0.8,0.1,1.1,0.4
	c0.3,0.2,0.4,0.6,0.5,1h-0.7c0-0.3-0.1-0.5-0.3-0.6c-0.1-0.1-0.3-0.2-0.6-0.2c-0.3,0-0.5,0.1-0.7,0.3c-0.2,0.2-0.2,0.6-0.3,1v0.4
	c0,0.4,0.1,0.8,0.2,1c0.2,0.2,0.4,0.3,0.7,0.3c0.3,0,0.5-0.1,0.6-0.2c0.1-0.1,0.2-0.3,0.3-0.6H78.5z M80.7,325h-0.8v1.6h-0.7v-4.1
	h1.4c0.5,0,0.8,0.1,1.1,0.3c0.3,0.2,0.4,0.5,0.4,0.9c0,0.3-0.1,0.5-0.2,0.7c-0.1,0.2-0.3,0.3-0.5,0.4l0.9,1.7v0h-0.8L80.7,325z
	 M79.9,324.4h0.7c0.2,0,0.4-0.1,0.6-0.2c0.1-0.1,0.2-0.3,0.2-0.5c0-0.2-0.1-0.4-0.2-0.5c-0.1-0.1-0.3-0.2-0.6-0.2h-0.7V324.4z
	 M83.5,326h1.9v0.6h-2.6v-4.1h0.7V326z"/>
<path class="st0" d="M233.7,212.3c0,0.4-0.2,0.8-0.5,1c-0.3,0.2-0.7,0.4-1.1,0.4c-0.3,0-0.6-0.1-0.9-0.2c-0.2-0.2-0.4-0.4-0.6-0.7
	c-0.1-0.3-0.2-0.6-0.2-1v-0.4c0-0.4,0.1-0.7,0.2-1c0.1-0.3,0.3-0.5,0.6-0.7c0.3-0.2,0.6-0.2,0.9-0.2c0.4,0,0.8,0.1,1.1,0.4
	c0.3,0.2,0.4,0.6,0.5,1H233c0-0.3-0.1-0.5-0.3-0.6c-0.1-0.1-0.3-0.2-0.6-0.2c-0.3,0-0.5,0.1-0.7,0.3c-0.2,0.2-0.2,0.6-0.3,1v0.4
	c0,0.4,0.1,0.8,0.2,1c0.2,0.2,0.4,0.3,0.7,0.3c0.3,0,0.5-0.1,0.6-0.2s0.2-0.3,0.3-0.6H233.7z M236,213.6c0-0.1-0.1-0.2-0.1-0.3
	c-0.2,0.2-0.5,0.3-0.8,0.3c-0.3,0-0.6-0.1-0.7-0.3c-0.2-0.2-0.3-0.4-0.3-0.6c0-0.3,0.1-0.6,0.4-0.7c0.2-0.2,0.6-0.3,1-0.3h0.4v-0.2
	c0-0.2,0-0.3-0.1-0.4c-0.1-0.1-0.2-0.1-0.4-0.1c-0.2,0-0.3,0-0.4,0.1c-0.1,0.1-0.1,0.2-0.1,0.3h-0.7c0-0.2,0.1-0.3,0.2-0.5
	c0.1-0.1,0.3-0.3,0.4-0.3c0.2-0.1,0.4-0.1,0.6-0.1c0.4,0,0.6,0.1,0.8,0.3c0.2,0.2,0.3,0.4,0.3,0.7v1.4c0,0.3,0,0.5,0.1,0.7v0H236z
	 M235.3,213.1c0.1,0,0.3,0,0.4-0.1c0.1-0.1,0.2-0.2,0.3-0.3v-0.6h-0.4c-0.3,0-0.4,0-0.6,0.1c-0.1,0.1-0.2,0.2-0.2,0.4
	c0,0.1,0,0.2,0.1,0.3C235,213.1,235.1,213.1,235.3,213.1z M238,210.6l0,0.4c0.2-0.3,0.5-0.4,0.9-0.4c0.6,0,1,0.4,1,1.1v2h-0.7v-2
	c0-0.2,0-0.3-0.1-0.4c-0.1-0.1-0.2-0.1-0.4-0.1c-0.3,0-0.5,0.1-0.6,0.4v2.2h-0.7v-3H238z M243.6,212.8c0-0.1-0.1-0.2-0.2-0.3
	c-0.1-0.1-0.3-0.1-0.5-0.2c-0.2,0-0.4-0.1-0.6-0.2c-0.3-0.2-0.5-0.4-0.5-0.7c0-0.3,0.1-0.5,0.3-0.7c0.2-0.2,0.5-0.3,0.8-0.3
	c0.4,0,0.7,0.1,0.9,0.3c0.2,0.2,0.3,0.4,0.3,0.7h-0.7c0-0.1,0-0.2-0.1-0.3c-0.1-0.1-0.2-0.1-0.4-0.1c-0.1,0-0.3,0-0.4,0.1
	c-0.1,0.1-0.1,0.2-0.1,0.3c0,0.1,0,0.2,0.1,0.2c0.1,0.1,0.3,0.1,0.5,0.2c0.3,0.1,0.5,0.1,0.6,0.2c0.2,0.1,0.3,0.2,0.3,0.3
	c0.1,0.1,0.1,0.3,0.1,0.4c0,0.3-0.1,0.5-0.3,0.7c-0.2,0.2-0.5,0.3-0.9,0.3c-0.2,0-0.5,0-0.7-0.1c-0.2-0.1-0.3-0.2-0.5-0.4
	c-0.1-0.2-0.2-0.3-0.2-0.5h0.7c0,0.2,0.1,0.3,0.2,0.4c0.1,0.1,0.3,0.1,0.4,0.1c0.2,0,0.3,0,0.4-0.1
	C243.6,213,243.6,212.9,243.6,212.8z M246.2,213.7c-0.4,0-0.8-0.1-1.1-0.4c-0.3-0.3-0.4-0.6-0.4-1.1v-0.1c0-0.3,0.1-0.6,0.2-0.8
	c0.1-0.2,0.3-0.4,0.5-0.6c0.2-0.1,0.4-0.2,0.7-0.2c0.4,0,0.7,0.1,1,0.4c0.2,0.3,0.3,0.6,0.3,1.1v0.3h-2c0,0.2,0.1,0.4,0.3,0.6
	c0.1,0.1,0.3,0.2,0.6,0.2c0.3,0,0.6-0.1,0.8-0.4l0.4,0.3c-0.1,0.2-0.3,0.3-0.5,0.4C246.7,213.6,246.5,213.7,246.2,213.7z
	 M246.2,211.1c-0.2,0-0.3,0.1-0.5,0.2c-0.1,0.1-0.2,0.3-0.2,0.5h1.3v-0.1c0-0.2-0.1-0.4-0.2-0.5
	C246.5,211.1,246.4,211.1,246.2,211.1z M248.6,210.6l0,0.4c0.2-0.3,0.5-0.4,0.9-0.4c0.6,0,1,0.4,1,1.1v2h-0.7v-2
	c0-0.2,0-0.3-0.1-0.4c-0.1-0.1-0.2-0.1-0.4-0.1c-0.3,0-0.5,0.1-0.6,0.4v2.2H248v-3H248.6z M251.1,212.1c0-0.5,0.1-0.8,0.3-1.1
	c0.2-0.3,0.5-0.4,0.9-0.4c0.3,0,0.6,0.1,0.8,0.3v-1.5h0.7v4.3h-0.6l0-0.3c-0.2,0.2-0.5,0.4-0.8,0.4c-0.4,0-0.6-0.1-0.9-0.4
	C251.2,213,251.1,212.6,251.1,212.1z M251.7,212.1c0,0.3,0.1,0.5,0.2,0.7c0.1,0.2,0.3,0.3,0.5,0.3c0.3,0,0.5-0.1,0.6-0.4v-1.3
	c-0.1-0.2-0.3-0.4-0.6-0.4c-0.2,0-0.4,0.1-0.5,0.3C251.8,211.5,251.7,211.8,251.7,212.1z"/>
<path class="st1" d="M232.9,218.6h-1.7v1.3h2v0.6h-2.7v-4.1h2.6v0.6h-1.9v1.1h1.7V218.6z M237,220.4h-0.7l-1.8-2.9v2.9h-0.7v-4.1
	h0.7l1.8,2.9v-2.9h0.7V220.4z M241.1,218.4c0,0.4-0.1,0.7-0.2,1c-0.1,0.3-0.3,0.5-0.5,0.7l0.7,0.5l-0.5,0.4l-0.9-0.7
	c-0.1,0-0.2,0-0.4,0c-0.3,0-0.6-0.1-0.9-0.2c-0.3-0.2-0.5-0.4-0.6-0.7c-0.1-0.3-0.2-0.6-0.2-1v-0.2c0-0.4,0.1-0.7,0.2-1.1
	c0.1-0.3,0.3-0.5,0.6-0.7c0.3-0.2,0.6-0.2,0.9-0.2c0.3,0,0.6,0.1,0.9,0.2c0.3,0.2,0.5,0.4,0.6,0.7c0.1,0.3,0.2,0.6,0.2,1V218.4z
	 M240.4,218.2c0-0.5-0.1-0.8-0.3-1c-0.2-0.2-0.4-0.4-0.7-0.4c-0.3,0-0.5,0.1-0.7,0.4c-0.2,0.2-0.3,0.6-0.3,1v0.2
	c0,0.4,0.1,0.8,0.3,1c0.2,0.2,0.4,0.4,0.7,0.4c0.3,0,0.6-0.1,0.7-0.4c0.2-0.2,0.3-0.6,0.3-1V218.2z"/>
<path class="st4" d="M146.2,58.3c16.1,0,29.2-13,29.2-29.1S162.3,0,146.2,0C130.1,0,117,13,117,29.1S130.1,58.3,146.2,58.3z"/>
<path class="st0" d="M34.3,212.3c0,0.4-0.2,0.8-0.5,1c-0.3,0.2-0.7,0.4-1.1,0.4c-0.3,0-0.6-0.1-0.9-0.2c-0.2-0.2-0.4-0.4-0.6-0.7
	c-0.1-0.3-0.2-0.6-0.2-1v-0.4c0-0.4,0.1-0.7,0.2-1c0.1-0.3,0.3-0.5,0.6-0.7c0.3-0.2,0.6-0.2,0.9-0.2c0.4,0,0.8,0.1,1.1,0.4
	c0.3,0.2,0.4,0.6,0.5,1h-0.7c0-0.3-0.1-0.5-0.3-0.6c-0.1-0.1-0.3-0.2-0.6-0.2c-0.3,0-0.5,0.1-0.7,0.3c-0.2,0.2-0.2,0.6-0.3,1v0.4
	c0,0.4,0.1,0.8,0.2,1c0.2,0.2,0.4,0.3,0.7,0.3c0.3,0,0.5-0.1,0.6-0.2s0.2-0.3,0.3-0.6H34.3z M36.7,213.6c0-0.1-0.1-0.2-0.1-0.3
	c-0.2,0.2-0.5,0.3-0.8,0.3c-0.3,0-0.6-0.1-0.7-0.3c-0.2-0.2-0.3-0.4-0.3-0.6c0-0.3,0.1-0.6,0.4-0.7c0.2-0.2,0.6-0.3,1-0.3h0.4v-0.2
	c0-0.2,0-0.3-0.1-0.4c-0.1-0.1-0.2-0.1-0.4-0.1c-0.2,0-0.3,0-0.4,0.1c-0.1,0.1-0.1,0.2-0.1,0.3h-0.7c0-0.2,0.1-0.3,0.2-0.5
	c0.1-0.1,0.3-0.3,0.4-0.3c0.2-0.1,0.4-0.1,0.6-0.1c0.4,0,0.6,0.1,0.8,0.3c0.2,0.2,0.3,0.4,0.3,0.7v1.4c0,0.3,0,0.5,0.1,0.7v0H36.7z
	 M36,213.1c0.1,0,0.3,0,0.4-0.1c0.1-0.1,0.2-0.2,0.3-0.3v-0.6h-0.4c-0.3,0-0.4,0-0.6,0.1c-0.1,0.1-0.2,0.2-0.2,0.4
	c0,0.1,0,0.2,0.1,0.3C35.7,213.1,35.8,213.1,36,213.1z M38.6,210.6l0,0.4c0.2-0.3,0.5-0.4,0.9-0.4c0.6,0,1,0.4,1,1.1v2h-0.7v-2
	c0-0.2,0-0.3-0.1-0.4c-0.1-0.1-0.2-0.1-0.4-0.1c-0.3,0-0.5,0.1-0.6,0.4v2.2H38v-3H38.6z M44.3,212.8c0-0.1-0.1-0.2-0.2-0.3
	c-0.1-0.1-0.3-0.1-0.5-0.2c-0.2,0-0.4-0.1-0.6-0.2c-0.3-0.2-0.5-0.4-0.5-0.7c0-0.3,0.1-0.5,0.3-0.7c0.2-0.2,0.5-0.3,0.8-0.3
	c0.4,0,0.7,0.1,0.9,0.3c0.2,0.2,0.3,0.4,0.3,0.7h-0.7c0-0.1,0-0.2-0.1-0.3c-0.1-0.1-0.2-0.1-0.4-0.1c-0.1,0-0.3,0-0.4,0.1
	c-0.1,0.1-0.1,0.2-0.1,0.3c0,0.1,0,0.2,0.1,0.2c0.1,0.1,0.3,0.1,0.5,0.2c0.3,0.1,0.5,0.1,0.6,0.2c0.2,0.1,0.3,0.2,0.3,0.3
	c0.1,0.1,0.1,0.3,0.1,0.4c0,0.3-0.1,0.5-0.3,0.7c-0.2,0.2-0.5,0.3-0.9,0.3c-0.2,0-0.5,0-0.7-0.1c-0.2-0.1-0.3-0.2-0.5-0.4
	c-0.1-0.2-0.2-0.3-0.2-0.5h0.7c0,0.2,0.1,0.3,0.2,0.4c0.1,0.1,0.3,0.1,0.4,0.1c0.2,0,0.3,0,0.4-0.1C44.3,213,44.3,212.9,44.3,212.8z
	 M46.9,213.7c-0.4,0-0.8-0.1-1.1-0.4c-0.3-0.3-0.4-0.6-0.4-1.1v-0.1c0-0.3,0.1-0.6,0.2-0.8c0.1-0.2,0.3-0.4,0.5-0.6
	c0.2-0.1,0.4-0.2,0.7-0.2c0.4,0,0.7,0.1,1,0.4c0.2,0.3,0.3,0.6,0.3,1.1v0.3h-2c0,0.2,0.1,0.4,0.2,0.6c0.1,0.1,0.3,0.2,0.6,0.2
	c0.3,0,0.6-0.1,0.8-0.4l0.4,0.3c-0.1,0.2-0.3,0.3-0.5,0.4C47.4,213.6,47.2,213.7,46.9,213.7z M46.8,211.1c-0.2,0-0.3,0.1-0.5,0.2
	c-0.1,0.1-0.2,0.3-0.2,0.5h1.3v-0.1c0-0.2-0.1-0.4-0.2-0.5C47.2,211.1,47,211.1,46.8,211.1z M49.3,210.6l0,0.4
	c0.2-0.3,0.5-0.4,0.9-0.4c0.6,0,1,0.4,1,1.1v2h-0.7v-2c0-0.2,0-0.3-0.1-0.4c-0.1-0.1-0.2-0.1-0.4-0.1c-0.3,0-0.5,0.1-0.6,0.4v2.2
	h-0.7v-3H49.3z M51.7,212.1c0-0.5,0.1-0.8,0.3-1.1c0.2-0.3,0.5-0.4,0.9-0.4c0.3,0,0.6,0.1,0.8,0.3v-1.5h0.7v4.3h-0.6l0-0.3
	c-0.2,0.2-0.5,0.4-0.8,0.4c-0.4,0-0.6-0.1-0.9-0.4C51.8,213,51.7,212.6,51.7,212.1z M52.4,212.1c0,0.3,0.1,0.5,0.2,0.7
	c0.1,0.2,0.3,0.3,0.5,0.3c0.3,0,0.5-0.1,0.6-0.4v-1.3c-0.1-0.2-0.3-0.4-0.6-0.4c-0.2,0-0.4,0.1-0.5,0.3
	C52.5,211.5,52.4,211.8,52.4,212.1z"/>
<path class="st1" d="M46.3,218.6h-1.7v1.3h2v0.6h-2.7v-4.1h2.6v0.6h-1.9v1.1h1.7V218.6z M50.4,220.4h-0.7l-1.8-2.9v2.9h-0.7v-4.1
	h0.7l1.8,2.9v-2.9h0.7V220.4z M54.4,218.4c0,0.4-0.1,0.7-0.2,1c-0.1,0.3-0.3,0.5-0.5,0.7l0.7,0.5l-0.5,0.4l-0.9-0.7
	c-0.1,0-0.2,0-0.4,0c-0.3,0-0.6-0.1-0.9-0.2c-0.3-0.2-0.5-0.4-0.6-0.7c-0.1-0.3-0.2-0.6-0.2-1v-0.2c0-0.4,0.1-0.7,0.2-1.1
	c0.1-0.3,0.3-0.5,0.6-0.7c0.3-0.2,0.6-0.2,0.9-0.2c0.3,0,0.6,0.1,0.9,0.2c0.3,0.2,0.5,0.4,0.6,0.7c0.1,0.3,0.2,0.6,0.2,1V218.4z
	 M53.7,218.2c0-0.5-0.1-0.8-0.3-1c-0.2-0.2-0.4-0.4-0.7-0.4c-0.3,0-0.5,0.1-0.7,0.4c-0.2,0.2-0.3,0.6-0.3,1v0.2c0,0.4,0.1,0.8,0.3,1
	c0.2,0.2,0.4,0.4,0.7,0.4c0.3,0,0.6-0.1,0.7-0.4c0.2-0.2,0.3-0.6,0.3-1V218.2z"/>
<path class="st1" d="M163.5,34.6V24c1.8-0.4,3.1-2,3.1-3.9c0-2.2-1.8-4-4-4c-1.2,0-2.3,0.5-3,1.3l-9-5.2c0.1-0.4,0.2-0.8,0.2-1.2
	c0-2.2-1.8-4-4-4c-2.2,0-4,1.8-4,4c0,0.4,0.1,0.8,0.2,1.2l-9.1,5.2c-0.7-0.8-1.8-1.4-3-1.4c-2.2,0-4,1.8-4,4c0,1.9,1.4,3.5,3.2,3.9
	v1.3c0,0.5,0.4,0.9,0.9,0.9c0.5,0,0.9-0.4,0.9-0.9V24c0.8-0.2,1.6-0.6,2.1-1.2l4.5,2.6c-0.6,1.2-0.9,2.5-0.9,3.9
	c0,1.4,0.3,2.7,0.9,3.9l-4.5,2.6c-0.6-0.6-1.3-1-2.1-1.2v-1.3c0-0.5-0.4-0.9-0.9-0.9c-0.5,0-0.9,0.4-0.9,0.9v1.3
	c-1.8,0.4-3.2,2-3.2,3.9c0,2.2,1.8,4,4,4c1.2,0,2.2-0.5,3-1.3l9.1,5.2c-0.1,0.4-0.2,0.8-0.2,1.2c0,2.2,1.8,4,4,4c2.2,0,4-1.8,4-4
	c0-0.4-0.1-0.8-0.2-1.2l9.1-5.2c0.7,0.8,1.8,1.3,3,1.3c2.2,0,4-1.8,4-4C166.5,36.7,165.2,35.1,163.5,34.6z M159.5,35.8l-4.5-2.6
	c0.6-1.2,0.9-2.5,0.9-3.9c0-1.4-0.3-2.7-0.9-3.9l4.5-2.6c0.6,0.6,1.3,1,2.1,1.2v10.6C160.9,34.8,160.1,35.2,159.5,35.8z M162.5,17.8
	c1.3,0,2.3,1,2.3,2.3c0,1.3-1,2.3-2.3,2.3c-1.3,0-2.3-1-2.3-2.3C160.2,18.9,161.3,17.8,162.5,17.8z M158.6,18.9
	c-0.1,0.4-0.2,0.8-0.2,1.2c0,0.4,0.1,0.8,0.2,1.2l-4.5,2.6c-1.5-2.1-3.9-3.5-6.7-3.8V15c0.8-0.2,1.5-0.6,2.1-1.2L158.6,18.9z
	 M146.6,8.8c1.3,0,2.3,1,2.3,2.3c0,1.3-1,2.3-2.3,2.3c-1.3,0-2.3-1-2.3-2.3C144.4,9.8,145.4,8.8,146.6,8.8z M130.7,22.4
	c-1.3,0-2.3-1-2.3-2.3c0-1.3,1-2.3,2.3-2.3c1.3,0,2.3,1,2.3,2.3C133,21.4,132,22.4,130.7,22.4z M134.5,21.3c0.1-0.4,0.2-0.8,0.2-1.2
	c0-0.4-0.1-0.8-0.2-1.1l9.1-5.2c0.5,0.6,1.3,1,2.1,1.2v5.2c-2.7,0.3-5.1,1.7-6.7,3.8L134.5,21.3z M130.7,40.8c-1.3,0-2.3-1-2.3-2.3
	c0-1.3,1-2.3,2.3-2.3c1.3,0,2.3,1,2.3,2.3C133,39.8,132,40.8,130.7,40.8z M134.6,39.7c0.1-0.4,0.2-0.8,0.2-1.2
	c0-0.4-0.1-0.8-0.2-1.2l4.5-2.6c1.5,2.1,3.9,3.6,6.7,3.8v5.2c-0.8,0.2-1.5,0.6-2.1,1.2L134.6,39.7z M146.6,49.9
	c-1.3,0-2.3-1-2.3-2.3c0-1.3,1-2.3,2.3-2.3c1.3,0,2.3,1,2.3,2.3C148.9,48.9,147.9,49.9,146.6,49.9z M149.6,45
	c-0.5-0.6-1.3-1-2.1-1.2v-5.2c2.7-0.3,5.1-1.7,6.7-3.8l4.5,2.6c-0.1,0.4-0.2,0.8-0.2,1.2c0,0.4,0.1,0.8,0.2,1.2L149.6,45z
	 M162.5,40.8c-1.3,0-2.3-1-2.3-2.3c0-1.3,1-2.3,2.3-2.3c1.3,0,2.3,1,2.3,2.3C164.8,39.8,163.8,40.8,162.5,40.8z"/>
<path class="st1" d="M130.7,30.2c0.2,0,0.5-0.1,0.6-0.3c0.2-0.2,0.3-0.4,0.3-0.6c0-0.2-0.1-0.5-0.3-0.6c-0.2-0.2-0.4-0.3-0.6-0.3
	c-0.2,0-0.5,0.1-0.6,0.3c-0.2,0.2-0.3,0.4-0.3,0.6c0,0.2,0.1,0.5,0.3,0.6C130.2,30.1,130.4,30.2,130.7,30.2z"/>
<path class="st5" d="M152.3,33.3c-0.1,0-0.2,0-0.3-0.1c-0.3-0.2-0.3-0.5-0.2-0.7c0.8-1.4,1-3,0.6-4.5c-0.4-1.5-1.4-2.8-2.8-3.6
	c-1.8-1.1-4.1-1.1-5.9,0c-0.3,0.2-0.6,0.1-0.7-0.2c-0.1-0.3-0.1-0.6,0.2-0.7c1.1-0.6,2.3-0.9,3.5-0.9c1.2,0,2.4,0.3,3.5,0.9
	c1.6,0.9,2.8,2.5,3.3,4.3c0.5,1.8,0.2,3.7-0.7,5.4C152.7,33.2,152.5,33.3,152.3,33.3z"/>
<path class="st5" d="M149,30h-4.6c-0.3,0-0.5-0.2-0.5-0.5c0-0.3,0.2-0.5,0.5-0.5h4.6c0.3,0,0.5,0.2,0.5,0.5
	C149.6,29.8,149.3,30,149,30z"/>
<path class="st5" d="M149.9,28.1h-4.3c-0.3,0-0.5-0.2-0.5-0.5c0-0.3,0.2-0.5,0.5-0.5h4.3c0.3,0,0.5,0.2,0.5,0.5
	C150.5,27.9,150.2,28.1,149.9,28.1z"/>
<path class="st5" d="M145.6,28.1c-0.2,0-0.4-0.1-0.5-0.3l-2.2-3.8c-0.1-0.3-0.1-0.6,0.2-0.7c0.3-0.2,0.6-0.1,0.7,0.2l2.2,3.8
	c0.1,0.3,0.1,0.6-0.2,0.7C145.8,28.1,145.7,28.1,145.6,28.1z"/>
<path class="st5" d="M147.8,31.9h-4.3c-0.3,0-0.5-0.2-0.5-0.5c0-0.3,0.2-0.5,0.5-0.5h4.3c0.3,0,0.5,0.2,0.5,0.5
	C148.3,31.6,148.1,31.9,147.8,31.9z"/>
<path class="st5" d="M149.9,35.7c-0.2,0-0.4-0.1-0.5-0.3l-2.2-3.8c-0.1-0.3-0.1-0.6,0.2-0.7c0.3-0.2,0.6-0.1,0.7,0.2l2.2,3.8
	c0.1,0.3,0.1,0.6-0.2,0.7C150.1,35.6,150,35.7,149.9,35.7z"/>
<path class="st5" d="M146.7,36.5c-1.2,0-2.4-0.3-3.5-0.9c-1.6-0.9-2.8-2.5-3.3-4.3c-0.5-1.8-0.2-3.7,0.7-5.4
	c0.1-0.3,0.5-0.4,0.7-0.2c0.3,0.2,0.3,0.5,0.2,0.7c-0.8,1.4-1,3-0.6,4.5c0.4,1.5,1.4,2.8,2.8,3.6c1.8,1.1,4.1,1.1,5.9,0
	c0.3-0.2,0.6-0.1,0.7,0.2c0.1,0.3,0.1,0.6-0.2,0.7C149.1,36.2,147.9,36.5,146.7,36.5z"/>
<path class="st3" d="M260.9,354.3h-0.7c0.8-0.8,1.3-1.8,1.4-2.9c0.7-0.1,1.3-0.8,1.3-1.6c0-0.8-0.6-1.4-1.3-1.6v0
	c0.7,0,1.3-0.6,1.3-1.3c0-0.4-0.2-0.7-0.4-1c0.1-0.2,0.1-0.4,0.1-0.6c0-1-0.7-1.8-1.6-1.9c-0.4-0.4-1-0.7-1.6-0.7h-4.5
	c-0.6,0-1.2,0.2-1.6,0.7c-0.9,0.2-1.6,1-1.6,1.9c0,0.2,0,0.4,0.1,0.6c-0.3,0.2-0.4,0.6-0.4,1c0,0.7,0.6,1.3,1.3,1.3v0
	c-0.7,0.2-1.3,0.8-1.3,1.6c0,0.8,0.6,1.4,1.3,1.6c0.1,1.1,0.6,2.2,1.4,2.9h-0.7c-1.6,0-2.9,1.3-2.9,2.9v5.2c0,0.2,0.1,0.3,0.3,0.3
	h12.9c0.2,0,0.3-0.1,0.3-0.3v-5.2C263.8,355.6,262.5,354.3,260.9,354.3z M255.4,355.3c0.5,0.2,1,0.3,1.6,0.3c0.6,0,1.1-0.1,1.6-0.3
	v0.3c0,0.9-0.7,1.6-1.6,1.6c-0.9,0-1.6-0.7-1.6-1.6V355.3z M262.2,349.8c0,0.4-0.3,0.8-0.6,0.9v-1.8
	C261.9,349,262.2,349.3,262.2,349.8z M261.9,345.2c0,0.2-0.1,0.4-0.2,0.6c0,0.1,0,0.2,0,0.2c0,0.1,0.1,0.2,0.2,0.2
	c0.2,0.1,0.3,0.3,0.3,0.6c0,0.4-0.3,0.6-0.6,0.6c-0.4,0-0.6-0.3-0.6-0.6c0-0.2-0.1-0.3-0.3-0.3c-0.7,0-1.3-0.6-1.3-1.3
	c0-0.7,0.6-1.3,1.3-1.3C261.3,343.9,261.9,344.5,261.9,345.2z M251.8,346.9c0-0.2,0.1-0.5,0.3-0.6c0.1,0,0.1-0.1,0.2-0.2
	c0-0.1,0-0.2,0-0.2c-0.1-0.2-0.2-0.4-0.2-0.6c0-0.7,0.6-1.3,1.3-1.3s1.3,0.6,1.3,1.3c0,0.7-0.6,1.3-1.3,1.3c-0.2,0-0.3,0.1-0.3,0.3
	c0,0.4-0.3,0.6-0.6,0.6C252.1,347.5,251.8,347.2,251.8,346.9z M253.7,347.2c0.9-0.1,1.7-0.9,1.7-1.9c0-0.8-0.5-1.5-1.3-1.8
	c0.2-0.1,0.4-0.1,0.6-0.1h4.5c0.2,0,0.4,0,0.6,0.1c-0.7,0.3-1.3,1-1.3,1.8c0,1,0.7,1.8,1.7,1.9c0.1,0.3,0.3,0.6,0.6,0.8v1.5h-0.4
	c-0.2-0.7-0.8-1.3-1.6-1.3c-0.8,0-1.4,0.6-1.6,1.3h-0.7c-0.2-0.7-0.8-1.3-1.6-1.3c-0.8,0-1.4,0.6-1.6,1.3h-0.4V348
	C253.4,347.8,253.6,347.5,253.7,347.2z M259.9,349.8c0,0.5-0.4,1-1,1c-0.5,0-1-0.4-1-1c0-0.5,0.4-1,1-1
	C259.5,348.8,259.9,349.2,259.9,349.8z M256,349.8c0,0.5-0.4,1-1,1c-0.5,0-1-0.4-1-1c0-0.5,0.4-1,1-1
	C255.6,348.8,256,349.2,256,349.8z M251.8,349.8c0-0.4,0.3-0.8,0.6-0.9v1.8C252.1,350.5,251.8,350.2,251.8,349.8z M253.1,351.1v-1
	h0.4c0.1,0.7,0.8,1.3,1.6,1.3c0.8,0,1.4-0.6,1.6-1.3h0.7c0.1,0.7,0.8,1.3,1.6,1.3c0.8,0,1.4-0.6,1.6-1.3h0.4v1
	c0,2.1-1.7,3.9-3.9,3.9C254.9,354.9,253.1,353.2,253.1,351.1z M263.2,362h-1.6v-3.6h-0.6v3.6h-7.8v-3.6h-0.6v3.6h-1.6v-4.8
	c0-1.2,1-2.3,2.3-2.3h1.6c0,0,0,0,0,0c0,0,0,0,0,0v0.6c0,1.2,1,2.3,2.3,2.3c1.2,0,2.3-1,2.3-2.3V355c0,0,0,0,0,0l0,0l0,0h1.6
	c1.3,0,2.3,1,2.3,2.3V362z M256.7,350.4h0.6v1.3h-0.6V350.4z M255.7,349.4h-1.3v0.6h1.3V349.4z M258.3,349.4h1.3v0.6h-1.3V349.4z
	 M259.3,352c0,1.2-1,2.3-2.3,2.3c-1.3,0-2.3-1-2.3-2.3h0.6c0,0.9,0.7,1.6,1.6,1.6c0.9,0,1.6-0.7,1.6-1.6H259.3z"/>
<path class="st6" d="M43.9,362.2c4.5,0,8.2-3.7,8.2-8.2c0-4.5-3.7-8.2-8.2-8.2c-4.5,0-8.2,3.7-8.2,8.2
	C35.7,358.5,39.4,362.2,43.9,362.2z"/>
<path class="st4" d="M46.3,362.2c4.5,0,8.2-3.7,8.2-8.2c0-4.5-3.7-8.2-8.2-8.2c-4.5,0-8.2,3.7-8.2,8.2
	C38.1,358.5,41.7,362.2,46.3,362.2z"/>
<path class="st7" d="M46.3,358.5c2.5,0,4.6-2,4.6-4.6c0-2.5-2-4.6-4.6-4.6s-4.6,2-4.6,4.6C41.7,356.5,43.7,358.5,46.3,358.5z"/>
<path class="st6" d="M110.8,350.2c2.3,0,4.2-1.9,4.2-4.2s-1.9-4.2-4.2-4.2s-4.2,1.9-4.2,4.2S108.5,350.2,110.8,350.2z"/>
<path class="st4" d="M112,350.2c2.3,0,4.2-1.9,4.2-4.2s-1.9-4.2-4.2-4.2s-4.2,1.9-4.2,4.2S109.7,350.2,112,350.2z"/>
<path class="st7" d="M112,348.4c1.3,0,2.3-1,2.3-2.3s-1-2.3-2.3-2.3c-1.3,0-2.3,1-2.3,2.3S110.7,348.4,112,348.4z"/>
<path class="st6" d="M229.7,362.2c4.5,0,8.2-3.7,8.2-8.2c0-4.5-3.7-8.2-8.2-8.2s-8.2,3.7-8.2,8.2
	C221.5,358.5,225.2,362.2,229.7,362.2z"/>
<path class="st4" d="M232.1,362.2c4.5,0,8.2-3.7,8.2-8.2c0-4.5-3.7-8.2-8.2-8.2s-8.2,3.7-8.2,8.2
	C223.9,358.5,227.6,362.2,232.1,362.2z"/>
<path class="st7" d="M232.1,358.5c2.5,0,4.6-2,4.6-4.6c0-2.5-2-4.6-4.6-4.6s-4.6,2-4.6,4.6C227.5,356.5,229.6,358.5,232.1,358.5z"/>
<path class="st1" d="M55.7,348.9c-0.1,0-0.2,0.1-0.2,0.3v3.1h-7c-0.2,0-0.3,0.1-0.3,0.3v4.5c0,0.2,0.1,0.3,0.3,0.3h7v3.1
	c0,0.1,0.1,0.2,0.2,0.3c0.1,0,0.2,0,0.3-0.1l5.6-5.6c0.1-0.1,0.1-0.1,0.1-0.2c0-0.1,0-0.1-0.1-0.2L56,349
	C55.9,348.9,55.8,348.9,55.7,348.9z"/>
<path class="st0" d="M121.1,347.3c0-0.2-0.1-0.3-0.2-0.4c-0.1-0.1-0.4-0.2-0.7-0.3c-0.3-0.1-0.6-0.2-0.8-0.3
	c-0.4-0.2-0.6-0.5-0.6-0.9c0-0.3,0.1-0.6,0.4-0.8c0.3-0.2,0.6-0.3,1-0.3c0.3,0,0.5,0.1,0.8,0.2c0.2,0.1,0.4,0.3,0.5,0.4
	c0.1,0.2,0.2,0.4,0.2,0.6h-0.7c0-0.2-0.1-0.4-0.2-0.5c-0.1-0.1-0.3-0.2-0.6-0.2c-0.2,0-0.4,0-0.5,0.1c-0.1,0.1-0.2,0.2-0.2,0.4
	c0,0.2,0.1,0.3,0.2,0.4c0.1,0.1,0.4,0.2,0.7,0.3c0.3,0.1,0.6,0.2,0.8,0.3c0.2,0.1,0.3,0.3,0.4,0.4c0.1,0.2,0.1,0.3,0.1,0.5
	c0,0.3-0.1,0.6-0.4,0.8c-0.3,0.2-0.6,0.3-1.1,0.3c-0.3,0-0.6-0.1-0.8-0.2c-0.2-0.1-0.4-0.3-0.6-0.5c-0.1-0.2-0.2-0.4-0.2-0.7h0.7
	c0,0.2,0.1,0.4,0.2,0.5c0.2,0.1,0.4,0.2,0.7,0.2c0.2,0,0.4,0,0.6-0.1C121.1,347.6,121.1,347.5,121.1,347.3z M123.7,348.4
	c-0.4,0-0.8-0.1-1-0.4c-0.3-0.3-0.4-0.6-0.4-1.1v-0.1c0-0.3,0.1-0.6,0.2-0.8c0.1-0.2,0.3-0.4,0.5-0.6c0.2-0.1,0.4-0.2,0.7-0.2
	c0.4,0,0.7,0.1,1,0.4c0.2,0.3,0.3,0.6,0.3,1.1v0.3h-2c0,0.2,0.1,0.4,0.2,0.6c0.1,0.1,0.3,0.2,0.6,0.2c0.3,0,0.6-0.1,0.8-0.4l0.4,0.3
	c-0.1,0.2-0.3,0.3-0.5,0.4C124.2,348.4,124,348.4,123.7,348.4z M123.6,345.8c-0.2,0-0.3,0.1-0.5,0.2c-0.1,0.1-0.2,0.3-0.2,0.5h1.3v0
	c0-0.2-0.1-0.4-0.2-0.5C124,345.9,123.8,345.8,123.6,345.8z M126.1,345.4l0,0.3c0.2-0.3,0.5-0.4,0.9-0.4c0.6,0,1,0.4,1,1.1v2h-0.7
	v-2c0-0.2,0-0.3-0.1-0.4c-0.1-0.1-0.2-0.1-0.4-0.1c-0.3,0-0.5,0.1-0.6,0.4v2.2h-0.7v-3H126.1z M128.5,346.8c0-0.5,0.1-0.8,0.3-1.1
	c0.2-0.3,0.5-0.4,0.9-0.4c0.3,0,0.6,0.1,0.8,0.3v-1.5h0.7v4.3h-0.6l0-0.3c-0.2,0.2-0.5,0.4-0.8,0.4c-0.4,0-0.6-0.1-0.9-0.4
	C128.6,347.7,128.5,347.3,128.5,346.8z M129.2,346.9c0,0.3,0.1,0.5,0.2,0.7c0.1,0.2,0.3,0.3,0.5,0.3c0.3,0,0.5-0.1,0.6-0.4v-1.3
	c-0.1-0.2-0.3-0.4-0.6-0.4c-0.2,0-0.4,0.1-0.5,0.3C129.3,346.3,129.2,346.6,129.2,346.9z M135.1,348.4h-0.7v-3.3l-1,0.3v-0.6
	l1.6-0.6h0.1V348.4z M139.2,346.7c0,0.6-0.1,1-0.3,1.3c-0.2,0.3-0.6,0.4-1,0.4c-0.4,0-0.8-0.1-1-0.4c-0.2-0.3-0.3-0.7-0.3-1.3V346
	c0-0.6,0.1-1,0.3-1.3c0.2-0.3,0.6-0.4,1-0.4c0.4,0,0.8,0.1,1,0.4c0.2,0.3,0.3,0.7,0.3,1.3V346.7z M138.5,345.9
	c0-0.4-0.1-0.7-0.2-0.8c-0.1-0.2-0.3-0.3-0.5-0.3c-0.2,0-0.4,0.1-0.5,0.3c-0.1,0.2-0.2,0.4-0.2,0.8v0.9c0,0.4,0.1,0.7,0.2,0.8
	c0.1,0.2,0.3,0.3,0.5,0.3c0.2,0,0.4-0.1,0.5-0.3c0.1-0.2,0.2-0.4,0.2-0.8V345.9z M154,344.6v0.7h0.5v0.5H154v1.7
	c0,0.1,0,0.2,0.1,0.3c0,0.1,0.1,0.1,0.2,0.1c0.1,0,0.2,0,0.2,0v0.5c-0.2,0-0.3,0.1-0.4,0.1c-0.5,0-0.8-0.3-0.8-0.9v-1.7h-0.5v-0.5
	h0.5v-0.7H154z M154.8,346.8c0-0.3,0.1-0.6,0.2-0.8c0.1-0.2,0.3-0.4,0.5-0.5c0.2-0.1,0.5-0.2,0.7-0.2c0.4,0,0.7,0.1,1,0.4
	c0.3,0.3,0.4,0.6,0.4,1l0,0.2c0,0.3-0.1,0.6-0.2,0.8c-0.1,0.2-0.3,0.4-0.5,0.5c-0.2,0.1-0.5,0.2-0.7,0.2c-0.4,0-0.8-0.1-1-0.4
	C155,347.7,154.8,347.3,154.8,346.8L154.8,346.8z M155.5,346.9c0,0.3,0.1,0.6,0.2,0.7c0.1,0.2,0.3,0.3,0.5,0.3
	c0.2,0,0.4-0.1,0.5-0.3c0.1-0.2,0.2-0.4,0.2-0.8c0-0.3-0.1-0.5-0.2-0.7c-0.1-0.2-0.3-0.3-0.5-0.3c-0.2,0-0.4,0.1-0.5,0.3
	C155.6,346.3,155.5,346.5,155.5,346.9z M159.7,348.4v-4.1h1.4c0.5,0,0.8,0.1,1.1,0.3c0.2,0.2,0.4,0.5,0.4,0.8c0,0.2-0.1,0.4-0.2,0.5
	c-0.1,0.1-0.2,0.3-0.4,0.3c0.2,0.1,0.4,0.2,0.5,0.3c0.1,0.2,0.2,0.4,0.2,0.6c0,0.4-0.1,0.7-0.4,0.9c-0.2,0.2-0.6,0.3-1.1,0.3H159.7z
	 M160.4,346.5v1.3h0.8c0.2,0,0.4-0.1,0.5-0.2c0.1-0.1,0.2-0.3,0.2-0.5c0-0.4-0.2-0.6-0.6-0.6H160.4z M160.4,346h0.7
	c0.2,0,0.4,0,0.5-0.1c0.1-0.1,0.2-0.2,0.2-0.4c0-0.2-0.1-0.3-0.2-0.4c-0.1-0.1-0.3-0.1-0.5-0.1h-0.7V346z M163.1,346.8
	c0-0.3,0.1-0.6,0.2-0.8c0.1-0.2,0.3-0.4,0.5-0.5c0.2-0.1,0.5-0.2,0.7-0.2c0.4,0,0.7,0.1,1,0.4c0.3,0.3,0.4,0.6,0.4,1l0,0.2
	c0,0.3-0.1,0.6-0.2,0.8c-0.1,0.2-0.3,0.4-0.5,0.5c-0.2,0.1-0.5,0.2-0.7,0.2c-0.4,0-0.8-0.1-1-0.4
	C163.3,347.7,163.1,347.3,163.1,346.8L163.1,346.8z M163.8,346.9c0,0.3,0.1,0.6,0.2,0.7c0.1,0.2,0.3,0.3,0.5,0.3
	c0.2,0,0.4-0.1,0.5-0.3c0.1-0.2,0.2-0.4,0.2-0.8c0-0.3-0.1-0.5-0.2-0.7c-0.1-0.2-0.3-0.3-0.5-0.3c-0.2,0-0.4,0.1-0.5,0.3
	C163.9,346.3,163.8,346.5,163.8,346.9z M169.2,346.9c0,0.5-0.1,0.8-0.3,1.1c-0.2,0.3-0.5,0.4-0.9,0.4c-0.4,0-0.6-0.1-0.8-0.4l0,0.3
	h-0.6v-4.3h0.7v1.6c0.2-0.2,0.5-0.3,0.8-0.3c0.4,0,0.7,0.1,0.9,0.4C169.1,346,169.2,346.4,169.2,346.9L169.2,346.9z M168.5,346.8
	c0-0.3-0.1-0.6-0.2-0.7c-0.1-0.2-0.3-0.2-0.5-0.2c-0.3,0-0.5,0.1-0.6,0.4v1.2c0.1,0.3,0.3,0.4,0.6,0.4c0.2,0,0.4-0.1,0.5-0.2
	C168.4,347.5,168.5,347.2,168.5,346.8L168.5,346.8z"/>
<path class="st1" d="M144.5,347.1c0,0.4-0.2,0.8-0.5,1c-0.3,0.2-0.7,0.4-1.1,0.4c-0.3,0-0.6-0.1-0.9-0.2c-0.2-0.2-0.4-0.4-0.6-0.7
	c-0.1-0.3-0.2-0.6-0.2-1v-0.4c0-0.4,0.1-0.7,0.2-1c0.1-0.3,0.3-0.5,0.6-0.7c0.3-0.2,0.5-0.2,0.9-0.2c0.5,0,0.8,0.1,1.1,0.4
	c0.3,0.2,0.4,0.6,0.5,1h-0.7c0-0.3-0.1-0.5-0.3-0.6c-0.1-0.1-0.3-0.2-0.6-0.2c-0.3,0-0.5,0.1-0.7,0.3c-0.2,0.2-0.2,0.6-0.3,1v0.4
	c0,0.4,0.1,0.8,0.2,1c0.2,0.2,0.4,0.3,0.7,0.3c0.3,0,0.5-0.1,0.6-0.2s0.2-0.3,0.3-0.6H144.5z M146.6,346.8h-0.8v1.6h-0.7v-4.1h1.4
	c0.5,0,0.8,0.1,1.1,0.3c0.3,0.2,0.4,0.5,0.4,0.9c0,0.3-0.1,0.5-0.2,0.7c-0.1,0.2-0.3,0.3-0.5,0.4l0.9,1.7v0h-0.8L146.6,346.8z
	 M145.8,346.2h0.7c0.2,0,0.4-0.1,0.6-0.2c0.1-0.1,0.2-0.3,0.2-0.5c0-0.2-0.1-0.4-0.2-0.5c-0.1-0.1-0.3-0.2-0.6-0.2h-0.7V346.2z
	 M149.4,347.8h1.9v0.6h-2.6v-4.1h0.7V347.8z"/>
<path class="st0" d="M214,375.2v-5h1.7c0.6,0,1,0.1,1.3,0.3c0.3,0.2,0.4,0.6,0.4,1c0,0.2-0.1,0.4-0.2,0.6c-0.1,0.2-0.3,0.3-0.5,0.4
	c0.3,0.1,0.5,0.2,0.6,0.4c0.1,0.2,0.2,0.4,0.2,0.7c0,0.5-0.2,0.8-0.5,1.1c-0.3,0.3-0.7,0.4-1.3,0.4H214z M214.9,372.9v1.6h1
	c0.3,0,0.5-0.1,0.6-0.2c0.2-0.1,0.2-0.3,0.2-0.6c0-0.5-0.3-0.8-0.8-0.8H214.9z M214.9,372.3h0.9c0.3,0,0.5-0.1,0.6-0.2
	c0.2-0.1,0.2-0.3,0.2-0.5c0-0.2-0.1-0.4-0.2-0.5c-0.1-0.1-0.4-0.2-0.7-0.2h-0.8V372.3z M218.2,373.3c0-0.4,0.1-0.7,0.2-1
	c0.1-0.3,0.3-0.5,0.6-0.7c0.3-0.2,0.6-0.2,0.9-0.2c0.5,0,0.9,0.2,1.2,0.5c0.3,0.3,0.5,0.8,0.5,1.3l0,0.2c0,0.4-0.1,0.7-0.2,1
	c-0.1,0.3-0.3,0.5-0.6,0.7c-0.3,0.2-0.6,0.2-0.9,0.2c-0.5,0-0.9-0.2-1.3-0.5C218.4,374.4,218.2,373.9,218.2,373.3L218.2,373.3z
	 M219.1,373.4c0,0.4,0.1,0.7,0.2,0.9c0.2,0.2,0.4,0.3,0.7,0.3c0.3,0,0.5-0.1,0.7-0.3c0.2-0.2,0.2-0.5,0.2-1c0-0.4-0.1-0.7-0.2-0.9
	c-0.2-0.2-0.4-0.3-0.7-0.3c-0.3,0-0.5,0.1-0.6,0.3S219.1,372.9,219.1,373.4z M225.7,373.4c0,0.6-0.1,1-0.4,1.4
	c-0.3,0.3-0.6,0.5-1.1,0.5c-0.4,0-0.8-0.2-1-0.5l0,0.4h-0.8v-5.3h0.8v1.9c0.2-0.3,0.6-0.4,1-0.4c0.5,0,0.8,0.2,1.1,0.5
	C225.5,372.2,225.7,372.7,225.7,373.4L225.7,373.4z M224.8,373.3c0-0.4-0.1-0.7-0.2-0.9c-0.1-0.2-0.3-0.3-0.6-0.3
	c-0.4,0-0.6,0.2-0.8,0.5v1.5c0.1,0.3,0.4,0.5,0.8,0.5c0.3,0,0.5-0.1,0.6-0.3c0.1-0.2,0.2-0.5,0.2-0.9V373.3z M230.1,372.2
	c-0.1,0-0.2,0-0.3,0c-0.4,0-0.6,0.1-0.8,0.4v2.5h-0.8v-3.7h0.8l0,0.4c0.2-0.3,0.5-0.5,0.8-0.5c0.1,0,0.2,0,0.3,0L230.1,372.2z
	 M232.1,375.2c-0.5,0-1-0.2-1.3-0.5c-0.3-0.3-0.5-0.8-0.5-1.3v-0.1c0-0.4,0.1-0.7,0.2-1c0.1-0.3,0.3-0.5,0.6-0.7
	c0.3-0.2,0.5-0.2,0.9-0.2c0.5,0,0.9,0.2,1.2,0.5c0.3,0.3,0.4,0.8,0.4,1.4v0.3h-2.4c0,0.3,0.1,0.5,0.3,0.7c0.2,0.2,0.4,0.3,0.7,0.3
	c0.4,0,0.7-0.2,0.9-0.5l0.4,0.4c-0.1,0.2-0.3,0.4-0.6,0.5C232.7,375.2,232.5,375.2,232.1,375.2z M232.1,372.1
	c-0.2,0-0.4,0.1-0.6,0.2c-0.1,0.2-0.2,0.4-0.3,0.7h1.6v-0.1c0-0.3-0.1-0.5-0.2-0.6C232.5,372.1,232.3,372.1,232.1,372.1z
	 M235.8,374.6c0.2,0,0.4-0.1,0.5-0.2c0.1-0.1,0.2-0.3,0.2-0.5h0.8c0,0.2-0.1,0.4-0.2,0.6c-0.1,0.2-0.3,0.4-0.6,0.5
	c-0.2,0.1-0.5,0.2-0.7,0.2c-0.5,0-0.9-0.2-1.2-0.5c-0.3-0.3-0.5-0.8-0.5-1.4v-0.1c0-0.6,0.2-1,0.5-1.4c0.3-0.3,0.7-0.5,1.2-0.5
	c0.4,0,0.8,0.1,1.1,0.4c0.3,0.3,0.4,0.6,0.4,1h-0.8c0-0.2-0.1-0.4-0.2-0.5c-0.1-0.1-0.3-0.2-0.5-0.2c-0.3,0-0.5,0.1-0.6,0.3
	c-0.1,0.2-0.2,0.5-0.2,0.9v0.1c0,0.4,0.1,0.7,0.2,0.9C235.3,374.5,235.5,374.6,235.8,374.6z M239.6,375.2c-0.5,0-1-0.2-1.3-0.5
	c-0.3-0.3-0.5-0.8-0.5-1.3v-0.1c0-0.4,0.1-0.7,0.2-1c0.1-0.3,0.3-0.5,0.6-0.7c0.3-0.2,0.5-0.2,0.9-0.2c0.5,0,0.9,0.2,1.2,0.5
	c0.3,0.3,0.4,0.8,0.4,1.4v0.3h-2.4c0,0.3,0.1,0.5,0.3,0.7c0.2,0.2,0.4,0.3,0.7,0.3c0.4,0,0.7-0.2,0.9-0.5l0.4,0.4
	c-0.1,0.2-0.3,0.4-0.6,0.5C240.2,375.2,239.9,375.2,239.6,375.2z M239.5,372.1c-0.2,0-0.4,0.1-0.6,0.2c-0.1,0.2-0.2,0.4-0.3,0.7h1.6
	v-0.1c0-0.3-0.1-0.5-0.2-0.6C239.9,372.1,239.7,372.1,239.5,372.1z M242.6,375.2h-0.8v-3.7h0.8V375.2z M241.8,370.5
	c0-0.1,0-0.2,0.1-0.3c0.1-0.1,0.2-0.1,0.4-0.1s0.3,0,0.4,0.1c0.1,0.1,0.1,0.2,0.1,0.3c0,0.1,0,0.2-0.1,0.3c-0.1,0.1-0.2,0.1-0.4,0.1
	s-0.3,0-0.4-0.1C241.8,370.7,241.8,370.6,241.8,370.5z M244.9,374.1l0.8-2.7h0.9l-1.3,3.7h-0.7l-1.3-3.7h0.9L244.9,374.1z
	 M248.6,375.2c-0.5,0-1-0.2-1.3-0.5c-0.3-0.3-0.5-0.8-0.5-1.3v-0.1c0-0.4,0.1-0.7,0.2-1c0.1-0.3,0.3-0.5,0.6-0.7
	c0.3-0.2,0.5-0.2,0.9-0.2c0.5,0,0.9,0.2,1.2,0.5c0.3,0.3,0.4,0.8,0.4,1.4v0.3h-2.4c0,0.3,0.1,0.5,0.3,0.7c0.2,0.2,0.4,0.3,0.7,0.3
	c0.4,0,0.7-0.2,0.9-0.5l0.5,0.4c-0.1,0.2-0.3,0.4-0.6,0.5C249.2,375.2,248.9,375.2,248.6,375.2z M248.5,372.1
	c-0.2,0-0.4,0.1-0.6,0.2c-0.1,0.2-0.2,0.4-0.3,0.7h1.6v-0.1c0-0.3-0.1-0.5-0.2-0.6C248.9,372.1,248.8,372.1,248.5,372.1z
	 M254.7,375.2h-0.8v-4l-1.2,0.4v-0.7l2-0.7h0.1V375.2z M259.7,373.1c0,0.7-0.1,1.3-0.4,1.6c-0.3,0.4-0.7,0.5-1.2,0.5
	c-0.5,0-0.9-0.2-1.2-0.5c-0.3-0.4-0.4-0.9-0.4-1.6v-0.9c0-0.7,0.1-1.3,0.4-1.6c0.3-0.4,0.7-0.5,1.2-0.5c0.5,0,1,0.2,1.2,0.5
	c0.3,0.3,0.4,0.9,0.4,1.6V373.1z M258.9,372.1c0-0.5-0.1-0.8-0.2-1c-0.1-0.2-0.3-0.3-0.6-0.3c-0.3,0-0.5,0.1-0.6,0.3
	c-0.1,0.2-0.2,0.5-0.2,1v1.1c0,0.5,0.1,0.8,0.2,1c0.1,0.2,0.3,0.3,0.6,0.3c0.3,0,0.5-0.1,0.6-0.3c0.1-0.2,0.2-0.5,0.2-1V372.1z"/>
<path class="st1" d="M266.2,373.6c-0.1,0.5-0.2,0.9-0.6,1.2c-0.3,0.3-0.8,0.4-1.4,0.4c-0.4,0-0.8-0.1-1.1-0.3
	c-0.3-0.2-0.5-0.5-0.7-0.8c-0.2-0.3-0.3-0.7-0.3-1.2v-0.5c0-0.5,0.1-0.9,0.3-1.2c0.2-0.4,0.4-0.6,0.7-0.8c0.3-0.2,0.7-0.3,1.1-0.3
	c0.6,0,1,0.2,1.3,0.5c0.3,0.3,0.5,0.7,0.6,1.3h-0.9c0-0.4-0.1-0.6-0.3-0.8c-0.2-0.2-0.4-0.2-0.7-0.2c-0.4,0-0.7,0.1-0.9,0.4
	c-0.2,0.3-0.3,0.7-0.3,1.2v0.4c0,0.5,0.1,1,0.3,1.2c0.2,0.3,0.5,0.4,0.9,0.4c0.3,0,0.6-0.1,0.8-0.2c0.2-0.2,0.3-0.4,0.3-0.8H266.2z
	 M268.8,373.3h-1v1.9H267v-5h1.8c0.6,0,1,0.1,1.3,0.4c0.3,0.3,0.5,0.6,0.5,1.1c0,0.3-0.1,0.6-0.2,0.8c-0.2,0.2-0.4,0.4-0.7,0.5
	l1.1,2.1v0h-0.9L268.8,373.3z M267.8,372.6h0.9c0.3,0,0.5-0.1,0.7-0.2c0.2-0.1,0.2-0.4,0.2-0.6c0-0.3-0.1-0.5-0.2-0.6
	c-0.2-0.1-0.4-0.2-0.7-0.2h-0.9V372.6z M272.2,374.5h2.3v0.7h-3.1v-5h0.9V374.5z"/>
<path class="st1" d="M241.5,348.9c-0.1,0-0.2,0.1-0.2,0.3v3.1h-7c-0.2,0-0.3,0.1-0.3,0.3v4.5c0,0.2,0.1,0.3,0.3,0.3h7v3.1
	c0,0.1,0.1,0.2,0.2,0.3c0.1,0,0.2,0,0.3-0.1l5.6-5.6c0.1-0.1,0.1-0.1,0.1-0.2c0-0.1,0-0.1-0.1-0.2l-5.6-5.6
	C241.8,348.9,241.6,348.9,241.5,348.9z"/>
<path class="st3" d="M33.1,350.8c0-0.7-0.5-1.3-1.2-1.3l-0.1-0.8c-0.1-1.1-0.6-2.2-1.5-3c-0.2-0.2-0.5-0.4-0.7-0.5
	c0-0.1,0-0.2,0-0.3c0-1.3-1.1-2.4-2.4-2.4c-1.1,0-2.1,0.8-2.4,1.9c0,0.2,0.1,0.3,0.3,0.4c0.2,0,0.3-0.1,0.4-0.3
	c0.2-0.8,0.9-1.4,1.7-1.4c1,0,1.8,0.8,1.8,1.8c0,0,0,0,0,0l0,0v0c-0.6-0.2-1.1-0.3-1.8-0.3c-1.2,0-2.3,0.4-3.1,1.2
	c-0.9,0.8-1.4,1.8-1.5,3l-0.1,0.8c-0.7,0.1-1.2,0.6-1.2,1.3c0,0.6,0.4,1.1,0.9,1.3c-0.1,1.2,0.5,2.4,1.5,3.1l0.3,0.2
	c-1.3,0.5-2.1,1.7-2.1,3.1v1c0,0.2,0.1,0.3,0.3,0.3c0.2,0,0.3-0.1,0.3-0.3v-1c0-1.3,0.9-2.3,2.1-2.6h0l0.8,0.6
	c0.5,0.4,1.1,0.5,1.7,0.5c0.6,0,1.2-0.2,1.7-0.5l1.8-1.3c1-0.7,1.5-1.9,1.5-3.1C32.7,351.9,33.1,351.4,33.1,350.8z M22.4,351.4
	c-0.2-0.1-0.4-0.3-0.4-0.6c0-0.3,0.2-0.6,0.5-0.7L22.4,351.4z M24.6,346.2c0.7-0.7,1.7-1,2.7-1c1,0,1.9,0.4,2.7,1
	c0.7,0.7,1.2,1.6,1.3,2.6l0,0.2c-1.6-0.2-2.5-2-2.6-2c-0.1-0.1-0.2-0.2-0.3-0.2c-0.1,0-0.2,0.1-0.3,0.2c0,0-1.1,1.9-4.8,1.5
	C23.5,347.5,23.9,346.8,24.6,346.2z M23.3,349.1c3.1,0.3,4.5-0.8,5.1-1.4c0.4,0.6,1.4,1.8,2.9,1.9l0.1,0.8l-0.8,0.7
	c-0.2-0.5-0.8-0.9-1.4-0.9c-0.7,0-1.4,0.5-1.5,1.2h-0.7c-0.2-0.7-0.8-1.2-1.5-1.2c-0.6,0-1.2,0.4-1.4,0.9l-0.8-0.7L23.3,349.1z
	 M30,351.6c0,0.5-0.4,0.9-0.9,0.9s-0.9-0.4-0.9-0.9c0-0.5,0.4-0.9,0.9-0.9S30,351.1,30,351.6z M26.3,351.6c0,0.5-0.4,0.9-0.9,0.9
	c-0.5,0-0.9-0.4-0.9-0.9c0-0.5,0.4-0.9,0.9-0.9C25.9,350.7,26.3,351.1,26.3,351.6z M30.3,354.6l-1.8,1.3c-0.8,0.6-1.8,0.6-2.6,0
	l-1.8-1.3c-0.8-0.6-1.3-1.6-1.2-2.7l0.1-0.8l0.8,0.7c0.1,0.8,0.7,1.4,1.5,1.4c0.7,0,1.4-0.5,1.5-1.2h0.5v0.8H27
	c-0.2,0-0.3,0.1-0.3,0.3c0,0.2,0.1,0.3,0.3,0.3h0.7c0.2,0,0.3-0.1,0.3-0.3v-0.4c0.3,0.3,0.7,0.5,1.1,0.5c0.8,0,1.5-0.6,1.5-1.4
	l0.8-0.7l0.1,0.8C31.6,353,31.2,354,30.3,354.6z M32.1,351.4l-0.1-1.3c0.3,0.1,0.5,0.3,0.5,0.7C32.5,351,32.3,351.3,32.1,351.4z
	 M30.4,355.6c0.1-0.2,0.3-0.2,0.4-0.1c1.1,0.6,1.7,1.7,1.7,2.9v3.9c0,0.2-0.1,0.3-0.3,0.3h-9.9c-0.2,0-0.3-0.1-0.3-0.3v-1.8
	c0-0.2,0.1-0.3,0.3-0.3c0.2,0,0.3,0.1,0.3,0.3v1.5h1.3v-3.6c0-0.2,0.1-0.3,0.3-0.3s0.3,0.1,0.3,0.3v3.6h5.3v-3.6
	c0-0.2,0.1-0.3,0.3-0.3c0.2,0,0.3,0.1,0.3,0.3v3.6h1.3v-3.6c0-1-0.5-1.9-1.4-2.3C30.3,356,30.3,355.8,30.4,355.6z M28.8,357
	c0-0.2,0.1-0.3,0.3-0.3c0.2,0,0.3,0.1,0.3,0.3c0,1.2-1,2.2-2.2,2.2c-1.2,0-2.2-1-2.2-2.2c0-0.2,0.1-0.3,0.3-0.3
	c0.2,0,0.3,0.1,0.3,0.3c0,0.9,0.7,1.6,1.6,1.6C28.1,358.6,28.8,357.8,28.8,357z M27.9,353.9c0.1-0.1,0.3-0.1,0.5,0
	c0.1,0.1,0.1,0.3,0,0.5c-0.3,0.3-0.7,0.5-1.1,0.5c-0.4,0-0.8-0.2-1.1-0.5c-0.1-0.1-0.1-0.3,0-0.5c0.1-0.1,0.3-0.1,0.5,0
	c0.2,0.2,0.4,0.3,0.6,0.3C27.5,354.2,27.7,354.1,27.9,353.9z M29.4,351.1h-0.5c-0.2,0-0.3,0.1-0.3,0.3c0,0.2,0.1,0.3,0.3,0.3h0.5
	c0.2,0,0.3-0.1,0.3-0.3C29.7,351.2,29.6,351.1,29.4,351.1z M25.1,351.1h0.5c0.2,0,0.3,0.1,0.3,0.3c0,0.2-0.1,0.3-0.3,0.3h-0.5
	c-0.2,0-0.3-0.1-0.3-0.3C24.8,351.2,24.9,351.1,25.1,351.1z"/>
<path class="st1" d="M168.1,192.3h-24.5c-0.9,0-1.6,0.7-1.6,1.6v22.1c0,0.9,0.7,1.6,1.6,1.6h24.5c0.9,0,1.6-0.7,1.6-1.6v-22.1
	C169.7,193,169,192.3,168.1,192.3z"/>
<path class="st8" d="M167.1,189h-44.6c-5.1,0-9.3,4.1-9.3,9.2v14c0,5.1,4.1,9.2,9.3,9.2h44.6c5.1,0,9.3-4.1,9.3-9.2v-14
	C176.3,193.2,172.2,189,167.1,189z"/>
<path class="st3" d="M122.8,199.4c0-2.8,2.3-5,5-5c2.8,0,5,2.2,5,5v0.8c0.2,0.2,0.3,0.5,0.3,0.9c0,0.3-0.1,0.6-0.3,0.9
	c0.1,0.7,0.3,1.4,0.8,2c1,1.2,1.2,2.9,0.6,4.3c0.6,0.6,0.9,1.3,0.9,2.2v4h-0.7v-4c0-1.2-0.9-2.2-2-2.3l-1.3-0.2v6.5h-0.7V208
	l-2.4,4.2c-0.1,0.1-0.2,0.2-0.3,0.2c-0.1,0-0.2-0.1-0.3-0.2l-2.4-4.2v6.3h-0.7v-6.5l-1.3,0.2c-1.2,0.1-2,1.1-2,2.3v4h-0.7v-4
	c0-0.8,0.3-1.6,0.9-2.2c-0.5-1.4-0.3-2.9,0.5-4.2l0.2-0.3c0.4-0.6,0.7-1.3,0.7-2V199.4z M129.8,207.8c-0.4-0.1-0.7-0.5-0.7-1v-1
	c-0.4,0.2-0.9,0.2-1.4,0.2c-0.5,0-0.9-0.1-1.3-0.2v1c0,0.5-0.3,0.9-0.7,1l2.1,3.6L129.8,207.8z M129.8,205.5v1.3
	c0,0.2,0.1,0.3,0.3,0.3l2.4,0.3c0.4,0.1,0.8,0.2,1.2,0.4c0.4-1.2,0.2-2.5-0.6-3.5c-0.5-0.6-0.8-1.3-0.9-2c-0.1,0-0.3,0.1-0.4,0.1
	h-0.1C131.6,203.7,130.8,204.8,129.8,205.5z M123.8,202.4c0.1,1.3,0.9,2.4,1.9,3.1v1.3c0,0.2-0.1,0.3-0.3,0.3l-2.4,0.3
	c-0.4,0.1-0.8,0.2-1.2,0.4c-0.4-1.1-0.2-2.4,0.5-3.3l0.2-0.3c0.5-0.7,0.8-1.5,0.8-2.4v-2.5c0-2.4,2-4.3,4.3-4.3
	c2.4,0,4.3,1.9,4.3,4.3v0.4c-0.1,0-0.2,0-0.3,0h-0.2c-1.2-1-2.1-2.8-2.2-2.8c-0.1-0.1-0.2-0.2-0.3-0.2c-0.1,0-0.2,0-0.3,0.1
	c-1.6,2.3-4.9,4.2-4.9,4.2c-0.1,0.1-0.2,0.2-0.2,0.3L123.8,202.4z M131.8,200.4l-0.1,1.3h0.1c0.4,0,0.7-0.3,0.7-0.7
	S132.2,200.4,131.8,200.4L131.8,200.4z M131,202.3c-0.1,1.7-1.5,3-3.2,3c-1.7,0-3.1-1.3-3.2-3l-0.1-0.8c0.2-0.1,0.4-0.3,0.8-0.5
	c0.1,0.2,0.3,0.3,0.6,0.3c0.4,0,0.7-0.3,0.7-0.7c0-0.2-0.1-0.3-0.2-0.4c0.9-0.7,2-1.6,2.8-2.6c0.4,0.6,1.1,1.8,2,2.5L131,202.3z
	 M129.8,201.4c0.4,0,0.7-0.3,0.7-0.7s-0.3-0.7-0.7-0.7c-0.4,0-0.7,0.3-0.7,0.7S129.4,201.4,129.8,201.4z M128.1,201.2l-0.4,0.9h0.5
	v0.7h-1c-0.1,0-0.2-0.1-0.3-0.2c-0.1-0.1-0.1-0.2,0-0.3l0.7-1.3L128.1,201.2z M128.6,203.1c-0.4,0.2-0.8,0.3-1.3,0.3h0h-0.3v0.7h0.3
	h0c0.5,0,1.1-0.1,1.6-0.4L128.6,203.1z"/>
<path class="st9" d="M165.2,211h-19c-1.2,0-2.1,0.9-2.1,2.1c0,1.1,0.9,2.1,2.1,2.1h19c1.2,0,2.1-0.9,2.1-2.1
	C167.3,211.9,166.4,211,165.2,211z"/>
<path class="st6" d="M154.7,213.3c4.5,0,8.2-3.7,8.2-8.2c0-4.5-3.7-8.2-8.2-8.2c-4.5,0-8.2,3.7-8.2,8.2
	C146.5,209.7,150.1,213.3,154.7,213.3z"/>
<path class="st4" d="M157,213.3c4.5,0,8.2-3.7,8.2-8.2c0-4.5-3.7-8.2-8.2-8.2c-4.5,0-8.2,3.7-8.2,8.2
	C148.8,209.7,152.5,213.3,157,213.3z"/>
<path class="st7" d="M157,209.7c2.5,0,4.6-2,4.6-4.6c0-2.5-2-4.6-4.6-4.6c-2.5,0-4.6,2-4.6,4.6C152.5,207.7,154.5,209.7,157,209.7z"
	/>
</svg>
